<mxfile host="65bd71144e">
    <diagram id="ycN9dQsnpe6OD0IJ1kwO" name="Page-1">
        <mxGraphModel dx="920" dy="645" grid="1" gridSize="10" guides="1" tooltips="1" connect="1" arrows="1" fold="1" page="1" pageScale="1" pageWidth="3000000" pageHeight="3000000" math="0" shadow="0">
            <root>
                <mxCell id="0"/>
                <mxCell id="1" parent="0"/>
                <mxCell id="72" value="estudio" style="whiteSpace=wrap;html=1;align=center;fillColor=#6a00ff;fontColor=#ffffff;strokeColor=#3700CC;" vertex="1" parent="1">
                    <mxGeometry x="380" y="300" width="100" height="40" as="geometry"/>
                </mxCell>
                <mxCell id="74" value="titulo" style="whiteSpace=wrap;html=1;align=center;fillColor=#6a00ff;fontColor=#ffffff;strokeColor=#3700CC;" vertex="1" parent="1">
                    <mxGeometry x="380" y="430" width="100" height="40" as="geometry"/>
                </mxCell>
                <mxCell id="75" value="año" style="whiteSpace=wrap;html=1;align=center;fillColor=#6a00ff;fontColor=#ffffff;strokeColor=#3700CC;" vertex="1" parent="1">
                    <mxGeometry x="380" y="530" width="100" height="40" as="geometry"/>
                </mxCell>
                <mxCell id="76" value="" style="endArrow=none;html=1;rounded=0;exitX=0.5;exitY=1;exitDx=0;exitDy=0;entryX=0.5;entryY=0;entryDx=0;entryDy=0;" edge="1" parent="1" source="74" target="75">
                    <mxGeometry relative="1" as="geometry">
                        <mxPoint x="350" y="480" as="sourcePoint"/>
                        <mxPoint x="510" y="480" as="targetPoint"/>
                    </mxGeometry>
                </mxCell>
                <mxCell id="77" value="" style="whiteSpace=wrap;html=1;align=center;fillColor=none;rotation=90;" vertex="1" parent="1">
                    <mxGeometry x="340" y="440" width="180" height="120" as="geometry"/>
                </mxCell>
                <mxCell id="78" value="" style="endArrow=none;html=1;rounded=0;exitX=0.5;exitY=1;exitDx=0;exitDy=0;entryX=0;entryY=0.5;entryDx=0;entryDy=0;" edge="1" parent="1" source="72" target="77">
                    <mxGeometry relative="1" as="geometry">
                        <mxPoint x="350" y="480" as="sourcePoint"/>
                        <mxPoint x="510" y="480" as="targetPoint"/>
                    </mxGeometry>
                </mxCell>
                <mxCell id="79" value="dirección estudio" style="whiteSpace=wrap;html=1;align=center;fillColor=#6a00ff;fontColor=#ffffff;strokeColor=#3700CC;" vertex="1" parent="1">
                    <mxGeometry x="650" y="300" width="100" height="40" as="geometry"/>
                </mxCell>
                <mxCell id="80" value="" style="endArrow=none;html=1;rounded=0;exitX=1;exitY=0.5;exitDx=0;exitDy=0;entryX=0;entryY=0.5;entryDx=0;entryDy=0;" edge="1" parent="1" source="72" target="79">
                    <mxGeometry relative="1" as="geometry">
                        <mxPoint x="510" y="450" as="sourcePoint"/>
                        <mxPoint x="670" y="450" as="targetPoint"/>
                    </mxGeometry>
                </mxCell>
                <mxCell id="81" value="actor" style="whiteSpace=wrap;html=1;align=center;fillColor=#6a00ff;fontColor=#ffffff;strokeColor=#3700CC;" vertex="1" parent="1">
                    <mxGeometry x="650" y="370" width="100" height="40" as="geometry"/>
                </mxCell>
                <mxCell id="82" value="duración" style="whiteSpace=wrap;html=1;align=center;fillColor=#6a00ff;fontColor=#ffffff;strokeColor=#3700CC;" vertex="1" parent="1">
                    <mxGeometry x="650" y="450" width="100" height="40" as="geometry"/>
                </mxCell>
                <mxCell id="83" value="tipo" style="whiteSpace=wrap;html=1;align=center;fillColor=#6a00ff;fontColor=#ffffff;strokeColor=#3700CC;" vertex="1" parent="1">
                    <mxGeometry x="650" y="520" width="100" height="40" as="geometry"/>
                </mxCell>
                <mxCell id="84" value="" style="endArrow=none;html=1;rounded=0;exitX=0.25;exitY=0;exitDx=0;exitDy=0;entryX=0;entryY=0.5;entryDx=0;entryDy=0;" edge="1" parent="1" source="77" target="81">
                    <mxGeometry relative="1" as="geometry">
                        <mxPoint x="510" y="450" as="sourcePoint"/>
                        <mxPoint x="670" y="450" as="targetPoint"/>
                    </mxGeometry>
                </mxCell>
                <mxCell id="85" value="" style="endArrow=none;html=1;rounded=0;exitX=0.25;exitY=0;exitDx=0;exitDy=0;entryX=0;entryY=0.5;entryDx=0;entryDy=0;" edge="1" parent="1" source="77" target="82">
                    <mxGeometry relative="1" as="geometry">
                        <mxPoint x="510" y="450" as="sourcePoint"/>
                        <mxPoint x="670" y="450" as="targetPoint"/>
                    </mxGeometry>
                </mxCell>
                <mxCell id="86" value="" style="endArrow=none;html=1;rounded=0;entryX=0;entryY=0.5;entryDx=0;entryDy=0;" edge="1" parent="1" target="83">
                    <mxGeometry relative="1" as="geometry">
                        <mxPoint x="490" y="540" as="sourcePoint"/>
                        <mxPoint x="670" y="450" as="targetPoint"/>
                    </mxGeometry>
                </mxCell>
                <mxCell id="88" value="GRAFO DE DEPENDENCIAS" style="ellipse;whiteSpace=wrap;html=1;align=center;fontStyle=4;fillColor=#a20025;fontColor=#ffffff;strokeColor=#6F0000;" vertex="1" parent="1">
                    <mxGeometry x="510" y="210" width="130" height="50" as="geometry"/>
                </mxCell>
                <mxCell id="89" value="R(título, año, duración, tipo, estudio, dirección, actor)" style="whiteSpace=wrap;html=1;align=center;fillColor=#76608a;fontColor=#ffffff;strokeColor=#432D57;" vertex="1" parent="1">
                    <mxGeometry x="540" y="850" width="200" height="60" as="geometry"/>
                </mxCell>
                <mxCell id="90" value="R1(estudio, dirección)" style="whiteSpace=wrap;html=1;align=center;fillColor=#76608a;fontColor=#ffffff;strokeColor=#432D57;" vertex="1" parent="1">
                    <mxGeometry x="365" y="960" width="130" height="40" as="geometry"/>
                </mxCell>
                <mxCell id="91" value="R2(título, año, duración, tipo, actor, estudio)" style="whiteSpace=wrap;html=1;align=center;fillColor=#76608a;fontColor=#ffffff;strokeColor=#432D57;" vertex="1" parent="1">
                    <mxGeometry x="770" y="960" width="210" height="40" as="geometry"/>
                </mxCell>
                <mxCell id="92" value="R3(título, año, actor, duración)" style="whiteSpace=wrap;html=1;align=center;fillColor=#76608a;fontColor=#ffffff;strokeColor=#432D57;" vertex="1" parent="1">
                    <mxGeometry x="640" y="1050" width="140" height="50" as="geometry"/>
                </mxCell>
                <mxCell id="93" value="R4(título, año, estudio, tipo)" style="whiteSpace=wrap;html=1;align=center;fillColor=#76608a;fontColor=#ffffff;strokeColor=#432D57;" vertex="1" parent="1">
                    <mxGeometry x="950" y="1050" width="140" height="50" as="geometry"/>
                </mxCell>
                <mxCell id="94" value="" style="endArrow=none;html=1;rounded=0;exitX=0.5;exitY=0;exitDx=0;exitDy=0;entryX=0.5;entryY=1;entryDx=0;entryDy=0;" edge="1" parent="1" source="90" target="89">
                    <mxGeometry relative="1" as="geometry">
                        <mxPoint x="660" y="910" as="sourcePoint"/>
                        <mxPoint x="820" y="910" as="targetPoint"/>
                    </mxGeometry>
                </mxCell>
                <mxCell id="95" value="" style="endArrow=none;html=1;rounded=0;exitX=0.5;exitY=1;exitDx=0;exitDy=0;entryX=0;entryY=0;entryDx=0;entryDy=0;" edge="1" parent="1" source="89" target="91">
                    <mxGeometry relative="1" as="geometry">
                        <mxPoint x="660" y="910" as="sourcePoint"/>
                        <mxPoint x="820" y="910" as="targetPoint"/>
                    </mxGeometry>
                </mxCell>
                <mxCell id="96" value="" style="endArrow=none;html=1;rounded=0;exitX=0.5;exitY=0;exitDx=0;exitDy=0;entryX=0.5;entryY=1;entryDx=0;entryDy=0;" edge="1" parent="1" source="92" target="91">
                    <mxGeometry relative="1" as="geometry">
                        <mxPoint x="660" y="910" as="sourcePoint"/>
                        <mxPoint x="820" y="910" as="targetPoint"/>
                    </mxGeometry>
                </mxCell>
                <mxCell id="97" value="" style="endArrow=none;html=1;rounded=0;exitX=0.5;exitY=0;exitDx=0;exitDy=0;entryX=0.5;entryY=1;entryDx=0;entryDy=0;" edge="1" parent="1" source="93" target="91">
                    <mxGeometry relative="1" as="geometry">
                        <mxPoint x="660" y="910" as="sourcePoint"/>
                        <mxPoint x="820" y="910" as="targetPoint"/>
                    </mxGeometry>
                </mxCell>
                <mxCell id="98" value="DISEÑO POR DESCOMPISICIÓN" style="ellipse;whiteSpace=wrap;html=1;align=center;fontStyle=4;fillColor=#a20025;fontColor=#ffffff;strokeColor=#6F0000;" vertex="1" parent="1">
                    <mxGeometry x="830" y="760" width="140" height="60" as="geometry"/>
                </mxCell>
                <mxCell id="112" value="" style="shape=table;html=1;whiteSpace=wrap;startSize=0;container=1;collapsible=0;childLayout=tableLayout;fillColor=default;" vertex="1" parent="1">
                    <mxGeometry x="670" y="1410" width="200" height="173" as="geometry"/>
                </mxCell>
                <mxCell id="113" value="" style="shape=tableRow;horizontal=0;startSize=0;swimlaneHead=0;swimlaneBody=0;top=0;left=0;bottom=0;right=0;collapsible=0;dropTarget=0;fillColor=none;points=[[0,0.5],[1,0.5]];portConstraint=eastwest;" vertex="1" parent="112">
                    <mxGeometry width="200" height="43" as="geometry"/>
                </mxCell>
                <mxCell id="114" value="Estudio" style="shape=partialRectangle;html=1;whiteSpace=wrap;connectable=0;fillColor=#1ba1e2;top=0;left=0;bottom=0;right=0;overflow=hidden;fontColor=#ffffff;strokeColor=#006EAF;strokeWidth=16;" vertex="1" parent="113">
                    <mxGeometry width="100" height="43" as="geometry">
                        <mxRectangle width="100" height="43" as="alternateBounds"/>
                    </mxGeometry>
                </mxCell>
                <mxCell id="115" value="Dirección Estudio" style="shape=partialRectangle;html=1;whiteSpace=wrap;connectable=0;fillColor=#1ba1e2;top=0;left=0;bottom=0;right=0;overflow=hidden;fontColor=#ffffff;strokeColor=#006EAF;" vertex="1" parent="113">
                    <mxGeometry x="100" width="100" height="43" as="geometry">
                        <mxRectangle width="100" height="43" as="alternateBounds"/>
                    </mxGeometry>
                </mxCell>
                <mxCell id="117" value="" style="shape=tableRow;horizontal=0;startSize=0;swimlaneHead=0;swimlaneBody=0;top=0;left=0;bottom=0;right=0;collapsible=0;dropTarget=0;fillColor=none;points=[[0,0.5],[1,0.5]];portConstraint=eastwest;" vertex="1" parent="112">
                    <mxGeometry y="43" width="200" height="44" as="geometry"/>
                </mxCell>
                <mxCell id="118" value="Fox" style="shape=partialRectangle;html=1;whiteSpace=wrap;connectable=0;fillColor=#647687;top=0;left=0;bottom=0;right=0;overflow=hidden;strokeColor=#314354;fontColor=#ffffff;" vertex="1" parent="117">
                    <mxGeometry width="100" height="44" as="geometry">
                        <mxRectangle width="100" height="44" as="alternateBounds"/>
                    </mxGeometry>
                </mxCell>
                <mxCell id="119" value="Hollywood" style="shape=partialRectangle;html=1;whiteSpace=wrap;connectable=0;fillColor=#647687;top=0;left=0;bottom=0;right=0;overflow=hidden;strokeColor=#314354;fontColor=#ffffff;" vertex="1" parent="117">
                    <mxGeometry x="100" width="100" height="44" as="geometry">
                        <mxRectangle width="100" height="44" as="alternateBounds"/>
                    </mxGeometry>
                </mxCell>
                <mxCell id="121" value="" style="shape=tableRow;horizontal=0;startSize=0;swimlaneHead=0;swimlaneBody=0;top=0;left=0;bottom=0;right=0;collapsible=0;dropTarget=0;fillColor=none;points=[[0,0.5],[1,0.5]];portConstraint=eastwest;" vertex="1" parent="112">
                    <mxGeometry y="87" width="200" height="43" as="geometry"/>
                </mxCell>
                <mxCell id="122" value="Disney" style="shape=partialRectangle;html=1;whiteSpace=wrap;connectable=0;fillColor=#647687;top=0;left=0;bottom=0;right=0;overflow=hidden;strokeColor=#314354;fontColor=#ffffff;" vertex="1" parent="121">
                    <mxGeometry width="100" height="43" as="geometry">
                        <mxRectangle width="100" height="43" as="alternateBounds"/>
                    </mxGeometry>
                </mxCell>
                <mxCell id="123" value="Buenavista" style="shape=partialRectangle;html=1;whiteSpace=wrap;connectable=0;fillColor=#647687;top=0;left=0;bottom=0;right=0;overflow=hidden;strokeColor=#314354;fontColor=#ffffff;" vertex="1" parent="121">
                    <mxGeometry x="100" width="100" height="43" as="geometry">
                        <mxRectangle width="100" height="43" as="alternateBounds"/>
                    </mxGeometry>
                </mxCell>
                <mxCell id="125" style="shape=tableRow;horizontal=0;startSize=0;swimlaneHead=0;swimlaneBody=0;top=0;left=0;bottom=0;right=0;collapsible=0;dropTarget=0;fillColor=none;points=[[0,0.5],[1,0.5]];portConstraint=eastwest;" vertex="1" parent="112">
                    <mxGeometry y="130" width="200" height="43" as="geometry"/>
                </mxCell>
                <mxCell id="126" value="MGM" style="shape=partialRectangle;html=1;whiteSpace=wrap;connectable=0;fillColor=#647687;top=0;left=0;bottom=0;right=0;overflow=hidden;strokeColor=#314354;fontColor=#ffffff;" vertex="1" parent="125">
                    <mxGeometry width="100" height="43" as="geometry">
                        <mxRectangle width="100" height="43" as="alternateBounds"/>
                    </mxGeometry>
                </mxCell>
                <mxCell id="127" value="Hollywood" style="shape=partialRectangle;html=1;whiteSpace=wrap;connectable=0;fillColor=#647687;top=0;left=0;bottom=0;right=0;overflow=hidden;strokeColor=#314354;fontColor=#ffffff;" vertex="1" parent="125">
                    <mxGeometry x="100" width="100" height="43" as="geometry">
                        <mxRectangle width="100" height="43" as="alternateBounds"/>
                    </mxGeometry>
                </mxCell>
                <mxCell id="128" value="" style="shape=table;html=1;whiteSpace=wrap;startSize=0;container=1;collapsible=0;childLayout=tableLayout;fillColor=default;" vertex="1" parent="1">
                    <mxGeometry x="620" y="1650" width="300" height="259" as="geometry"/>
                </mxCell>
                <mxCell id="129" value="" style="shape=tableRow;horizontal=0;startSize=0;swimlaneHead=0;swimlaneBody=0;top=0;left=0;bottom=0;right=0;collapsible=0;dropTarget=0;fillColor=none;points=[[0,0.5],[1,0.5]];portConstraint=eastwest;" vertex="1" parent="128">
                    <mxGeometry width="300" height="43" as="geometry"/>
                </mxCell>
                <mxCell id="130" value="Título" style="shape=partialRectangle;html=1;whiteSpace=wrap;connectable=0;fillColor=#1ba1e2;top=0;left=0;bottom=0;right=0;overflow=hidden;fontColor=#ffffff;strokeColor=#006EAF;strokeWidth=16;" vertex="1" parent="129">
                    <mxGeometry width="100" height="43" as="geometry">
                        <mxRectangle width="100" height="43" as="alternateBounds"/>
                    </mxGeometry>
                </mxCell>
                <mxCell id="131" value="Año" style="shape=partialRectangle;html=1;whiteSpace=wrap;connectable=0;fillColor=#1ba1e2;top=0;left=0;bottom=0;right=0;overflow=hidden;fontColor=#ffffff;strokeColor=#006EAF;" vertex="1" parent="129">
                    <mxGeometry x="100" width="100" height="43" as="geometry">
                        <mxRectangle width="100" height="43" as="alternateBounds"/>
                    </mxGeometry>
                </mxCell>
                <mxCell id="158" value="Duración" style="shape=partialRectangle;html=1;whiteSpace=wrap;connectable=0;fillColor=#1ba1e2;top=0;left=0;bottom=0;right=0;overflow=hidden;fontColor=#ffffff;strokeColor=#006EAF;" vertex="1" parent="129">
                    <mxGeometry x="200" width="100" height="43" as="geometry">
                        <mxRectangle width="100" height="43" as="alternateBounds"/>
                    </mxGeometry>
                </mxCell>
                <mxCell id="132" value="" style="shape=tableRow;horizontal=0;startSize=0;swimlaneHead=0;swimlaneBody=0;top=0;left=0;bottom=0;right=0;collapsible=0;dropTarget=0;fillColor=none;points=[[0,0.5],[1,0.5]];portConstraint=eastwest;" vertex="1" parent="128">
                    <mxGeometry y="43" width="300" height="44" as="geometry"/>
                </mxCell>
                <mxCell id="133" value="Star wars" style="shape=partialRectangle;html=1;whiteSpace=wrap;connectable=0;fillColor=#647687;top=0;left=0;bottom=0;right=0;overflow=hidden;strokeColor=#314354;fontColor=#ffffff;" vertex="1" parent="132">
                    <mxGeometry width="100" height="44" as="geometry">
                        <mxRectangle width="100" height="44" as="alternateBounds"/>
                    </mxGeometry>
                </mxCell>
                <mxCell id="134" value="1977" style="shape=partialRectangle;html=1;whiteSpace=wrap;connectable=0;fillColor=#647687;top=0;left=0;bottom=0;right=0;overflow=hidden;strokeColor=#314354;fontColor=#ffffff;" vertex="1" parent="132">
                    <mxGeometry x="100" width="100" height="44" as="geometry">
                        <mxRectangle width="100" height="44" as="alternateBounds"/>
                    </mxGeometry>
                </mxCell>
                <mxCell id="159" value="124" style="shape=partialRectangle;html=1;whiteSpace=wrap;connectable=0;fillColor=#647687;top=0;left=0;bottom=0;right=0;overflow=hidden;strokeColor=#314354;fontColor=#ffffff;" vertex="1" parent="132">
                    <mxGeometry x="200" width="100" height="44" as="geometry">
                        <mxRectangle width="100" height="44" as="alternateBounds"/>
                    </mxGeometry>
                </mxCell>
                <mxCell id="135" value="" style="shape=tableRow;horizontal=0;startSize=0;swimlaneHead=0;swimlaneBody=0;top=0;left=0;bottom=0;right=0;collapsible=0;dropTarget=0;fillColor=none;points=[[0,0.5],[1,0.5]];portConstraint=eastwest;" vertex="1" parent="128">
                    <mxGeometry y="87" width="300" height="43" as="geometry"/>
                </mxCell>
                <mxCell id="136" value="Mighty ducks" style="shape=partialRectangle;html=1;whiteSpace=wrap;connectable=0;fillColor=#647687;top=0;left=0;bottom=0;right=0;overflow=hidden;strokeColor=#314354;fontColor=#ffffff;" vertex="1" parent="135">
                    <mxGeometry width="100" height="43" as="geometry">
                        <mxRectangle width="100" height="43" as="alternateBounds"/>
                    </mxGeometry>
                </mxCell>
                <mxCell id="137" value="1991" style="shape=partialRectangle;html=1;whiteSpace=wrap;connectable=0;fillColor=#647687;top=0;left=0;bottom=0;right=0;overflow=hidden;strokeColor=#314354;fontColor=#ffffff;" vertex="1" parent="135">
                    <mxGeometry x="100" width="100" height="43" as="geometry">
                        <mxRectangle width="100" height="43" as="alternateBounds"/>
                    </mxGeometry>
                </mxCell>
                <mxCell id="160" value="104" style="shape=partialRectangle;html=1;whiteSpace=wrap;connectable=0;fillColor=#647687;top=0;left=0;bottom=0;right=0;overflow=hidden;strokeColor=#314354;fontColor=#ffffff;" vertex="1" parent="135">
                    <mxGeometry x="200" width="100" height="43" as="geometry">
                        <mxRectangle width="100" height="43" as="alternateBounds"/>
                    </mxGeometry>
                </mxCell>
                <mxCell id="138" style="shape=tableRow;horizontal=0;startSize=0;swimlaneHead=0;swimlaneBody=0;top=0;left=0;bottom=0;right=0;collapsible=0;dropTarget=0;fillColor=none;points=[[0,0.5],[1,0.5]];portConstraint=eastwest;" vertex="1" parent="128">
                    <mxGeometry y="130" width="300" height="43" as="geometry"/>
                </mxCell>
                <mxCell id="139" value="Sea Hur" style="shape=partialRectangle;html=1;whiteSpace=wrap;connectable=0;fillColor=#647687;top=0;left=0;bottom=0;right=0;overflow=hidden;strokeColor=#314354;fontColor=#ffffff;" vertex="1" parent="138">
                    <mxGeometry width="100" height="43" as="geometry">
                        <mxRectangle width="100" height="43" as="alternateBounds"/>
                    </mxGeometry>
                </mxCell>
                <mxCell id="140" value="1959" style="shape=partialRectangle;html=1;whiteSpace=wrap;connectable=0;fillColor=#647687;top=0;left=0;bottom=0;right=0;overflow=hidden;strokeColor=#314354;fontColor=#ffffff;" vertex="1" parent="138">
                    <mxGeometry x="100" width="100" height="43" as="geometry">
                        <mxRectangle width="100" height="43" as="alternateBounds"/>
                    </mxGeometry>
                </mxCell>
                <mxCell id="161" value="212" style="shape=partialRectangle;html=1;whiteSpace=wrap;connectable=0;fillColor=#647687;top=0;left=0;bottom=0;right=0;overflow=hidden;strokeColor=#314354;fontColor=#ffffff;" vertex="1" parent="138">
                    <mxGeometry x="200" width="100" height="43" as="geometry">
                        <mxRectangle width="100" height="43" as="alternateBounds"/>
                    </mxGeometry>
                </mxCell>
                <mxCell id="155" style="shape=tableRow;horizontal=0;startSize=0;swimlaneHead=0;swimlaneBody=0;top=0;left=0;bottom=0;right=0;collapsible=0;dropTarget=0;fillColor=none;points=[[0,0.5],[1,0.5]];portConstraint=eastwest;" vertex="1" parent="128">
                    <mxGeometry y="173" width="300" height="43" as="geometry"/>
                </mxCell>
                <mxCell id="156" value="Ben Hur" style="shape=partialRectangle;html=1;whiteSpace=wrap;connectable=0;fillColor=#647687;top=0;left=0;bottom=0;right=0;overflow=hidden;strokeColor=#314354;fontColor=#ffffff;" vertex="1" parent="155">
                    <mxGeometry width="100" height="43" as="geometry">
                        <mxRectangle width="100" height="43" as="alternateBounds"/>
                    </mxGeometry>
                </mxCell>
                <mxCell id="157" value="1959" style="shape=partialRectangle;html=1;whiteSpace=wrap;connectable=0;fillColor=#647687;top=0;left=0;bottom=0;right=0;overflow=hidden;strokeColor=#314354;fontColor=#ffffff;" vertex="1" parent="155">
                    <mxGeometry x="100" width="100" height="43" as="geometry">
                        <mxRectangle width="100" height="43" as="alternateBounds"/>
                    </mxGeometry>
                </mxCell>
                <mxCell id="162" value="212" style="shape=partialRectangle;html=1;whiteSpace=wrap;connectable=0;fillColor=#647687;top=0;left=0;bottom=0;right=0;overflow=hidden;strokeColor=#314354;fontColor=#ffffff;" vertex="1" parent="155">
                    <mxGeometry x="200" width="100" height="43" as="geometry">
                        <mxRectangle width="100" height="43" as="alternateBounds"/>
                    </mxGeometry>
                </mxCell>
                <mxCell id="152" style="shape=tableRow;horizontal=0;startSize=0;swimlaneHead=0;swimlaneBody=0;top=0;left=0;bottom=0;right=0;collapsible=0;dropTarget=0;fillColor=none;points=[[0,0.5],[1,0.5]];portConstraint=eastwest;" vertex="1" parent="128">
                    <mxGeometry y="216" width="300" height="43" as="geometry"/>
                </mxCell>
                <mxCell id="153" value="El retorno de jedi" style="shape=partialRectangle;html=1;whiteSpace=wrap;connectable=0;fillColor=#647687;top=0;left=0;bottom=0;right=0;overflow=hidden;strokeColor=#314354;fontColor=#ffffff;" vertex="1" parent="152">
                    <mxGeometry width="100" height="43" as="geometry">
                        <mxRectangle width="100" height="43" as="alternateBounds"/>
                    </mxGeometry>
                </mxCell>
                <mxCell id="154" value="1983" style="shape=partialRectangle;html=1;whiteSpace=wrap;connectable=0;fillColor=#647687;top=0;left=0;bottom=0;right=0;overflow=hidden;strokeColor=#314354;fontColor=#ffffff;" vertex="1" parent="152">
                    <mxGeometry x="100" width="100" height="43" as="geometry">
                        <mxRectangle width="100" height="43" as="alternateBounds"/>
                    </mxGeometry>
                </mxCell>
                <mxCell id="163" value="124" style="shape=partialRectangle;html=1;whiteSpace=wrap;connectable=0;fillColor=#647687;top=0;left=0;bottom=0;right=0;overflow=hidden;strokeColor=#314354;fontColor=#ffffff;" vertex="1" parent="152">
                    <mxGeometry x="200" width="100" height="43" as="geometry">
                        <mxRectangle width="100" height="43" as="alternateBounds"/>
                    </mxGeometry>
                </mxCell>
                <mxCell id="141" value="Item" style="text;strokeColor=none;fillColor=none;spacingLeft=4;spacingRight=4;overflow=hidden;rotatable=0;points=[[0,0.5],[1,0.5]];portConstraint=eastwest;fontSize=12;strokeWidth=16;" vertex="1" parent="1">
                    <mxGeometry x="770" y="1430" width="40" height="30" as="geometry"/>
                </mxCell>
                <mxCell id="142" value="R1(estudio, dirección)" style="text;strokeColor=none;fillColor=none;spacingLeft=4;spacingRight=4;overflow=hidden;rotatable=0;points=[[0,0.5],[1,0.5]];portConstraint=eastwest;fontSize=12;strokeWidth=16;" vertex="1" parent="1">
                    <mxGeometry x="700" y="1370" width="140" height="30" as="geometry"/>
                </mxCell>
                <mxCell id="166" value="R3(" style="text;strokeColor=none;fillColor=none;spacingLeft=4;spacingRight=4;overflow=hidden;rotatable=0;points=[[0,0.5],[1,0.5]];portConstraint=eastwest;fontSize=12;strokeWidth=16;" vertex="1" parent="1">
                    <mxGeometry x="695" y="1620" width="30" height="30" as="geometry"/>
                </mxCell>
                <mxCell id="167" value="titulo, año" style="text;strokeColor=none;fillColor=none;spacingLeft=4;spacingRight=4;overflow=hidden;rotatable=0;points=[[0,0.5],[1,0.5]];portConstraint=eastwest;fontSize=12;strokeWidth=16;fontStyle=4" vertex="1" parent="1">
                    <mxGeometry x="720" y="1620" width="70" height="30" as="geometry"/>
                </mxCell>
                <mxCell id="168" value=",actor, duración)" style="text;strokeColor=none;fillColor=none;spacingLeft=4;spacingRight=4;overflow=hidden;rotatable=0;points=[[0,0.5],[1,0.5]];portConstraint=eastwest;fontSize=12;strokeWidth=16;" vertex="1" parent="1">
                    <mxGeometry x="780" y="1620" width="100" height="30" as="geometry"/>
                </mxCell>
                <mxCell id="169" value="" style="shape=table;html=1;whiteSpace=wrap;startSize=0;container=1;collapsible=0;childLayout=tableLayout;fillColor=default;" vertex="1" parent="1">
                    <mxGeometry x="1040" y="1650" width="400" height="259" as="geometry"/>
                </mxCell>
                <mxCell id="170" value="" style="shape=tableRow;horizontal=0;startSize=0;swimlaneHead=0;swimlaneBody=0;top=0;left=0;bottom=0;right=0;collapsible=0;dropTarget=0;fillColor=none;points=[[0,0.5],[1,0.5]];portConstraint=eastwest;" vertex="1" parent="169">
                    <mxGeometry width="400" height="43" as="geometry"/>
                </mxCell>
                <mxCell id="171" value="Título" style="shape=partialRectangle;html=1;whiteSpace=wrap;connectable=0;fillColor=#1ba1e2;top=0;left=0;bottom=0;right=0;overflow=hidden;fontColor=#ffffff;strokeColor=#006EAF;strokeWidth=16;" vertex="1" parent="170">
                    <mxGeometry width="100" height="43" as="geometry">
                        <mxRectangle width="100" height="43" as="alternateBounds"/>
                    </mxGeometry>
                </mxCell>
                <mxCell id="172" value="Año" style="shape=partialRectangle;html=1;whiteSpace=wrap;connectable=0;fillColor=#1ba1e2;top=0;left=0;bottom=0;right=0;overflow=hidden;fontColor=#ffffff;strokeColor=#006EAF;" vertex="1" parent="170">
                    <mxGeometry x="100" width="100" height="43" as="geometry">
                        <mxRectangle width="100" height="43" as="alternateBounds"/>
                    </mxGeometry>
                </mxCell>
                <mxCell id="173" value="Tipo" style="shape=partialRectangle;html=1;whiteSpace=wrap;connectable=0;fillColor=#1ba1e2;top=0;left=0;bottom=0;right=0;overflow=hidden;fontColor=#ffffff;strokeColor=#006EAF;" vertex="1" parent="170">
                    <mxGeometry x="200" width="100" height="43" as="geometry">
                        <mxRectangle width="100" height="43" as="alternateBounds"/>
                    </mxGeometry>
                </mxCell>
                <mxCell id="194" value="Estudio" style="shape=partialRectangle;html=1;whiteSpace=wrap;connectable=0;fillColor=#1ba1e2;top=0;left=0;bottom=0;right=0;overflow=hidden;fontColor=#ffffff;strokeColor=#006EAF;" vertex="1" parent="170">
                    <mxGeometry x="300" width="100" height="43" as="geometry">
                        <mxRectangle width="100" height="43" as="alternateBounds"/>
                    </mxGeometry>
                </mxCell>
                <mxCell id="174" value="" style="shape=tableRow;horizontal=0;startSize=0;swimlaneHead=0;swimlaneBody=0;top=0;left=0;bottom=0;right=0;collapsible=0;dropTarget=0;fillColor=none;points=[[0,0.5],[1,0.5]];portConstraint=eastwest;" vertex="1" parent="169">
                    <mxGeometry y="43" width="400" height="44" as="geometry"/>
                </mxCell>
                <mxCell id="175" value="Star wars" style="shape=partialRectangle;html=1;whiteSpace=wrap;connectable=0;fillColor=#647687;top=0;left=0;bottom=0;right=0;overflow=hidden;strokeColor=#314354;fontColor=#ffffff;" vertex="1" parent="174">
                    <mxGeometry width="100" height="44" as="geometry">
                        <mxRectangle width="100" height="44" as="alternateBounds"/>
                    </mxGeometry>
                </mxCell>
                <mxCell id="176" value="1977" style="shape=partialRectangle;html=1;whiteSpace=wrap;connectable=0;fillColor=#647687;top=0;left=0;bottom=0;right=0;overflow=hidden;strokeColor=#314354;fontColor=#ffffff;" vertex="1" parent="174">
                    <mxGeometry x="100" width="100" height="44" as="geometry">
                        <mxRectangle width="100" height="44" as="alternateBounds"/>
                    </mxGeometry>
                </mxCell>
                <mxCell id="177" value="color" style="shape=partialRectangle;html=1;whiteSpace=wrap;connectable=0;fillColor=#647687;top=0;left=0;bottom=0;right=0;overflow=hidden;strokeColor=#314354;fontColor=#ffffff;" vertex="1" parent="174">
                    <mxGeometry x="200" width="100" height="44" as="geometry">
                        <mxRectangle width="100" height="44" as="alternateBounds"/>
                    </mxGeometry>
                </mxCell>
                <mxCell id="195" value="Fox" style="shape=partialRectangle;html=1;whiteSpace=wrap;connectable=0;fillColor=#647687;top=0;left=0;bottom=0;right=0;overflow=hidden;strokeColor=#314354;fontColor=#ffffff;" vertex="1" parent="174">
                    <mxGeometry x="300" width="100" height="44" as="geometry">
                        <mxRectangle width="100" height="44" as="alternateBounds"/>
                    </mxGeometry>
                </mxCell>
                <mxCell id="178" value="" style="shape=tableRow;horizontal=0;startSize=0;swimlaneHead=0;swimlaneBody=0;top=0;left=0;bottom=0;right=0;collapsible=0;dropTarget=0;fillColor=none;points=[[0,0.5],[1,0.5]];portConstraint=eastwest;" vertex="1" parent="169">
                    <mxGeometry y="87" width="400" height="43" as="geometry"/>
                </mxCell>
                <mxCell id="179" value="Mighty ducks" style="shape=partialRectangle;html=1;whiteSpace=wrap;connectable=0;fillColor=#647687;top=0;left=0;bottom=0;right=0;overflow=hidden;strokeColor=#314354;fontColor=#ffffff;" vertex="1" parent="178">
                    <mxGeometry width="100" height="43" as="geometry">
                        <mxRectangle width="100" height="43" as="alternateBounds"/>
                    </mxGeometry>
                </mxCell>
                <mxCell id="180" value="1991" style="shape=partialRectangle;html=1;whiteSpace=wrap;connectable=0;fillColor=#647687;top=0;left=0;bottom=0;right=0;overflow=hidden;strokeColor=#314354;fontColor=#ffffff;" vertex="1" parent="178">
                    <mxGeometry x="100" width="100" height="43" as="geometry">
                        <mxRectangle width="100" height="43" as="alternateBounds"/>
                    </mxGeometry>
                </mxCell>
                <mxCell id="181" value="color" style="shape=partialRectangle;html=1;whiteSpace=wrap;connectable=0;fillColor=#647687;top=0;left=0;bottom=0;right=0;overflow=hidden;strokeColor=#314354;fontColor=#ffffff;" vertex="1" parent="178">
                    <mxGeometry x="200" width="100" height="43" as="geometry">
                        <mxRectangle width="100" height="43" as="alternateBounds"/>
                    </mxGeometry>
                </mxCell>
                <mxCell id="196" value="disney" style="shape=partialRectangle;html=1;whiteSpace=wrap;connectable=0;fillColor=#647687;top=0;left=0;bottom=0;right=0;overflow=hidden;strokeColor=#314354;fontColor=#ffffff;" vertex="1" parent="178">
                    <mxGeometry x="300" width="100" height="43" as="geometry">
                        <mxRectangle width="100" height="43" as="alternateBounds"/>
                    </mxGeometry>
                </mxCell>
                <mxCell id="182" style="shape=tableRow;horizontal=0;startSize=0;swimlaneHead=0;swimlaneBody=0;top=0;left=0;bottom=0;right=0;collapsible=0;dropTarget=0;fillColor=none;points=[[0,0.5],[1,0.5]];portConstraint=eastwest;" vertex="1" parent="169">
                    <mxGeometry y="130" width="400" height="43" as="geometry"/>
                </mxCell>
                <mxCell id="183" value="Sea Hur" style="shape=partialRectangle;html=1;whiteSpace=wrap;connectable=0;fillColor=#647687;top=0;left=0;bottom=0;right=0;overflow=hidden;strokeColor=#314354;fontColor=#ffffff;" vertex="1" parent="182">
                    <mxGeometry width="100" height="43" as="geometry">
                        <mxRectangle width="100" height="43" as="alternateBounds"/>
                    </mxGeometry>
                </mxCell>
                <mxCell id="184" value="1959" style="shape=partialRectangle;html=1;whiteSpace=wrap;connectable=0;fillColor=#647687;top=0;left=0;bottom=0;right=0;overflow=hidden;strokeColor=#314354;fontColor=#ffffff;" vertex="1" parent="182">
                    <mxGeometry x="100" width="100" height="43" as="geometry">
                        <mxRectangle width="100" height="43" as="alternateBounds"/>
                    </mxGeometry>
                </mxCell>
                <mxCell id="185" value="color" style="shape=partialRectangle;html=1;whiteSpace=wrap;connectable=0;fillColor=#647687;top=0;left=0;bottom=0;right=0;overflow=hidden;strokeColor=#314354;fontColor=#ffffff;" vertex="1" parent="182">
                    <mxGeometry x="200" width="100" height="43" as="geometry">
                        <mxRectangle width="100" height="43" as="alternateBounds"/>
                    </mxGeometry>
                </mxCell>
                <mxCell id="197" value="MGM" style="shape=partialRectangle;html=1;whiteSpace=wrap;connectable=0;fillColor=#647687;top=0;left=0;bottom=0;right=0;overflow=hidden;strokeColor=#314354;fontColor=#ffffff;" vertex="1" parent="182">
                    <mxGeometry x="300" width="100" height="43" as="geometry">
                        <mxRectangle width="100" height="43" as="alternateBounds"/>
                    </mxGeometry>
                </mxCell>
                <mxCell id="186" style="shape=tableRow;horizontal=0;startSize=0;swimlaneHead=0;swimlaneBody=0;top=0;left=0;bottom=0;right=0;collapsible=0;dropTarget=0;fillColor=none;points=[[0,0.5],[1,0.5]];portConstraint=eastwest;" vertex="1" parent="169">
                    <mxGeometry y="173" width="400" height="43" as="geometry"/>
                </mxCell>
                <mxCell id="187" value="Ben Hur" style="shape=partialRectangle;html=1;whiteSpace=wrap;connectable=0;fillColor=#647687;top=0;left=0;bottom=0;right=0;overflow=hidden;strokeColor=#314354;fontColor=#ffffff;" vertex="1" parent="186">
                    <mxGeometry width="100" height="43" as="geometry">
                        <mxRectangle width="100" height="43" as="alternateBounds"/>
                    </mxGeometry>
                </mxCell>
                <mxCell id="188" value="1959" style="shape=partialRectangle;html=1;whiteSpace=wrap;connectable=0;fillColor=#647687;top=0;left=0;bottom=0;right=0;overflow=hidden;strokeColor=#314354;fontColor=#ffffff;" vertex="1" parent="186">
                    <mxGeometry x="100" width="100" height="43" as="geometry">
                        <mxRectangle width="100" height="43" as="alternateBounds"/>
                    </mxGeometry>
                </mxCell>
                <mxCell id="189" value="color" style="shape=partialRectangle;html=1;whiteSpace=wrap;connectable=0;fillColor=#647687;top=0;left=0;bottom=0;right=0;overflow=hidden;strokeColor=#314354;fontColor=#ffffff;" vertex="1" parent="186">
                    <mxGeometry x="200" width="100" height="43" as="geometry">
                        <mxRectangle width="100" height="43" as="alternateBounds"/>
                    </mxGeometry>
                </mxCell>
                <mxCell id="198" value="MGM" style="shape=partialRectangle;html=1;whiteSpace=wrap;connectable=0;fillColor=#647687;top=0;left=0;bottom=0;right=0;overflow=hidden;strokeColor=#314354;fontColor=#ffffff;" vertex="1" parent="186">
                    <mxGeometry x="300" width="100" height="43" as="geometry">
                        <mxRectangle width="100" height="43" as="alternateBounds"/>
                    </mxGeometry>
                </mxCell>
                <mxCell id="190" style="shape=tableRow;horizontal=0;startSize=0;swimlaneHead=0;swimlaneBody=0;top=0;left=0;bottom=0;right=0;collapsible=0;dropTarget=0;fillColor=none;points=[[0,0.5],[1,0.5]];portConstraint=eastwest;" vertex="1" parent="169">
                    <mxGeometry y="216" width="400" height="43" as="geometry"/>
                </mxCell>
                <mxCell id="191" value="El retorno de jedi" style="shape=partialRectangle;html=1;whiteSpace=wrap;connectable=0;fillColor=#647687;top=0;left=0;bottom=0;right=0;overflow=hidden;strokeColor=#314354;fontColor=#ffffff;" vertex="1" parent="190">
                    <mxGeometry width="100" height="43" as="geometry">
                        <mxRectangle width="100" height="43" as="alternateBounds"/>
                    </mxGeometry>
                </mxCell>
                <mxCell id="192" value="1983" style="shape=partialRectangle;html=1;whiteSpace=wrap;connectable=0;fillColor=#647687;top=0;left=0;bottom=0;right=0;overflow=hidden;strokeColor=#314354;fontColor=#ffffff;" vertex="1" parent="190">
                    <mxGeometry x="100" width="100" height="43" as="geometry">
                        <mxRectangle width="100" height="43" as="alternateBounds"/>
                    </mxGeometry>
                </mxCell>
                <mxCell id="193" value="color" style="shape=partialRectangle;html=1;whiteSpace=wrap;connectable=0;fillColor=#647687;top=0;left=0;bottom=0;right=0;overflow=hidden;strokeColor=#314354;fontColor=#ffffff;" vertex="1" parent="190">
                    <mxGeometry x="200" width="100" height="43" as="geometry">
                        <mxRectangle width="100" height="43" as="alternateBounds"/>
                    </mxGeometry>
                </mxCell>
                <mxCell id="199" value="Fox" style="shape=partialRectangle;html=1;whiteSpace=wrap;connectable=0;fillColor=#647687;top=0;left=0;bottom=0;right=0;overflow=hidden;strokeColor=#314354;fontColor=#ffffff;" vertex="1" parent="190">
                    <mxGeometry x="300" width="100" height="43" as="geometry">
                        <mxRectangle width="100" height="43" as="alternateBounds"/>
                    </mxGeometry>
                </mxCell>
                <mxCell id="205" value="titulo, año" style="text;strokeColor=none;fillColor=none;spacingLeft=4;spacingRight=4;overflow=hidden;rotatable=0;points=[[0,0.5],[1,0.5]];portConstraint=eastwest;fontSize=12;strokeWidth=16;fontStyle=4" vertex="1" parent="1">
                    <mxGeometry x="1160" y="1620" width="70" height="30" as="geometry"/>
                </mxCell>
                <mxCell id="207" value="R4(" style="text;strokeColor=none;fillColor=none;spacingLeft=4;spacingRight=4;overflow=hidden;rotatable=0;points=[[0,0.5],[1,0.5]];portConstraint=eastwest;fontSize=12;strokeWidth=16;" vertex="1" parent="1">
                    <mxGeometry x="1140" y="1620" width="40" height="30" as="geometry"/>
                </mxCell>
                <mxCell id="208" value=",estudio,tipo)" style="text;strokeColor=none;fillColor=none;spacingLeft=4;spacingRight=4;overflow=hidden;rotatable=0;points=[[0,0.5],[1,0.5]];portConstraint=eastwest;fontSize=12;strokeWidth=16;" vertex="1" parent="1">
                    <mxGeometry x="1220" y="1620" width="80" height="30" as="geometry"/>
                </mxCell>
                <mxCell id="209" value="" style="shape=image;verticalLabelPosition=bottom;labelBackgroundColor=default;verticalAlign=top;aspect=fixed;imageAspect=0;image=data:image/png,iVBORw0KGgoAAAANSUhEUgAAAx4AAAEUCAYAAAClPuBxAAAAAXNSR0IArs4c6QAAAARnQU1BAACxjwv8YQUAAAAJcEhZcwAAFiUAABYlAUlSJPAAAP+lSURBVHhe7J0HfE3JF8d/ryURqSK66L1vEARBguiit7WIzlrd3+rWrt6XqIslrBYlhGX1ktVWj5YgiBIkSiLtvXf+c0uqVBISme/nc3m5M/feuTNnzpwz7SqIAQ6Hw+FwOBwOh8PJQJTy/xwOh8PhcDgcDoeTYXDHg8PhcDgcDofD4WQ43PHgcDgcDofD4XA4GQ53PDgcDofD4XA4HE6Gwx0PDofD4XA4HA6Hk+Fwx4PD4XA4HA6Hw+FkONzx4HA4HA6Hw+FwOBkOdzw4HA6Hw+FwOBxOhsMdDw6Hw+FwOBwOh5PhcMeDw+FwOBwOh8PhZDjc8eBwOBwOh8PhcDgZDnc8OBwOh8PhcDgcTobDHQ8Oh8PhcDgcDoeT4XDHg8PhcDgcDofD4WQ43PHgcDgcDofD4XA4GQ53PDgcDofD4XA4HE6Gwx0PDofD4XA4HA6Hk+Fwx4PD4XA4HA6Hw+FkONzx4HA4HA6Hw+FwOBkOdzw4HA6Hw+FwOBxOhsMdDw6Hw+FwOBwOh5PhcMeDw+FwOBwOh8PhZDjc8eBwOBwOh8PhcDgZjoIY8m8OJ1OjUCjkX8C3LLbZ5T0zIzzv0xeen98evEyzDrysOJkRPuLB4XA4HA6Hw+FwMhzueHA4HA6Hw+FwOJwMhzseHA6Hw+FwOBwOJ8PhjkeGo5f/52Q+9NDz4vk68HxPBJ4pHAEuBxxOusIael6rMg98cXlqiTiKKW2m43i4AkaW+ZDPXIE3T57iTRTLPoUhrAoVhBne4sXTIHzQm8Bp+jZ0vvcDmg3zRGiNifDYPxF1csr3ShM6PD6+FL/N3wOfd6zqaOwwetcctDKVg7MR6b1QTue7GK5u5bFsfmMkWzQRr/HoBZDXxgqG7E/9mxd4ZZAXeYyl4PQm5fcMxd2ju3Fw/x7sufQCWiGKwhi5C1lCGRICnXE+lKxSF807tkOD4ibSJZkF3V2s7dIMwzxDUWOiB/ZPrBMn74PgObYr5p+LgGGpbpi3pD8qZVAeJ0W6yNhX0xWZj6+9uFUX8C92ef0Nr13H4BcqVhQYWBZEIUsD6KM+4O3Ll3gTrgMp86LtvM0YYauWLsxo3t/CgT9XY83O//BKR9BUH4Ht81vh5doumV4O+ILlrAMvKwEdfBe7wq38Msxv/I0o1qwOE0ZOagjdTO0tbKjd8ssUrGN/R5ygYSXUQk1mrUYVmnQ5ip3U0etzC6hlwdzUbUcgubczJVbtSaGpRTNva8XbCERcXULTNwWw2KkllDx6WJFSeJahM616JZ/OZoh5LR+fTxidGlGaNJZtad2zpEsi+PhkqmutJoVCTaY2Nah5917UonJdmiyWd8aQ2vfUPV9OjQ3kuNFyEfWKLq51parmSlIYFSLH8Z7kn3FJTTvv3KmdqYKlWUGaWjMpTrUg3bO11IqlO0eZXrTF7+skOrV5nyzpqCuyOumSn59NGB3oV5BUYjrUVG7svxQhh1DYIzq+qBOVMi5Cg/4Jl0+mQMRVWjJ9EwWkXoEnTvhhGmijEvPGwGk5Pde9yxJykDnKlJMaeFkxwk7RiNIasmy7jpJp6lMk7XYbJyn4VKtUo0SuFtOxbEBVWCSZayxOzZ+wdHwD5FSYot2MNZjUzxUjly3GgFKs2RMIv4z5Q3/BkcBI6e9UoYKpiTFi+y44n4v+5S4s2eSLqDcHseKP29DJ5+PzGh6L/0KEbQN8VzgHwh5fgNdmd1wu1BWdK36hntFkUJqaw1SdQCrUVrDtsxLbf20My8gnODKrE1qM+QfBcvBXx7QdZqyZhH6uI7Fs8QBEVwthekmAx1acs+mLTYfWoEvxr5+/n0466QpOOqGEiUnOxPWnUWE4/LQGy3oXZ1o2NYTj8vyh+OVIINKiwRNFYQgjg7ip4nLA4aQverzctQSbfKPw5uAK/HE78ZY+RT7JbuMkieyAcFIi6iqdPPM61ttNtBdTQvf8NJ24kUiPbdQD2tqrNBkqDKj+ggdp8JzD6fDAwlKPHR/xSIfeGy3dmlOXciike6lLDKWjoXJQPMLI/9Z9ei/+DqcXt87RmQv3KTiDOyJT/Z6h7tQupzB6wOImlItQL+pXSOpNVWgq0v/+TWVv7ldDR4E3velm4NftT0p13idHeuiKb4R0yc/PJkIc3WSuLEtHnBGPiIu0ddt1EnI//LQbrfg3ZhwkCaLowdZeVNpQQQb1F9CDzxXViJM0vKQkF9KIh3w+k5MpyjQz5lUmTFOmKKuvifYWzambQxxFFOp+iaFHKdGmPjk+2W7jJAVf4/GpRJ7ET+UdscRPC2ZMYNL5i5heNbqXVo+np1Zi2Zb/8CKSZS8L/2GyHS4P7Yqxu+4jgrkQBe07w7msIYytc0PxKgjC9GN18XaYOq4G/DcswQbvZxAvreaKxUO+w8lBpeC84jF0hs5YFXAA/azYUwLPYuWMOdhx1wCFzMLw1rI++o/9Ec1LGMnp+LZIt/mqH45jZKtfcS3gBI7eiQIprdD+Tx9s654H0R3UkX77sXDZHvi+04NUBeH8UyfoN07Cgj0+CC/ggB/nL4BrFXm+qD4QZ1fOwJwdd2FQyAxhby1Rv/9Y/Ni8BD6lJFL9nh82o32eHvAQhCeOXEi8hXt7G3zv8Y5pXBVsBu7CbserWP/3w+RlbWABnFqyDNt8gqAjJXI5DMeMJi+wcMREbLxljT5rtmJkaV94LN+AUy9CEHD+JG5E2KBBn8mYMaAWckVn4NtrcJ89Czt9I/Hmnh+oXBuMmN4LlodXY8t/L6TnVemNhT/awyi5/Iv0w/6Fy7DH9x30Qr1x/gmd9BsxacEe+IQXgMOP87HAtUrya3TSQIbMiU6jrug5oiKurtuGay+ZbCoM8V2PAci1fwoW7r+NqPx10H3CDAxvmF/uodcj8OxKzJizA3cNCsEs7C0s6/fH2B+bIzOogcwxxzwSp0dWQsOFd6GFGuXGnsaV2XZQ+S5A/z/s4PabPQzkmCJvL2Ll2EnY9swaxfJYoVh5NYIMO6KDbjZ6jN2F+xGsRhW0R2fnsjA0tkZxxSs8lCoV2k0dhxr+G7BkgzeeSZUKrouHoLbwgIj72DdvGhbu9YelbXV8V68inkzuBzdfLQycfsf5iUps2xorB70X/gh7VoaZTc+nR5mG3j2K3Qf3Y8+eS3ghLVKDce5CsFSGIERnjHwlq6Bu845o16A44q1SS3aN2FcipTQFeWJs1/k4F2GIUt3mYUn/SvhSS9cyR/37enw4PhKtfr2GgBNHcSeKoLRqjz99tqF7no+Hot9ec8fsWTvhG/kG9/wI5dqMwPRB+eA1OKHdZoKibadgYnN10u2Wzh9HUmpHbYUVo9kUJoycTyGZXkyJYNrkYiZ52oYtac0Nb9oxy4UKqgTPW0MVXFfQ1m076J8r+2hIUalnWmP3G90SetPfbCQXcR48yLDNn8xDT2TEI/gIja5qQkqjejTvHrvo3UEaWExNqjxNaPH1lHrusiZiXsvHp6Oj5xu7kvMvV+jO4oaUUxz1UFAO+9lS3scQRRcnVCaN8DxlbipbvyONWTSTOpXWsDJVkGH16XRNLPJgOjK6KpkojajevHukpXd0cGAxUqvyUJPF12PnkqeBVL9nciMe7MlnRpeRe3mZbLH03gg9mgpZYznkv5AcxLUjKirUaw5NqpebDFVCHA3Z/7qdJtc0J4MaM8iHXa97spwaG7MwpRW1WPWAvT8j9Dz9Ws+CNEX7kdebCLrwc0WWjwoyqDCOzjzfRC5m8vNa/kFvUpF/URcnUGWNkB4l5S5bnzqOWUQzO5UmDSs7hWF1mi4VRLog5qV8pBtp1BV/vCF6taYFGQuyqdBQwfLNyHXOCprVvYJ4TpHzO5pwRuq3Cz4ymqqaKMmo3jyS1MBAKqZWUZ4miykzqIEMyc80k8iIR8R92tKjFJUfdTpBHX1HXv2LktrQiZYJE8LDb9Pa9kWp0ug9dHLHLHIpKNefCq60Yus22vHPFTo6pKikmzV29JtUqWiji7RWA4Zt6E+xUj2l7T2LMpllz2fPDGVPvfV7aypoJNUFacTjYznIjHo+3cpU95yWNzaQ72VIzqICi6JXF9eSa1VzUiqMqJDjePKMu0gtmTViX41k06SjZ2tbkbkyB5XptYW+9NK1dCurrAiTr41dnemXK3doccOcUr1S5CD72bekdioOoed/pXoWGiraz4veRFygnytqWFwDKj9oJW1JzG7zeZRiu5VsOzrXT3pwNiXJGciczyUHcuUyielBVxaqhVb1SsCESb/Qu2NVoSk6dGwPxwoFYGmWoBgMzWHBLIykicTF+SOx5GoIlEXsUMeGNXumdWBf1RD6wH8wZYI7nvG94xJHdxvr3KPQoU8llO4+AC1zC3lPCDu3FivPhktxRBSwtDCTf+tRtvcizPppBPo55mdlSoj0uYyrLHrkxfkYueQqQpRFYFfHRliNgzr2VWGoD8Q/UybA/asVhBKmJiYx89r1QS/xkixSJWtKSwuYiaf0eOX1N3IsvItrm4ahReOe+D7Xfqy6+BaRl9dj5ZlI5m/YwMacRdYH4cyRC4iADreXj8Jvp9/BpHYTOJgboHzd2sjL7LWox3fhR7mQyyQ2DanJP4WQHjm+vmxvLJr1E0b0c0R+dhuK9MFloSCyNPF1hUDOXJbIIRdLga5zsWLMAIxbNhVtmbxS6BUsm7MNL8IvYv7IJbgaokQRuzqQ1IA9qhrqEfjPFExwf8ZKkBMfPZ4dmIgWVW3Rw/2BtCNcXCIuwuvwY2gjT2PxqHW4HlUGvRZPgYORKWq2qocSkgKHwqoCmnboiPaOFWBhaRav7FilgrlF/DV5kReXYOoWf0QpC8DBuTqMYcB0Sn84W8W9MqEcfON6XmkKc1N1vHxijiGsbPtg5fZf0dgyEk+OzEKnFmPwT/QitSTXiH1FkkuTPgAeW8/Bpu8mHFrTBVl66VoWQ3d7HdyjOqBPpdLoPqAlpKY+DOfWrkS8pp7ZBMtH/YbT70xQu4kDzA3Ko27tvMxdiMKT5znQMBG7rV7oqhTbreTa0T4tbYSAbEt8fclJX+IMc6Yr2mvYtdtHnK6isLSClajoNDA1FRo7Pd4e98SRd2JMTgJCj6/A30V6o3MBJvpWbTCwS3HW1DG0vti8bA9ei7ESoMyL0uVys8qigKGhgdhQku4DQsO0uLZrN3ykgoCVVBDQmJpCsOX1b4/D8ysWRERk7EI4hZFxjCGbFqhCG/SoZonSXRZh36E16NvcGS0q5UXuEnawZYZQZOALvJYfEx7BtLnuHjx2/ItQUsDU3EKcDmTcbC4Oem7C1gNL0dUybrXQ4Waa8k+JvKXLiQ2IwtAQ4rpc0uFDaJgUnJVJqCti/jZA4eLFJBk1+Q7Vygh5pMe7M8dw5tIu7PaJFLrxYGllJU290pjCVMo8HPc8Aq4GEqJE/mYzsP/KBfzRoZCUZ3FRWSNPLlbTKRx3N/dnBkhPrHrWGnMn2otbaX8aWtw9eBh3he2UlbmRL6/8VLUZTBNWyrhykC30fIL3l1GV7I2f2hdg5UMIu7kMI+acQ4QYYoRynaZh1Zp56FfTMpMYMMmlyQgNph3DEbd2YscA50sRiuMr/kaR3p0hNfUDYzYs0fpuxrI9sS297p4HdvwbClIwR9hCKCRjNJt7EJ6btuLA0q5gTVYC0t7uJ2xH+5TN3h5o5qi3nLSh9ceDJ9LuDAojIxjJulupkoqTwgLw6Nkn7t7wLaN/ju3L9iFS9x+WzpyJmTMX4kxUfpiL2abHy31u+NM3lfnGDF69PhL+D55IO2IpWDnEFoRUsSgMAY+eiae+PDq8DAxibyWgQM4yFVE63kT21KCARdFisI6jJVQ2nbHmynM8PzEE4Qtbom7PjXigFUII4sB+lB/8/IUcIbx/91beLcwcFZp1R8c6BSUDOgY9Hn12/hF02eXjUKpcyCUJK/Tvn+PpnQeQ1ICC5Z2RbMIpIakBZrAFPAJXA0lgUALdpw1E9YR1Ql0e/Sb+gFKiLDIH78ZGDHF0ws9H33yGjOnwiMmxdL0K6oQ70SVFttbzxqjjUBM5hXemKNzavB6nPjzFKbcJGNyvL/r27YtBS88gXJhLv3AsBojn+mPsRuaovTiG2d3sUbFaWyy4JLkr0L/BlT/HolPr9uju4oSmfebhWNzhImFN2s/d0K5TBzSqVg0Nu03F3vtxdzB6i2vuP6Nbu07o0KgaqjXshql77yNSn0ia5CuEtTluw/vhx6lTMbpLK7QdMBdefnKosHZt9kj0F68bgCk7fHBz23i0q1UeZas6YcDaq8x05nwq+ufbsWxfJHT/LWXtPGvrF55BVH5zqV3Rv8Q+tz8R3dRH+flBarLe491b+aR5BTTr3hF1CibmIGjT2O5/3I5md3hWZALSPDCiMEZOUSMLv1UxvXbaKNECZOdywkSeEsCJRXtzLbZpRmDe0FZo3ry5eLQcOAdTWlqJFYE+nMXqVeflnrXUoIBxzuhtOhVQxRYEU00CzOA3+Uof8GMN8rWbgZJyVFrDuVNTZv6zFKVJLBTQaDTy+0UTCd+tQ2FfyQHjrzeEm8cY1IgrawpDGIhDEXqE3LyCO7JIJkWmzb9MiSqm/BQqYxib55QMM/HvmMxDrBowkacIcBJDVcIRLapZyI0gc4LXzMH6p0C+titwdNdENCooyb7+3WUsHT4b3kntpJmKSmVooJF/heGD+CHDVJDN9XyOYsWRX35p3bOL8H6QF/W6lsfzbX9g7dq1WHfoLiJURdCwfQHc+XMtO/cHthzdjxkdO2HKNm/cvOIFj2MB7OoQnJ3eHA37eiD3j+ux8c9RKHJ0PFq1moyzgnX/4QJ+a+WA3ltM0G/1ZsxprsWZLdPRsTULFxuDD7jwWys49N4Ck36rsXlOc2jPbMH0jq0x+V+rj9MkXPLmKMY1bYqhq4PQ/Pct2LB2KPIf/hmt67TBkhtMkJjj29TJGOc2COleg+WTBmHaxXyoWUSH+9eOYPWQvlhwPQXlyUkCLW6u3QbNiHkY2kpq55s3b4mBc6agpTi1kfDh7GqsOi+19ApDA2n0XB/CZOaO3PYkR1rb/cTa0ewNdzy+JEpFrPBFtz2CoRbdJpE+5nSyTZPmO9jbmor3orAQhIiRhSkn4eJ16uK2qJGXF218QnFi1WEU7e2K2lWqoErMUQu9B7RFAUF5UBTubFyO/W+kK1JGg+/sbWEqFQRCpIKA7kMowqWCgG2NvOK5L4321jbs/E9Qg0pYOIzDxA7WTPw+QdYSEHluOjr0Wo5zb8qg/+yRsI02jKLRVEL1ytL8du3N7XA/l5wbp0KVTJp/mRJ9MN7KeaQuUxnVatnDVso8hIWESOUoTAGUMg/FbWuAq4FkMKiOzp0qSKNw709i0eb7sLZ4Dq8dp2HiPB2HLnhhsmN+CAMUOv87uPNBGcfHkMpBMCpinQqCPvp09P8iGpSrVBqGYqV4gnu+0VMD48RPjGyu55WmcRxnfRBevmT6LEf8NWICKc2l115fhOGz/sV76wZoWd+U3dcONcqpEHp5GebvCkx+TdoHluO3l2PUb6fxzqQ2mjiYw6B8XdTOq2LNxWPcFSJ8lKbUrc359teufSVCT2DV4aLo7Vo7TjvPjlq9MaCtMH2P5W/UHWxcvh9CU6+pVB2VxXWOzGHZ7o6PmqyP7LbM2+5nFXiz9KlQJCKFObvy74iIhAPxBC3zgKUYUYiKZGaWmZkkrOxs0KuXeHfDHRvPmMKmoKEo2PqXT/CENTDXVq/Eodfyvdk9hI62yCh5CJAZx1E6a3QY0QtlmZuuf+yH+1HsvO4RHgZEgpSWaDR0AGqmeVrNt43uwZ+Yuz0Hqtp+vJGhSaOuaFVY6rbQv9iNpet9xZECrTa670PHfgv/szJl5SCrGVamSuTtMAK9yhpAoX8MP6kg8OhhACJJCctGQzEgIwtCHwWtLBaCXERGyjL49jzmDluES5Fq5HMYj22bh0P83qEqf6pkDVHRPTcsni6uXOvgd+QwfATtymQ+NDQMr8+dxrV3cpyIcIQr86L9kO4oIWw5pb2LlcP+h/1MLhHxFEcXTIe7bwR7jPw8lpcWqck/lvkxJSGXCbG06uTb6ITKlZn5BF0RixZBgS+laTrhN3DjHitwhQlqde2CygU7YESvsjBQ6PHY7z67kuXFo4cIiCRmjDXC0AE1428Tm20hVjeEtTDS77CQUPm3hC7wLOZ1+x4rPtgwudXi3roJmOf9nlUXJ0zdMh1NciigLmeLauZmMJMUOCjoFV6+uwH3jWeQ36ag5FToX+LJE2aIXFuNlYdey8/Qinoin0svtBC28KR3OLJhE/y0ofBZvwge4hwPRlQEItgV8eRAmzd76/kIVm/kn8KUFmN5PUxyA0wfz6VXwNfTE1ciWK4qXuLSXxuxceNuXAsipnPe478zXimsSdPhnscO/BvK4puaQ1oC0AxzD3pi09YDWCosWmPES1Oa1+Z8w2vXvjg6PPhzLrbnqIqPm3oTNOraClJTr8eL3Uux3lcHZd72GNK9BDQKVv/ursSw/+1nOlRoso5iwXR3PMiZ0G7bgkP5BqbcbiXZjnKy4R5rn4uWnnhvp9WTW5CNWtoKUdh2raTLdFrrcZ6eil+X0dKjo7OpbVG1tIWbMg85TthLt0N8aV3HIsQaKVKojamQ02/073uioCPjyNZcSQqFggwsy5LLrBnUKY9SvLeqQFMaNW8CuRSLvpc1NfzfbroVGkbX13xPFS1yUc1BS2jVtDZUzKQwOU0+lGU+RJVWxLyWj9SjoxenllBPYXtGpQXZ9plFfxyTt30VQp+eJ49Vo6lBbim/hUOZqxb1nzmXBtSyELZ9Y+VrRJVdt9HVyxuom7idrlAOuanB/7zoAbtR2PU19H1FC8pVcxAtWTWN2hQzocJOk+nQJxZEyu8ZQneObqalQ+uQlbDFlpjGHFTMoSN179KaHKpWIrsWrjR14zl6kWDfwORlzZmmHzpLh6c0pfzi9oEKUtu0oun771H05wdDj4+mijmkrSMNbJxo3LaTtMolt5hPCo0NtVl2lcV6R+cXuVBJYZtdFk+hMaE8pRvTuN3edHh2Wyoq1xtlHkeasPd28vkXcYd2/VSbLMT3VJBRZVfadvUybegmbafLGm3K3eB/5CUURDoQne/C8fl8uq64uvV7qWyZ7NX8YRpNX7iKlgyqSRYqUyrbfQ3djC6QsOu05vuKZJGrJg1asoqmtSlGJoWdaPKh55niQ1fpm59pR/vkX9qxZgq1KirXW3YozctSk64/UK+e3ah90xpUxFTFwhRk3ukvVrOCaK1LMapg34z6z1hJKyc1I5u89jT5WJBwN/Jd15GKGLKyVKjJuJAT/SYpcBpnK2z/ymTdwJLKusyiGZ3ySLpDVYCcpx+hR1odPfUcTtUt2bMUKjK2KEDV+42nrsXV7F7s74L16PuxP37cZoRlPj2ffmUaSu7t5G1OY7bTjSXcq6+8jSnTLeYutFEognAv6itvaSxtx814t45aGQrxlJS3tyeFCediCKcD/QqK2x0rLZvSNI+9tHdv9OFJB703Up98gv5TkmW3HYl8XC6M9vXJJ5al0rIb7Ujs63MJ0xS2g7paSDrVoMFC8hfLKYz29s4ryYSmJv3qoyWt31yqK24THvtRy4iTw6mkWjhnQE7LP78OC2mIPr55dC/o1JKeVJW1b0oLW+oz6w86FtMusPp33oNWjW5AwsaAUp4oKVetQbTuQhDp3p2nRS4l5S3MFaQxyUOlG48jT392vTZxuy3Zdkv7MNl2NLuTDaQxs/GGfM8cIK/jPvQqjq0U/vQyHd53iC48SkyzJY3u3X06d2gv7fE6STdfZIKN+zOQTK1Ede/o/rlDtHePF528+SLBtwHSRka/56fKmoSO3tw7RQcO/ksPQuRTYf50/oAnHbkW/70jAm/SiX17yevkDXqeUoakY/59Dhmd96klbFe045GT2rmHsDK7Qkf2edGJm4Hil7bjo6N398/Rob17WF7fpMykBjJLfqYe5iz63qdQXSg9uXiYPL3O0L3g+ObfG98zdMDrOPnEV+B0+fA+OnThUSLGayzaoNt0ar8nHf4vgMJ0r+mW9zm69SyEPTV5MpOeT78yTc7x0NKdWbWl7ygxAzFP5y0UKBRDso6Higr1P5jAuAunfwYXER0PhWEjWvokgSkffpgG2kj301SZSP99VLmEb2jZyN9pqUITP47wcZri/G3QcAlJjwwjjx5WkuNh0JAWP9JxxyPTEUGBN0/Qvr2sDbrxPEEblLjdllnarawGl0ZOliG7KNHs8p6ZkcyS9/Edj09xEDMHmSU/OelH+pVpMo5H1HX6pYahGKa0aEjzr8sGf5odDx0FuDWRe7JNyGlp7Gg36YLI754PrWkpfexRoS5Do04n7JPW0fM1LclUvF5NZUad/rjXOmGadM9pXWsL8Z6aWr/JHxQMoU0u0ruqy46ms8xC5Y4HJ7vCHHAOh8PhZCp0OmldB/uXkl2BzOFkVfSIil2khqjISFnm3+L83GFYdCkS6nwOGL9tM4aLi9QYpI2zRiylNWkCwvqaPmidTxizCMGxXwdg/tnX0Onf4srqGdh0L08Ka9IIedsPQfcSGijYs++uHIb/7Q9gz43A06MLMN3d9+M0KVO5Nierr13jcD4V2QHhcDI9grhGH98y2eU9MyOZIe91r6/T5r7l5DUsair5wzryvv/ms3s/vwaZIT856Ut6lGnInaO0eelQqmMVvbZOQTmKOVDH7l2otUNVqmTXglynbqRzcRepaR/R0YRrxHYdScVceh29ODyRHPLL63wUGjItUIW6LP2P3onhSaxJ8/SPGR15d34RuZQ0lkZG2PUmeUpT43Ge5B+RSJr23mZXpLA25wutXYsuJ+HgcDILCuEfJpQcTqZHEWfrkG9ZbLPLe2ZGMkPe698+xt2AdzE9nyxVUFkURumCplluG0Iuy98eWbZMPwTg8r9XEBBliVLVa6KMVfyPw0W+9MG/5/0QalYc39lVQN6EO4ZFvoTPv+fhF2qG4t/ZocJHET5G//4BLv57A8+1Fihpa4fyeb7sNmS8/nEyI9zx4GQZsosS5Y3F14PnffrC8/Pbg5dp1oGXFSczwtd4cDgcDofD4XA4nAyHOx4cDofD4XA4HA4nw+GOB4fD4XA4HA6Hw8lwuOPB4XA4HA6Hw+FwMhzueHA4HA6Hw+FwOJwMhzseHA6Hw+FwOBwOJ8PhjgeHw+FwOBxOOpDw2+kcDic+/DsenCxDdtmTnO+9/vXgeZ++8Pz89vhiZaoLwL+7vPC31y4c8wsVP7+tMLBEwUKWMNBH4cPbl3j5Jhw6UiJv23nYPMIW8T8JmFG8x60Df2L1mp3475UOpKmOEdvno9XLtejSbBg8Q2tgosd+TKyTU47/9eD1j5MZ4SMeHA6Hw+FwMheqgqjVoR/GdSoE3zMncfLkSZwJKINhK9dh3YZN2Lp7DzZMa4d8z87j/L030MmXJU8kri39Be5PP2dcwhTlmvVF8zx+OM3SdPLUNTyL1OPDReYkPfiAiMCz2H/ySSrTw+FkP7jjweFwOBwOJ1OiNDFBztiO+zgYobDDT1izrDeKq+RTKRB+eT6G/nIEgZHyiU9GAUMjA/ZvLKbtZmDNpH5wHbkMiweUQiqTxOFkO7jjweFwOBwOJwsRiUvbtuOGlhn89buiU0WTeE5AYmgfbsOgLtNw+m0GTTkyKodO01Zhzbx+qGnJTSsOJyn4Gg9OliG7zFfl83K/Hjzv0xeen98eX7pMI0+PRKWGC3GXORnqcmNx+sps2Kl8saD/H7Bz+w32BnJEkbe4uHIsJm17ButieWBVrDzUQYbo2EGH2T3GYtf9CJCqIOw7O6OsoTGscwOvgj6AoEbxdlMxroY/NizZAO9nkeycBtVcF2NIbeEBEbi/bx6mLdwLf0tbVP+uHio+mYx+br7QGjjh9/MTody2Ff+9kK6r0nshfrQ3AvSBOLtyBubsuAuDQmYIe2uJ+v3H4sfmJcBCMxxe/ziZEe6WczgcDofDySJE4sH2aVjx78fzpd4fGIuOQzdA234V1q9ZhoH5z2LH4Yd4ri2ImlVySwaP0gJl6zdB0xZt0MVBj3/Wr8XatX9g79U3gLUd2pd5jq1/COfW4bAv83agx7Md/eHYbhI2P6uHX/9cjt/aBWHX3th1HMp89dC1/HNsk687dDeCnX2Do+OaounQ1Qhq/ju2bFiLofkP4+fWddBmyQ32FhxO9oQ7HhwOh8PhcDI9+mcHMLFFVdj2cMcDbcIe/Ahc9DqMx9pInF48CuuuR6FMr8WY4mAE05qtUK+EPB1LYYUKTTugY3tHVChgCbMEVpChuQWMYwcKmJ9zEUumboF/lBIFHJxR3RgwKNsb/Z2t4hlQOXLlgkmcE5EX52PkkqsIURaBXR0bqGCKOvZVYagPxD9TJsD9Gd94l5M94Y4Hh8PhcDicTI8yfzPM2H8FF/7ogEIfrd5WwTpPLigVhPC7m9G/bm30XPUMredOhL2hHOUT0N49iMN3o0DMXMqdL6+8aFwNM9McCdaVKOL8rcW1XbvhE8mcI4UlrKykqzSmpqJTo397HJ5H3onnOJzsBnc8OBwOh8PhZBEMUKL7NAysHm9xB0ON8v0m4odSRqIDoH93AxuHOMLp56N48xmDC7pHjxA9OKFSqxM4G0mhhf8DeSqWwghGRvJVSpVkdFEYAh49E09xONkN7nhwOBwOh8PJOqhKwLFFNVjIFoz+0RrMWf8UynxtseLoLkxsVBAayfvA5aXDMds7qRUVcUcpksDQABr5Z9gH6UOGKaOAcc6c8r0VUEWPzmijmEsioEBOExPxF4eT3eCOB4fD4XA4nCyEAap37oQK4qfK3+Pkos24b22Bp147cNrEGdMPXYDXZEfkVzPTX+ePO3c+QBl3hyf5f0Ucp4L00WfjuxaacpVQ2lC4Vosn93wRJp2OEz8xNPjO3hamwmUUhpAQKa6OOS7hwk91cdjWyCue43CyG9zx4HA4HA6HkymhyEgISyXE32EhCI1r7+sCcXZeN3y/4gNsSmigvbcOE+Z5470qP5ymbsH0JjmgUJeDbTVzmJmZSiMQFIRXL9/hhvtGnDG1QUHRqdDj5ZMnCAu5htUrD+G1/AxtVCSU+VzQq0UeZiwR3h3ZgE1+WoT6rMciD395V6soRESw22q1iJKvi4rSIm+HEehV1gAK/WP43Y9iZ3V49DCAvYsSlo2GYkDNhFPFOJzsAXc8OBwOh8PhZC50ATi3cy1mLtqPAHmNhe6RO4a07oZevX9A9w7OqFmiJOqP3YcAgyIoUVgDU1NDPN01Bp0H/IpVq5bC44Yp6oxfiOHVDFGm62C0LWIIRdRNzG1QCSMelcZ3hVth2JDvYK7U4+HKlrCpMRUfatdFLtFD0eLy9qU4GmCNLovXYFh1SyiC/8aPla1R+oeLKFtP2KlKAZXaFx4Tx2PsiuMIEh2PKFzethieAbUwc9ty9CgXil1TR2Lp6l8xfq0P8jlNxNY/B6Ek/7Q5J5vCPyDIyTJkl48h8Y8+fT143qcvPD+/PTJzmeoC/PDIshjyBl/G2cuBMC5bG7VKWsT2sL71w1nvu4gqUhN1y1nJO1RF4NmVU/jvpQUq21dHYWPx5MfognHH2xv3wvPju7pVYPTwPHxRFBVK5UPO5JwI/Xs8uPgvbjzXwqKkLezK58GXGuvg9Y+TGeGOByfLkF2UKG8svh4879MXnp/fHrxMsw68rDiZET7VisPhcDgcDofD4WQ43PHgcDgcDofD4XA4GU6GTbWKO8TH4XA4HA6Hw+Fwsg4Z4SLwEQ8Oh8PhcDgcDoeT4XDHg8PhcDgcDofD4WQ4fFcrTpYhu+zQwXci+XrwvE9feH5+e/AyzTrwsuJkRviIB4fD4XA4HA6Hw8lwuOPB4XA4HA6Hw+FwMhzueHA4HA6Hw+FwOJwMJ1M4Hnq9Xv4lkfBvDidd0OugS1K09Ezu5J9ZlXR6P31kOMIjeR38FD7OY1YmOvknh8PhZCG+qj77Yk0Qb+u+NF9vcXmEH3bPGIsFx8JQsFQ+aMLeICJXbXTqmB//eVtj0s9NYSRHzRj0CLqwDtN+24SrQXoImaBQF0Dt7kMxtGdZPPdYCbcNh3EvRBJKhSo3qrXtim6d26FGXuavvb2OPWtW4I99PqAKPTBlhitsLcSonAziUxfK6d/fhtfqxVi88j9U//MUZtoZyCEsLPA0lk2ahq0PcqNgxGVciqyOPpN/xehmRWAALa4u+R4jdj5l6vZjlLlbYtbGJjjnOgI7nyYaA7lbzsLOMXby36kjre+Z7PsFX8L6yf/DnG1ncT9YjYI122PE7LkYam+VaK+D/vlO9K7VDcea7cc9NycYyuezC2mWsdD7OLJpJVb8uRdX31ujbMXSKGjO8l9lguJ1msI2xB37zH7Hgi7G8gWJocPj40vx2/w98HnH9I3GDqN3zUErUzk4C5Nkfupf4JLnfhzw3Ikj90LEpl+hsUD+wrlgpNci/P1rBAZ9gJZdo6kzDv/MbC5dx/nqpMeCZf3T89jtdRD7PY7CN1S6h8K4BBq2b46mTRvC5MZ+HPTaDa/rr6ETghUa5LdzQWvnpmjbsCSSrE26xzi+9DfM3+MDqSqNwNLmD7Ekq9at97dw4M/VWLPzP7xiGaGpPgLb57eFpRycEl9Hn30murtY26UZhnmGosZED+yfWAc55aCU0L+4BM/9B+C584hsuymgsciPwrmMoNeG4/3rQAR90LK80KDOOA/0fuaKZsM8EVpjIjz2T0SdRB8Uibt7fsHUpacQEEVQFe2GZWsHoJxaDuakHSaMXx5dAG37vigZluhL+1htkogg/wMTycFaTbm/30Vh8lmBiKtLaPqmAIqOmX7o6KGbM5krRL+DVAX70YFwOYiFPVrbmqyUUpjSsjNtfS8HRRPmSX1KNaHfH7DmkZPhCOUQfaSGMP/jtGp0W6pkpSGmfgnqcjT23wg5lPH+FP1sa0IKTS2aeYeVYfAu+qGgihQGJanPzqek0z2gBfUNpGs/OpRk3W07BT1YQPUNFImEs0NpTd22v5Eflnri3iM5Uny/iBu0sFEuYg5GvHsqczGZFd43IdqHtN4lP6mgosIDD1NMVchGxM2nlAi5upK6lTUhpdKCag73IGZAxaB9cYYWtS9JhgpjctkUJyBJQsmjh5VUVobOtOqVfDqLk1J+RhwfRiXUUriq6GA6EiN0Wnp9bSuNqWdNOVr+IZ/jZAZSKtPUE07/DC7C9I1wLxUV7OsVr93X3plFtTXScxSGTWlloByQEqEe1MNKKV5n6LyKXmX1uhV+mAbaqMT3MXBaTs/TYAhFl5NwpET66rPP4J07tTMV2lQFaWrNpNtpNq8i6PiwEsT8AnYPFRUdfCS2LdO+pmtbx1A96xzU8o/H5N7OVGw7RRsguQdFXaOp32nEfFSXG0txm1lO2kms0zPD0V5ejhl/+QMla6Ams+wlDGDjPA1bf+8Ea11U7OBX+GXMH/oLjgRGyifSEyWKdB2AtvmY6mPoXhzH3+cjxN9CWOEuw9CpiBSmf3sC+/95L/6ORvfgOgJru6JbUSkOJzOhxYvXRnAY8jO6V02sd0YP//VTseS/EChyFkMpG1aGFk5oWd8cikg//Dn2N5x44Y2z1xSwKl0LTq1c0L5DB3RgR7t6xWCotEJjl8ZQep/FNYUVStdyQiuX9mJ4hw7tUK+YIZRWjeHS2Fx+XnqT0vsBr3ctgleJ2Th+zx/3Tq+Ba2VTCP1f+qCjWLrqHOLXKC1uu/XHqD3PEh3d4cRHd38DejYfgi23PyBXi3nYNt8FJeIUgypPHfy0aQv+Z5vacVsVTE2MxfLJTijNzWGS6EurkKtSJ8zaMgPOZtktV7ILKpiZm8ojrwrkNDOLNwqrsIgjGwamMEttt7fKFCbGcWUmi9cthSGMDDI29emvzz4D03aYsWYS+rmOxLLFA1AqzeaVEubmJomXtyoXKnWahS0znGGmMEW7GWswqZ8rRi5bjAHJPUiREzkzcJAnu/FVHI+IWz7w1RIijy/C+B0PmckTjRJ52wyAS2HZ7dA+xLZBXTDt9FvRZc8QzJ3Ru2MxiKNm2vvYvuEwQsQAhnE9/NCpjBSmD8Q+d0+8FgMEtLixzRuFOrVI9bAn50uiRpFqdihdtArsK+dlTU9CQnH62HmIo/wqlVwRjFCuXDEWl5jo7cKmjTdgMckbD+544/BeD+zYvh3bt7tjbJ0c0Fs5MafCCFduW2CS9wPc8T6MvR47WDiL4z4WdXLoYeXkggzzO1J8Px2C83aHm1tf1Ctpg5L2rli2vD9KS8KM14GBsc49I+LqfIzc8Q75NFm2ef5y6AOwcdRo7A7QglQ26PRTdxRJTJMaVcePw1sgF8/SNKN/vBs7TkVAmd8Z7RpayWc52Y3YqqPIuo5DZifT6TPWDneahlVr5qFfTct0NFL1eLx7B05FKJHfuR0aWqlgVK4Tpq1ag3n9asLyq1jD2ZOvktXq/PmQmz2ZIm7hj641UKv3Ahx+GC4FGtpj7PgWMAo+jyWdHdFzw11EkA5+Oyegf98BmLHvKd7f9MDssSMwcnAn1K1YHjWaD4bbv0GiIaXzP4KFYwegX9++6Nt/LDb6ROLFsdnoZl8R1douwKXoAY0YjGDfuysqigaXDs92rceel9EmmQq58+SGWqxoegQfcofHUzks8gL+ulgSnR1ju2GSTpcO/kcWYuyAfujL0tV/7Eb4RL7AsdndYF+xGtouuAS8vYiVA5rBsXVPFmcEfl0wBqPc7vDe53RAqUpMU4YjNDRSGoMOD0Wo6P2qkSePvPZB9xL3dJ2xYHg1mAh/RxN5Bbv33YO56FRoYDtyAYZXixeDRdmNfffM4eTSGBnmd8Qh8fdToWSDBigRxyMxLF0K4gCeQo3STD410mnmg3ljxqjTaDxvEMrweaspor2+Ckv2vxb1jdLSHo61ku4FtGoxEgNtpTU3+sCzcBvWFo7OnfBDp1ZoO2AuvPxkvZcEyV2Tdl2XdQg+tR/HA5n2U9qgR99W4rmk80KP56eWYZysX/v27YehU9bh7PUTWDaO5U9/pk//uozguJ42JwujR+BZNwxr6wjnTj+gU6u2GDDXCylUJRnC+7NLMKKfICeSrAz/zQM+oeyuz7zxx9QfWX3qj0GD+qG/HKffj9Ow8dJz3Nn9C4ZFn+s/GnM9byP0wx3smTkC/Qf+D6vPBUGbYh1PRdoj7mPfrz/A0a4BOgwejd92+iEjq/Kn6rNPtsPaTITb3LEYIOZlf4zd6IPIF8cwu5s9KlZtiqHjx2GwnM+Dlp5hLbWAHm+u/ImxnVqjfXcXODXtg3nHnonPSj3BOLX/OCS10g3NLTZiwmBZZwxaijPsQW8vrsSAZo5o3ZOdG/ErFowZBbc7Ca0wwpuLq/Bj8+ooW9YWzYe7wyem/JJKZypswOyEPOXqyxJxmWbUMok3d15hXIwaj9hAl4OlCYzaR960Y5YLFRS6n6GhCq4raOu2HeS5eRzVNDegGjN8SEs6erK8MRkrQEqrFrRKXGuhI/+FDsSqBkFViHrNmUT1chsSs80IGnua65fY3PZ7NL9+Dik9ChNyWvpQWk8S9R9NbtaG2tnnlMNykMMCP/ZcorAjw6jFz/9S9FS/kLOTk0+Xzp8WOhiI76oq1IvmTKpHuQ1V4n019r+QV/+ipDZ0omXP2JPDb9Pa9kWp0tjY+3M+dW5xBJ0ZXUaa7xlvDUQ4/TNInl+ssaWp16LEs0Grm5Gh+AwN2f16SzwXl6jz46miJjd12Rosn0lIFJ0fX5E0ubtQklFSIG3vmdT7fUzUxQlUScPqmpkTLb0fXQ+C6PDwBtRulS9pQ92pXU5hbi1f45F03mvJd3YdYk6bGEdjO5Vk0Ume4CM0uqoJKY3q0bx7LO/fHaSBxdSkytOEFl8XyiycDg8sLMlj9Dz0FK/5BF33hUkpP6MuT6Iq8jz+6DUe4fe3k2v5vNR1e5y55CnmRRhdne1A5uKaPDWVGHKEQuk97XGtwWT7Zry1A5zPI6UyTT2yrhTvpabSI0/Ha+90L9yoiYH0HIVpR/pLFofgI6OpqomSjOrNI0kUBlIxtYryNFlMUlU6TAMLS2sipDUeCepW4Ava06eY9Ddr79tsiFXUobt6UunWa+hh4C7qJd9DXWYUnRHuy+yEBQ0kW0CRoymtkBdbhO3rR3UGHqA3KcpoKtKue0rbexYljUJN5UadZjIcQbd+b00FjaR1hOm/xuPT9FmK9k4Kumn2qfnkIJatigr1mkOT6uUmQ5Xwjhqyn76AXMyk9zVs+QcJqyTfn5lCtS00VGLQIXqne0de/YqQOqctTTgTIqYnPlF0eVIV+Z2i13iE0/3trlQ+b1eKVSvBtMnFTLLtDFvSH4+9qH9RNRk6LSPJDFtL7YtWktpUrR/NrSut8VCaFSa7LpPp91mdqLSGpVNhxGyFG+ypKaQzWRtwrpSkbMLXGVwyqIr//bUBQ2wtEN1ZSx8e4PDCXqhTvSN+v/QeqsK10KpeCXmOpwJWFZqiQ8cWUPyzARffRuLy+pU4E6mElY0NzFkcfdAZHLkg9AsoYWlhJg3L6l/B6+8cWHj3GjYNa4HGPfugpTCXPyGq4uja0xHiVGIKxck/N+KWFvhwYj0uVh6LRX2dwBo0FhYO783uLOw9Dv31ALW62ELy/cNxfM2q5NOltISFPFdZ/8oLf+dYiLvXNmFYi8bo+X1heB1+DG3kaSwetQ7Xo8qg1+IpcDD4INQcToZgiHr9+qK6IGDaG/Da7YNI6BESGibluUKN3HmtxZixaHFltyfumDvBpUkSW5hpr2C35x1xRCSpKF8HLW57/Y3b2pywHf4r+hYT6oEeL/aMxS8v+2GRa4lEpmtxPkaLhw+fxPa05TBJYo1CXCJxcf5ILLkaAmURO9QRdJBpHdhXNYQ+8B9MmeCOZx913aXmmk/QdZkYen0cMzvao0zlzlh7K24fb2rywgiVf5qPn6oZsfzQ4v6m3+C2cyG2mk7BCtfyGbxDIufz0SPwn9no37s3esuHq9CTnLCzOfIi5o9cgqshShSxqwNJFOxR1VC4fgomuKeiF1yZBy0m/IT6QsWlDzi5ew9eiBfp4H/7A5oM6oIi1i3xU69KECZCaP084XEhktkJeVG0sCmUwmXh3vD0fMGepcWN8yFwcq2PeynJaHjKaQ+/uARTt/gjSlkADs7VYcwsjLK9+8M5Zi1sevMp+iwV9k4KdljrCrkke4s9+RVrl3IsvItrm4ahReOe6NOmFHKZxHlf7XUsGj4L/763RoOW9WGqNIVdjXJQhV7Gsvm74kx/TwzC6+Mz0dG+DCp3Xot4agU5kCuXScy0n6jLXjj8WIvI04sxat11RJXphcVTHGDwIb4VpjBvismrp2HI8H5wzM+upgjcuPAfwlJKZ3I2YJ+W4vnsQkZJc4qoirTD0jOXsW9mN1TLrZEElAlJmN8ujOg4EvuDxRMJ0KBSkxaolDc3StjZsoobicAXr+VFsuGIiDtcKUKo0KYHqlmWRpdF+3BoTR+UTXQqiRL52/dCyzxCdhAiL2/C+nPPsd/9MRr0skPhtt3RTKz4LOzKVmw6vhcerxzQpXz0zdKYLqqANj2qwbJ0FyzadwhrXG2RJ5cSCubY3N3cH3Vr98SqZ60xd6J9ttvO9EtiUG08PHbNQOca+eG7uCNa9R+DcX9eQpQQqC4L2xoJJkrJToWZY9JOhfbKbnjeMYOjSxNkJr9DH+SFBWuuMofoV6z7uaZoiOkfb8HI+QqMXNAFhb+aJshqKKDWROsrRvgHfJB/Jon2GnYJji1rvxSWVrAS/QENTE2FBa96vD3uiSPvxJixpPma1Oq6zIvCqgHGbz/DGvHNGFA5zkrO1OaFoS2GT+0uGnT09ih+Hu2PjpNawJrLdhZAiTxO47Bq3Tqsk4+1i7qjvFjWsWiv7cJuH2GKrAKWVlZSZ4nGFKbCYnL9Wxz3PIKEVSkxVMV7YnCbvOyperw5sAJ/3GYejvYmdt4sg+6NhOnTalTq1hm2wqJurR92bDqB0OCDOKJqJtkJ9B7Ht3rgSfh5eNwrh/YVfVKU0UPeKaX9EP47eBh3o9hNlLmRL6/88mozmOaI0TjpzCfos7TaOynoJqrQBj2qWaJ0l0XYd2gN+pRRIc4uwND5esLzSoSYby8v/YWNGzdi97UgkEKP9/9542o8ZyIhClg1GI/tZ27gwuYBiKtWROI8SJk7D3Ixr5LC72Jz/7qo3XMVnrWei4n28a0whUkuWAk9zgpDGIqL/glRIe/x7m4a0pnQBuxTVg7IHnwVlRzpcwnXQtkPw6JwHueOi3fO488xTrAxkgpR+3Ab1ibqeahg03kNrjx/jhNDwrGwZV303PiA+ewMInZlAhQWKFrMOnUvadEMvdsXkZSB1hdb5oyEe3hL9CjNzlg0R/fW+eWw29g4eDbeNe6E4rJeSGu6FBZFUSxua6guj34Tf0Ap8f31eHdjI4Y4OuHno2/YX5yMQ4UCTj/jr3MP8PrVHfzt1hcV1eGi4jCo4oIOMY6lhPYqcypum8EpSadCi6u7PXHbLJkRka+BPgh/TxgDD7MB2LDpR1QU9WgkLvw+E15PLmNBx4ZwcHCAQ9NfcVpsNPR46TkGzcbsxVvhT04c1ChTvhSiN5nRP3uMx7G7YySO1h8PnkhdtwojI4jVnKFUSTqAwgLw6FmCrt20XpMWXZfJMSnbGbMnto11GNKQF5bNJmCckwXLB2YMPLuEi77JWiWcLIbW/wEkUVDAiMmCJApKSKJACAt4hIRVKXEs0WpwD5RWC4bmBaxZdhxBZ91xu0JXVJemMUBVqjO61MnBnqHD4z0bsW3bUaja/IYBrQuyloPw4fQ2bN62Aw+rtEcFpCyjD6/5pZB2f1x7GD1io4JaWlyawXyCPkujvZO8blLAomixZDsHtA8fIkDIFPqACDKDhYUFrJtMxI49e7F7RV+Uj1msmBwmKNt5Nia2TVpHqsr2w8QfSkllp3+HGxuHwJHZB0ffpMIK0+kQkYZ0fmQDZjO+ypuHXVgFt2Mxe0dBmasqesz5G+d2DkIFQ1bqFIaXzxMd8mD2ki+2DrVHJYfxuN7QDR5jaiQ9NKjQQJPqXXqM4dC7KxMOIb4OAftPwLJzewgjaUBOOH7fHkVFO1SH5y+Lo3W7gvEzLw3pUmhYuuKFKZGv7Qoc3TURjQpKvQ/6d5exdPhseEvdCJwvgPbGX9h5halPVQF0HDcAFeL5HVpcZ07FLTNHuDRNarjjOnZ73hJHRJKK8uXR46nHcAw/Wh3L9ixEc3FUT3D+T+D863CEPLiIkydPSsdpHwSKX+sihAdcwdnrz+ReLE4sSuRp7oIG8pC5LvAKLvmlYOkojJEzp1zhFSrWbEtoo+QWXpETJgmVRVqvSZOuy/yY1nFGgzzyW6clL1TF0Kl7Q3EaB0Vcw7Kp6/EwVYYoJyugMM6JWFGIkQTEikJqpgpJGNoNQF/ZsXi4ZRZ+XBaA2l3KMVNcRlUEHbs6wJTdT/9iN/63QgPnxvnQiNkCxVkkijiLuT/fw3cuZaBKhYyaWpqkmHZzw2jrNAwf5A8rZiyfoM8E0s0OU7CwOCMuicHCxTJhBn1Urppo0aoVWslHy6bVkC/VVqwp6jg3QLRa+QhlPrRdcRS7JjZCQTG9ery7vBTDZ3unrh1MQzo/tgGzF6kusnRF/wx7lrsnaBCY8e08EYPqsoqnskaZcvnYqThb6Il1MBLnpndAr+Xn8KZMf8weaRtTkdMDdbWe6FHTUHymumRX9HWOnWpjZN8DncoISkEJK+duaCN8vTyGz0yX/im8dpyGifN0HLrghcmO+cWdtHT+d3An5XFPTgqQPlqBk9Ahkzjau1g9fjmuRBmibF83zGuXJ37l0N7ALuZUmCY3zerGLnjeMv3i06ySez/t7ZXo+9NxFHexw7u/V8PNzQ2/L5iE7/ush+kvl/EqOBjB0ceztWgjDPuzZrOQ6x483tkbCVe5cJgGKNwDEwZXkXrGtFfgse2G1NuXCKE3TuF8cFXY20rfUKGwEISIZaRjhoUwusZ0TXFb1IinTxia79J+zTeEskAruNSVpzikJS/eHMX8v4tiaHuhV1qPN4dm4de/30hhnCyP5jt72AqeACv5sJAQsfyh+4DQcFESUNy2BlJdLVTF0XNgC3GHTX3wUXhFNkFHm7gXCx2C3eBoIUT4AJO6LmiYkzkstbujY1lmC5AOYaUc0V7YOjAVMmrXsG4KabdD7cqlIfS9QvsE93zDhBgMQoyKzwDSrM8CwzPUDkuIplwllBE7pCNxfs8uPIqxG/UIvn8fr1M9LUSJAq1cEK1WEqJ/5oUdp03gPP0QLnhNhmN+NStPHfzv3EnF9LP0TOe3T2qraDpDCPp7AnrPPBt/i8NwP9wPIFjWH4XhTY2hMjMTexvE+K9e4t3VRZi38yaEekqRoQgNe41zp6/hnXyPiHBpcmFUdBcCK3BdWgpbVQrdezaEqdIQ1X9wRa24Aqquhm6dq8BAlR+tujeP/+0OnR+OHPZJIV1RMT0b0OtYyuKixb11EzDP+z1U+Z0wdct0NMmhgLqcLRLs1MpJM4T370IlJU9hCEmsFyn0Jja4tsXof5SoPWor/l7W6qNeFO0ND+z1YU5F26bxyz4GLW547IWPqSPaNv2SX3ZJ5v3en8aUHmNx8OljHJz9EwYPHiweP46agV2RJVHN2hTmFhbikLB4mBnFbPag0BjDLKc854CTAGPUmbIZv3coDkNWr68sHYEFl4W5o3HR4+XpOeg1cideavKiw4heKGuggP4x03HCIiLdIzwMiAQpLdFo6ADUZFkdGSW3VMR0hc46Vdd8sq7LJOgjIiFMaReJiky8Z1GZuvwTOrR2jf0dqqEzMOWXn1BbcKJ1/nCfuhiX+YyrTIietY3CmgcBYsUfJf+WYe1mjDxooxDJ5FuZtwNG9CoLA4Uej/3ui+vxdI8eIiCSoLRshKEDasKAXRVblVhdYtfFq1vCCRElrF2GoGsJtShjrX9oA3lAOAaldUt0b54bSnVJuHS1lzYpUFdltkBVloYcqNO+nbRFeSpktFbhlNJeCzYuvdBCXEPyDkc2bIKfNhQ+6xfBw19Of1REBmytm0Z9htTYOynoJlYuseZQgkDSsuKWJUGIl88FfVrngzC9LeTYrxgw/yxes2veXlmNGZvuSPHiweQqjixFRSY1XkHQMrmS4jG5CLuHdRPmwfu9CvmdpmLL9CbIoVCjnK2wpT5LR3SCdTrmjjBYOqPEGQIMXRR0KaYzORswmyHvbvVFebOuI1VxGUPj+7elpu2G0K8rNpL72rk01LE8VW4/m04EyvvFaX1pXccixJxIUqiNqZDTVFo+rCIxm5ygMCAbp3G07eQqcsmtZKWvII1NG1p6YD9NaZpf3ipPTTatptP+e2nYGPT1X9SlZEtaHfDxnnVavwXUsPxQOvrR3oyhdHx0culqTdNXTqCm+aXt+RRqG2o1fT/FJiuI1roUowr2zaj/jJW0clIzsslrT5OPBcnhHAEh76KPlNHR84t7adPvI6hBXinfmWdJ+RuNIbctJ+l+BFHY04u0e9GP1KxKWbJrP4bWnH0mbon3MVF0ZXJV0uTqQJuTKpKoKzS5qoZyddjMSvPzSN17pvB+Yc9oh7gtY+y9Yg8lWX+/i0ltAvh2uvHyKUW0L+is2xBqUsaSDC0qUNsRs2nlRnda7zabxvXrRj1HraZ/X0XrkTC6vuZ7qmiRi2oOWkKrprWhYiaFyWnyIXqu09Kjo3PJpZha2tpRaU0N/7ebboUmdw17/MPDn6frvgBJ5qfuOV3c/QfN6FCamK0mhivUhch5wkradsZf3LI8PsnlhY6end1AUzpVJDOjKtRv83909fAUahpdLxQ5qXLv1XT+9cc6nZN2kizTNKALOEc710yjtsU1kswL7WTRVjR59Q7yfvSKrh/YSPP7VCPTaP2lzE11f1xKm4/do9Cw67Tm+4pkkasmDVqyiqa1KUYmhZ1o8qHnpNM+oqNzXaiYWtqOVWndgAb/MiaRuiUnhEmaz6zalLNEYu26RMh+VypaZQJdiNM4aH3nk4N1M1oZz05Ivr5KUZJJuxhBR089h1N1SxUpFCoytihA1fuNp67F1UyO2d8F69OgdRfFmKkhTWWVan2Wkr2Tgh2mfUiHpzSl/OKnEhSktmlF0/ffk9obofxmt6Wi0eWXx5Em7L1NuheHaaJDfrk9Y88wLUBVuiyl/96Jd4xB95y16X/MoA6lDWLkSl3ImSas3EZn/ONqFUHnzqa2RaPlIg85jvyRnIpUIPtm/WnGypU0qZkN5bWfTMeCIuiOxzCqbSG8H9NTTMf03XaNLv/ZXdpOV0hnrvo0Zp9fMunU0kNBJyVpA2YvFMI/LCO+KNpHvnicpySKGTHHL+QRrl68gcchRihQqSa+KxK7vZnEW/id9cbdqCKoWbccrBRv4cv+9tOURV27ohD2nwh/dAHHr71HwZp1USnP5/bSRuDh7SewLltCvHc89MG4fScMpcoViJnDGYP+c9KlQ4DfI1gWy4vgy2dxOdAYZWvXQklhiJcTgyLODhSfL7Yf4Od9FgEGxVCxUgnk+lyxSUfS9z05aeHT8j4SQfev49qdJwgOV8A4T3FUrlYe+Y0/rr/69w9w8d8beK61QElbO5RPhb76lGsyC+kty1k5L74VMod+0uP9g4v498ZzaC1KwtauPD5VFLSXpqDX3lZYP626NEc/IVp/XL5hiCpV88XaJswWuHnpOQrVKPfRR2JTltGU064LvgNv73sIz/8d6lYxwsPzvkDRCiiVL+fHtkcyZJg++yx751P5gIDL/+JKQBQsS1VHzTJWiZfXp6ILgN8jSxTLG4zLZy8j0LgsatcqibSbYRmczm+Ar+J4cDifQnYxyLPLe2ZGeN6nLzw/vz2yfpm+wSX3FTisbIahXSvAf944HGk9B8OEHSy/MXj942RGeJc6h8PhcDicbIHuwTqMdP0ZP/efgp2PjmFbUE10KfntOR0cTmaFOx4cDofD4XCyBaq8teD4nSWUH45ieo8dKN6r/UeLyjkcTsbBp1pxsgzZZdiYD49/PXjepy88P789voky1YfixaMgaAoUzlTr+9IbXv84mZEMczziCjyHw+FwOBwOh8PJOmSEi8AHGDkcDofD4XA4HE6Gwx0PDofD4XA4HA6Hk+HwNR6cLEN2ma/K5+V+PXjepy88P789eJlmHXhZcTIjfMSDw+FwOBwOh8PhZDjc8eBwOBwOh8PhcDgZTqZwPPR6vfxLIuHfHE66oNdBl6Ro6ZncyT+zKun0fvrIcIRH8jr4KXycx6xMdPJPDofD4WQDePuZHF9vjUeEH3bPGIsFx8JQsFQ+aMLeICJXbXTqmB//eVtj0s9NYSRHzRj0CLqwDtN+24SrQXoImaBQF0Dt7kMxtGdZPPdYCbcNh3EvRBIghSo3qrXtim6d26FGXuavvb2OPWtW4I99PqAKPTBlhitsLcSonAziU+er6t/fhtfqxVi88j9U//MUZtrFbtyuDzyNZZOmYeuD3CgYcRmXIqujz+RfMbpZERhAi6tLvseInU+Z+fgxytwtMWtjE5xzHYGdTxONgdwtZ2HnGDv579SR1vdM9v2CL2H95P9hzrazuB+sRsGa7TFi9lwMtbdKtNdB/3wnetfqhmPN9uOemxMM5fPZhTTLWOh9HNm0Eiv+3Iur761RtmJpFDRn+a8yQfE6TWEb4o59Zr9jQRdj+YLE0OHx8aX4bf4e+Lxj+kZjh9G75qCVqRychUkyP/UvcMlzPw547sSReyFiM63QWCB/4Vww0msR/v41AoM+QMuu0dQZh39mNpeu43x10mPdgP7peez2Ooj9HkfhGyrdQ2FcAg3bN0fTpg1hcmM/Dnrthtf119AJwQoN8tu5oLVzU7RtWBJJ1ibdYxxf+hvm7/GBVJVGYGnzh1iSVevW+1s48OdqrNn5H16xjNBUH4Ht89vCUg5OiRTLSheAf3d54cC+nTjxIEy0g6DIiXrjt2BGU3MxSlz0r/dgXLeFOB8u3UtpWhpO7VujRcsWqGr9qf3YEbizazqm/n4GT7UEVfHv4bamL8ok+zF5PZ6eZ/JxcD88jvpCEiEFjEs0RPvmTdG0oQlu7D8Ir91euP5aJ9l3mvywc2kN56Zt0bBkcvr4c9Dh7touaDbME6E1JmL7yrq4tGg+9vi8YynWwG7EUjR/uCSOfI7Grjmt8A2o+rTBhPHLowugbd8XJcMSfWkfq00SEeR/YCI5WKsp9/e7KEw+KxBxdQlN3xRA0THTDx09dHMmc4Uol6Qq2I8OhMtBLOzR2tZkpZTClJadaet7OSiaME/qU6oJ/f6ANY+pJoKuLplOmwLS/22+dYRyiD5SQ5j/cVo1ui1VstIQU78EdTka+2+EHMp4f4p+tjUhhaYWzbzDyjB4F/1QUEUKg5LUZ+dT0uke0IL6BtK1Hx1Ksu62nYIeLKD6BopEwtmhtKZu29/ID0s9ce+RHCm+X8QNWtgoF7HmIN49lbmYzArvmxDtQ1rvkp9UUFHhgYcppipkI+LmU0qEXF1J3cqakFJpQTWHexAzoGLQvjhDi9qXJEOFMblsihOQJKHk0cNKKitDZ1r1Sj6dxUkpPyOOD6MSailcVXQwHYkROi29vraVxtSzphwt/5DPcTIDKZVp6gmnfwYXYfpGuJeKCvb1itfua+/Motoa6TkKw6a0MlAOSIlQD+phpRSvM3ReRa+yet0KP0wDbVTi+xg4LafnaTAdostJOJIjbJ8rFZBtHWaik0XLNfT0o+cwe+n3JmRpKLc3UFOZUWeYRZMORP1Hk6poxOdrKk2gC1Hy+ZQI/4cGF5HyBqqC1NcrngTRnVm1SSO/k2HTlZRaEfp03pF7O1Mxf0S74raWiWMP2Y40JGdB+D6Sz+zHp7qon4X28nLM+MsfKFkDNVmJSBjAxnkatv7eCda6qNiBqvDLmD/0FxwJjJRPpCdKFOk6AG3zSa617sVx/H0+QvwthBXuMgydikhh+rcnsP+f9+LvaHQPriOwtiu6FU3WNY9H+OX5GPrLEWTI63DioMWL10ZwGPIzuldNrHdDD//1U7HkvxAochZDKRtWhhZOaFnfHIpIP/w59jeceOGNs9cUsCpdC06tXNC+Qwd0YEe7esVgqLRCY5fGUHqfxTWFFUrXckIrl/ZieIcO7VCvmCGUVo3h0vjjXqP0IaX3A17vWgSvErNx/J4/7p1eA9fKpmAKEfqgo1i66hzii6AWt936Y9SeZ4mO7nDio7u/AT2bD8GW2x+Qq8U8bJvvghJxikGVpw5+2rQF/7NN7bitCqYmxmL5ZCeU5uYwSfSlVchVqRNmbZkBZ7PslivZBRXMzE3lkVcFcpqZxRuFVVjEkQ0DU5jllH+nhMoUJsZxZSaL1y2FIYwMMjb1SnMLlKpQFpZiARDe/rMOG+8laAl0t+G+UwenJnliyszM0pLlbjqgMIZxDvl3WlCZwdxUlhpFTpiZxZMgWJibxJS7gakZUitCn44p2s1Yg0n9XDFy2WIMKKVi4miC+OKYUD6zH3FL6YsRccsHvlpC5PFFGL/jITN5olEib5sBcCksux3ah9g2qAumnX4ruIsZg7kzencsBrXwW3sf2zccRogYwDCuhx86lZHC9IHY5+6J12KAgBY3tnmjUKcWqR721D7chkFdpuH02wx7G04MahSpZofSRavAvnLeRJRjKE4fOy8N0apUckUwQrlyxVhcYmW1C5s23oDFJG88uOONw3s9sGP7dmzf7o6xdXJAb+XEnAojXLltgUneD3DH+zD2euxg4SyO+1jUyaGHlZMLMszvSPH9dAjO2x1ubn1Rr6QNStq7Ytny/igtCTNeBwbGOveMiKvzMXLHO+TTZG+FmCr0Adg4ajR2B2hBKht0+qk7iiSmSY2q48fhLZCLZ2ma0T/ejR2nIqDM74x2Da3ks5zsRmzVUcT5zUl/lDBvPAg9SooNBCjiPP5cdzFe51TkhT9xKH9PdMgXt1QyO3FSGGfaWUZiVK4Tpq1ag3n9asqOHCchXyVb1PnzITd7MkXcwh9da6BW7wU4/DBcCjS0x9jxLWAUfB5LOjui54a7iCAd/HZOQP++AzBj31O8v+mB2WNHYOTgTqhbsTxqNB8Mt3+DRENK538EC8cOQL++fdG3/1hs9InEi2Oz0c2+Iqq1XYBL0QMaMRjBvndXVBQNLh2e7VqPPS+jTTIVcufJDbUor3oEH3KHx1M5LPIC/rpYEp0dY33opNPFrj2/hMXtiQ13I0A6P+yc0B99B8zA1gNuGNDMEa17svSO+BULxoyC2x3e55yeKFWJKZxwhIZGig4thYciVPR+1ciTR177oHuJe7rOWDC8GkyEv6OJvILd++7BXHQqNLAduQDDq8WLwaLsxr575nByaYwM8zvikPj7qVCyQQOUiOORGJYuBXEAT6FGaSafGuk088G8MWPUaTSeNwhlpHaHkwza66uwZP9rUd8oLe3hWCvpUQ2rFiMx0FZac6MPPAu3YW3h6NwJP3RqhbYD5sLLT9Z7SZDcNWnXdVmH4FP7cTyQ6UGlDXr0bSWeSzov9Hh+ahnGDeiHvkJe9O2HoVPW4ez1E1g2juVP/xH49a/LCI7raXOyMHoEnnXDsLaOcO70Azq1aosBc72QQlWSIbw/uwQj+glyIsnK8N884BPK7vrMG39M/ZHVp/4YNKgf+stx+v04DRsvPced3b9gWPS5/qMx1/M2Qj/cwZ6ZI9B/4P+w+lwQtCnW8VSkPeI+9v36AxztGqDD4NH4bacfvkhVNrDFwAH2Uu88ReH25jU4EtMLG4qjf55Hlb6tYZ5YcyPw/iY8Zo/FiJGD0aluRZSv0RyD3f5FkGSY4cjCsRgg5l9/jN3og8gXxzC7mz0qVmuLBZc+ngKif34GqyYOEfVbv0H/w+Ij/uk3Gp9sWh/h6KK4ab2Aq+5j4VK7PEqXq4nW43bifmQk/A/OQq9GVVGmdGU0GrgONz7o8fSUGyYMlvXQoKU4kyqZzIbIU66+LBGXaUYtk3hz5xXGxajxiA10OViaWKh95E07ZrlQQaH7GRqq4LqCtm7bQZ6bx1FNcwOqMcOHtKSjJ8sbE6sopLRqQavEtRY68l/oQKypJ6gKUa85k6hebkNithlBY09z/RKb236P5tfPIaVHYUJOSx+yuzCi/qPJzdpQO/ucclgOcljgx55LFHZkGLX4+d+Y+Y0hZycnk64IeuS9g2a5FJTms2oqkOuKrbRt42/U0UZNhk7L6Bl7YPjttdS+aKX48/Q5MUTLStrENoLOjC5DzJ5OsAYinP4ZJM8v1tjS1GvSpNKg1c3IUHyGhux+vSWei0vU+fFUUZObumwNls8kJIrOj69ImtxdKMkoKZC290zq/T4m6uIEqqRhdc3MiZbej64HQXR4eANqt8qXtKHu1C6nsF6Fr/FIOu+15Du7jjxvGKSxnUqy6CRP8BEaXdWElEb1aN49lvfvDtLAYmpS5WlCi68LZRZOhwcWluQxeh56itd8gq77wqSUn1GXJ1EVeR5/9BqP8PvbybV8Xuq6Pc7amBTzIoyuznYgc3EutZpKDDlCofSe9rjWYLJ9M97aAc7nkVKZph5ZV4r3UlPpkafjrRfQvXCjJgbScxSmHekvWRyCj4ymqiZKMqo3jyRRGEjF1CrK02QxSVXpMA0sLM37l+bQJ6hbgS9oT59i0t+svW+zIVZRh+7qSaVbr6GHgbuol3wPdZlRdEa4L7MTFjSQbAFFjqa0Ql5sEbavH9UZeIDepCijqUi77ilt71mUNAo1lRt1mslwBN36vTUVNJLWEWbUGo+IU2Oo9f+8KfzVVuqaV1p/AKUVtd8UKNlCr7dST+fpdDUqnA72LyTlHWsja4r2DiPkLE2uaU4GNWaQDzuhe7KcGhuzNLN7tFj1QIyj819IDmJ5qqhQrzk0qV5uMlQJ76Uh+9mHaWatj9d4vN/WmSwNS1Hv7f5MWhIh6jyNryhdB3VpGnk6ngTRC7cmkn6Egkw7/sXyk5GKtGp955C9qJeUlLNQVWoxaA4tHtuI8gr2qMKUbFu6UCvXmbR8hgsrP3Ytsw3rzbvDrg2mTS5mkr1o2JL+eCOI40AqLNqx8hqPj+Qz+/F1BoIMquJ/f23AEFsLRHfW0ocHOLywF+pU74jfL72HqnAttKpXQp7jqYBVhabo0LEFFP9swMW3kbi8fiXORCphZWMjeuD6oDM4ckHoF1DC0sJMGmDTv4LX3zmw8O41bBrWAo179kFLYS5/QlTF0bWnI8SpxBSKk39uxC0t8OHEelysPBaL+jqBNWgsLBzem91Z2Hsc+usBanWxhdSXGY7ja1Ylky4tCtdqhXol5PmGCitUaNoBrQs+xcUALSJPL8aoddcRVaYXFk9xgMEHQSY5GYsh6vXri+qCgGlvwGu3DyKhR0ho9M4eauTOay3GjEWLK7s9ccfcCS5NktjCTHsFuz3viCMiSUX5Omhx2+tv3NbmhO3wX9G3mFAP9HixZyx+edkPi1xLJDJdi/MxWjx8+ITlnEwOkyTWKMQlEhfnj8SSqyFQFrFDHUEHmdaBfVVD6AP/wZQJ7nj2UW98aq75BF2XiaHXxzGzoz3KVO6Mtbfi9vGmJi+MUPmn+fipmhHLDy3ub/oNbjsXYqvpFKxwLZ/BOyRyPh89Av+Zjf69e6O3fLgOd4dPwi7uyIuYP3IJroYoUcSuDiRRsEdVQ+H6KZjg/iy2biaFMg9aTPgJ9YWKSx9wcvcevBAv0sH/9gc0GdQFRaxb4qdelSBMhND6ecLjQiSzE/KiaGFTKIXLwr3h6fmCPUuLG+dD4ORaH/dSktHwlNMefnEJpm7xR5SyABycq8OYWRhle/eHc8xa2IxFYdUGQ78vLb43M15w8I+/8Einx9OdHghr2wsVkxgRDz++BqsuvkXk5fVYeSaS2fA2sJEMIJw5ckEcsVFaWkg2Fsu1V6wtyrHwLq5tGoYWjXuiT4v8QkB8tHexaf05lBm3EUs72EhT3pNDH4h/ZvePkZ/evV0x3N3no1GS1KRVlcsS0ctFjGqOwh+/j8GwSb1Q21Ao/BDcCnPE76v+h0GjXNHIWjgXjmsXrrJrcyBXLpOvM5UoC/HV8kdVpB2WnrmMfTO7oVpujdR4MpMvzG8XRnQcif3B4okEaFCpSQtUypsbJexsWcWNROCL1/I8xHBEfDSsRajQpgeqWZZGl0X7cGhNH5RNVHqVyN++F1rmEb0LJpCbsP7cc+x3f4wGvexQuG13NBMrPgu7shWbju+FxysHdCkffbO0pktCZZ0HuZgWo/C72Ny/Lmr3XIVnredion1228T062BQbTw8ds1A5xr54bu4I1r1H4Nxf15ClBCoLgvbGgkmSslOhZlj0k6F9spueN4xg6NLE2Qmv0Mf5IUFa64yh+hXrPu5pmiI6R9vwcj5Coxc0AWFuaZMJQqoNdH6ihH+AR/kn0mivYZdgmPLPFqFpRWsRH9AA1NTYcGrHm+Pe+LIOzFmLGm+JrW6LvOisGqA8dvP4MaFzRhQOc5K/dTmhaEthk/tLhp09PYofh7tj46TWuCTd/nkfEGUyOM0DqvWrcM6+Vi7qDvKi2Udi/baLuz2EabIKmBpZSV1lmhMYSrMD9K/xXHPI0hYlRJDVbwnBrfJy56qx5sDK/DHbWaeam9i580y6N5ImD6tRqVunWErLOrW+mHHphMIDT6II6pmkp1A73F8qweehJ+Hx71yaF/RJ0UZPeSdUtoP4b+Dh3E3it1EmRv58sovrzaDaY4YjZPBGMJu0EDUzSk8j/Dh1Hqsv3YbW/42RdfOhZM0GDWVmqBFpbzIXcIOtqwCRga+wGt59lR4IgYQVWiDHtUsUbrLIuw7tAZ9EiqrCD/8NcgVu6quxs7JdqlbFM4cSqdxq2LkZ926tVjUvfxHHWppS6sCOXJbSx3PSiMYyvOTDXLnEZcLQJEDhuLCf0J4yHvJdvhCa0myMl9FJUf6XMK1UPbDsCicx7nj4p3z+HOME2yMpAIUFmGvTdTzUMGm8xpcef4cJ4aEY2HLuui58QHE6flE7MoEKCxQtJh16l7Sohl6ty8iCanWF1vmjIR7eEv0KM3OWDRH99b55bDb2Dh4Nt417oTiMRKdxnTJqMv3w8QfSkF8bf073Ng4BI5OP+PomxT7bDjpggoFWH7/de4BXr+6g7/d+qKiOpyVlwIGVVzQIcaxlNBeZU7FbTM4JelUaHF1tydumyUzIvI10Afh7wlj4GE2ABs2/YiKol8biQu/z4TXk8tY0LEhHBwc4ND0V5wW9a4eLz3HoNmYvXgr/MmJgxplypdC9CYz+meP8Th2d4zE0frjwROp301hZCTVd4ZSJWkmCgvAo2cJ+uXSek1adF0mx6RsZ8ye2DbWYUhDXlg2m4BxThYsHwhRzy7hou8XmR3P+UJo/R9AEgUFjJgsSKKghCQKhLCAR0hYlRLHEq0G90BptdDxdwFrlh1H0Fl33K7QFdWlaQxQleqMLnVysGfo8HjPRmzbdhSqNr9hQOuCrOVgRvnpbdi8bQceVmmPCkhZRh9e80sh7f649jB6xEYFtbS49IsjOGVD2uYTdQlFXcOGsWNwusQPaJ5Mk6ay6Yw1V57j+YkhCF/YEnV7bsQDyQASTKAEKGBRtFiSHQIU5oNVrE3qufYsrlz1xfukDKhPJG1pTUBiRRJ9Ti+s5uWkhiSKPmMJu7AKbsdiVi1Bmasqesz5G+d2DkIFcSgrDC+fJzrkwewlX2wdao9KDuNxvaEbPMbUSHqqg0IDTap36TGGQ++uKC8vMg/YfwKWndsjv5hDOeH4fXsUFe1QHZ6/LI7W7QrGz7y0pCsaZT60XXEUuyY2QkFpbBPvLi/F8Nne8mgJ50uivfEXdl5hGkhVAB3HDUCFeH6HFteZU3HLzBEuTZMa7riO3Z63xBGRpKJ8efR46jEcw49Wx7I9C9FcHNUTnP8TOP86HCEPLuLkyZPScdoHgeLXugjhAVdw9vozLocfoUSe5i5oIG/xqgu8gkt+KVg6CmPkFHsQhd8qqQODoY2SPRZFTpgkVBZpvSZNui7zY1rHGQ3yyG+dlrxQFUOn7g3FKR0UcQ3Lpq7Hw1QZopysgMI4J2JFIUYSECsKqZn6KGFoNwB9Zcfi4ZZZ+HFZAGp3KRc7pUdVBB27OsCU3U//Yjf+t0ID58b50IjZAsVZJIo4i7k/38N3LmWgSoWMmlqapJh28+gudYThg/xhxS8Pc8qG9kQ5UZ9o4X86GLV61U7hY7KR8N06FPaVHDD+ekO4eYxBjSQLQsF0VZxR4wTo34fDunIZVof1CPQagx7TziL+hww+l7SklZMRfBXHA/pn2LPcPUGDoEQ+54kYVJdVPJU1ypTLx07F2UJPrIORODe9A3otP4c3Zfpj9kjbmIqcHqir9USPmobiM9Ulu6Kvc+xUGyP7HuhURlAKSlg5d0Mb4evlMaQuXcq4XxFlh/6pF3acNoHz9EO44DUZjvnVohL0v3Mn5ekbnFRD+mgFnkyPhvYuVo9fjitRhijb1w3z2kXvVS6jvYFdzKkwTW6a1Y1d8Lxl+sWnWSX3ftrbK9H3p+Mo7mKHd3+vhpubG35fMAnf91kP018u41VwMIKjj2dr0Ubc0kSFQq578HhnbyRc5cJh9bhwD0wYXEXq1dRegce2G6x5TpzQG6dwPrgq7G2lb6hQWAhCxDLSMcNCGF1juqa4LWrE0ycMzXdpv+YbQlmgFVzqyqZOWvLizVHM/7sohrYXeqX1eHNoFn79+40UxsnyaL6zh63gCbCSDwsJEcsfug8IFb+krUZx2xpIdbVQFUfPgS3EKTP64KPwimyCjjZxL2Y2SdtucLQQInyASV0XNMzJHJba3dGxrLAkXoewUo5oL2wdmAoZtWtYN4W026F25dIQ+l6hfYJ7vmFCDAYhRsV/IQyqD8DA+sKaVCXMm/RDz+Q/I47Ic9PRoddynHtTBv1nj4TtZxhmqjzfwWXaKsxplRdKCsGl2T9g1L6X6TaakJ5p5Xwaqa2i6Qwh6O8J6D3zbPwtDsP9cD+AYFl/FIY3NYbKzEzsbRDjv3qJd1cXYd7OmxDqKUWGIjTsNc6dviZ+el4gIlyanxcV3YXARFWXFmlVlUL3ng1hqjRE9R9cUSuui6+uhm6dq8BAlR+tujeP/+0OnR+OHPZJIV0qmJlJigkUhFcv3+HG9s2Y/7958H6vQn6nqdgyvQlyKNQoZ5tgC1fOZ0B4/y5UUvIUhpDEepFCb2KDa1uM/keJ2qO24u9lrZAvQc3Q3vDAXh/mVLRtGr/sY9Dihsde+Jg6om3T1H7ZJT1I5v3en8aUHmNx8OljHJz9EwYPHiweP46agV2RJVHN2hTmFhawiD7MjGI2e1BojGGWU55zwEmAMepM2YzfOxSHIaJwZekILLgszB2Nix4vT89Br5E78VKTFx1G9EJZAwX0j5mOEyYC6x7hYUAkSGmJRkMHoCbL6sgouSeGohCls07VNZ+s6zIJ+ohICFPaRaIiEx9hU6Yu/4QOrV1jf4dq6AxM+eUn1BacaJ0/3KcuxmU+4yoTomdto7DmQYBY8UfJv2VYuxkjD9ooRDL5VubtgBG9ysJAocdjv/vinHrdo4cIiCQoLRth6ICaMGBXxVYlVpfYdfHqlnBCRAlrlyHoWkItyljrH9pAHhCOQWndEt2b54ZSXRIuXe2lTQrUVZktUJWlIQfqtG8nbVGeChmtVTiltNeCjUsvtBDXkLzDkQ2b4KcNhc/6RfDwl9MfFZEhW+tSZDhCWF2MQVUMPYa2QwFNAbTv30Ge+SFAiIiMLjOhygplpoPfkcPwkQwghIaG4fW507gWawBBtMxYWcRoq4+UlQ5aOZBYWWsVxdBr6Xy0L6BiReaHdT+Owe7nCa9h6CMQLiysEWBlGxmjTCTCmXxFo2X6hWnJVKZVC3HwX3g7nVZ+Xz1Lt/iDpTX6TVhahYJkCOmOZB6ilv0vxWeyJjye5ZF0GZNxlgf6ROQz2yHvbvVFebOuI1VxGUPj+7elpu2G0K8rNpL72rk01LE8VW4/m04EyvvFaX1pXcciZKgAKdTGVMhpKi0fVpFyCNtFKgzIxmkcbTu5ilxyC9u/KUhj04aWHthPU5rml7fKU5NNq+m0/14aNgZ9/Rd1KdmSVgd8vGed1m8BNSw/lI5+tDdjKB0fnXy6ll0NY6+zjjoWMSQFO6c2LkROkyZQq2IVyL5Zf5qxciVNamZDee0n07Eg+baceAjiGn2kjI6eX9xLm34fQQ3ySlvXMW1K+RuNIbctJ+l+BFHY04u0e9GP1KxKWbJrP4bWnH2W+JZ97OyVyVVJk6sDbU6qbKKu0OSqGsrVYTN9bvGl7j1TeL+wZ7RD3JYx9l6xh5Ksv98lbS0YF76dbrx8ShHtCzrrNoSalLEkQ4sK1HbEbFq50Z3Wu82mcf26Uc9Rq+nfV9F6JIyur/meKlrkopqDltCqaW2omElhcpp8iJ7rtPTo6FxyKaaWtmFUWlPD/+2mW6HJXcMe//Dw5+m6L0CS+al7Thd3/0EzOpQmZquJ4Qp1IXKesJK2nfGXtuiMR3J5oaNnZzfQlE4VycyoCvXb/B9dPTyFmkbXC0VOqtx7NZ1//bFO56SdJMs0DegCztHONdOobXGNJPNCO1m0FU1evYO8H72i6wc20vw+1cg0Wn8pc1PdH5fS5mP3KDTsOq35viJZ5KpJg5asomltipFJYSeafOg56bSP6OhceYtTdp3SugEN/mVMInVLTgiTNJ9ZtSlnicTadYmQ/a5UtErsFq8CWt/55GDdjFbGsxOSr69SlGTSLkbQ0VPP4VTdUkUKhYqMLQpQ9X7jqWtxNZNj9nfB+jRo3UUxZmpIsay0T+j0xnk0sE5uUuepRz8u3Egnxc8SMCLO0+Suk+icvEOt9uFp+mvleGpSMLq9UZBR2S40c70nnd09iirmEPJcQQY2TjRu20la5ZJb2DaVFBobarP0AB2e0pTyi9vKMvvHphVN339PbmPC6daOIVTTXNrGV5GjKvXbcp3ev79G8xwtxHsIbVae+iNpu090Ieko4NxOWjOtLRXXSGUNhYaKtppMq3d406NX1+nAxvnUp5qpLF9MFnLXpR+XbqYDm35KMa0HJspb5wppLdWZVp67RSfntZa3xQWpCreiWUev05ml7WJlLU8jGjbnf9S2aLSs5aFGP86gMa2LkbCUSGx3GwymX8a0iiOfDel/uz/etv9bRyH8wzLgi6J95IvHeUqimBHzIUMe4erFG3gcYoQClWriuyIJtyJ7C7+z3rgbVQQ165aDleItfNnffpqyqGtXVNztIPzRBRy/9h4Fa9ZFpTyf20sbgYe3n8C6bImPd1LQB+P2nTCUKlcgZg5nDPpUpuutH85630VUkZqoWzocDx9ZoljeYFw+exmBxmVRu1ZJCCO7nI9RxJ2q9tli+wF+3mcRYFAMFSuVQK7PFZt0JH3fk5MWPi3vIxF0/zqu3XmC4HAFjPMUR+Vq5ZHf+OOKrH//ABf/vYHnWguUtLVD+VToq0+5JrOQ3rKclfPiWyFz6Cc93j+4iH9vPIfWoiRs7crjU0VBe2kKeu1thfXTqseu74iL1h+XbxiiSlVpwbUIswVuXnqOQjXKffSR2JRlNOW064LvwNv7HsLzf4e6VYzw8LwvULQCSuXL+bHtkQxfrqz0eOt7Ft5+GpSta4eikgGEC8ev4X1BZutUyiN/eiAzkJXS+m3yVRwPDudTyC4GeXZ5z8wIz/v0hefnt0fWL9M3uOS+AoeVzTC0awX4zxuHI63nYJiwg+U3Bq9/nMwI71vncDgcDoeTLdA9WIeRrj/j5/5TsPPRMWwLqokuJb89p4PDyaxwx4PD4XA4HE62QJW3Fhy/s4Tyw1FM77EDxXu1/2hROYfDyTj4VCtOliG7DBvz4fGvB8/79IXn57fHN1Gm+lC8eBQETYHCmWp9X3rD6x8nM5JhjkdcgedwOBwOh8PhcDhZh4xwEfgAI4fD4XA4HA6Hw8lwuOPB4XA4HA6Hw+FwMhy+xoOTZcgu81X5vNyvB8/79IXn57cHL9OsAy8rTmaEj3hwOBwOh8PhcDicDIc7HhwOh8PhcDgcDifD4Y4Hh8PhcDgcDofDyXAyheOh1+vlXxIJ/+Zw0gW9DrokRUvP5E7+mVVJp/fTR4YjPJLXwU/h4zxmZaKTf3I4HA6Hk835eovLI/ywe8ZYLDgWhoKl8kET9gYRuWqjU8f8+M/bGpN+bgojOWrGoEfQhXWY9tsmXA3SQ8gEhboAancfiqE9y+K5x0q4bTiMeyGSJaFQ5Ua1tl3RrXM71MjL/LW317FnzQr8sc8HVKEHpsxwha2FGJWTQXzqQjn9+9vwWr0Yi1f+h+p/nsJMu9gvRukDT2PZpGnY+iA3CkZcxqXI6ugz+VeMblYEBtDi6pLvMWLnU2Y+fowyd0vM2tgE51xHYOfTRGMgd8tZ2DnGTv47daT1PZN9v+BLWD/5f5iz7SzuB6tRsGZ7jJg9F0PtrRLtddA/34netbrhWLP9uOfmBEP5fHYhzTIWeh9HNq3Eij/34up7a5StWBoFzVn+q0xQvE5T2Ia4Y5/Z71jQxVi+IDF0eHx8KX6bvwc+75i+0dhh9K45aGUqB2dhksxP/Qtc8tyPA547ceReCNPGLK7GAvkL54KRXovw968RGPQBWnaNps44/DOzuXQd56uTHguW9U/PY7fXQez3OArfUOkeCuMSaNi+OZo2bQiTG/tx0Gs3vK6/hk4IVmiQ384FrZ2bom3DkkiyNuke4/jS3zB/jw+kqjQCS5s/xJKsWrfe38KBP1djzc7/8IplhKb6CGyf3xaWcnBKpFhW+uc4v/sgrgaGi3UtBoUKRhbl0ahFbtzbcwZ+IZHQxw1WapCzcC1837yifCYD0T6E52+/wP1+frT/eRI6ls5urdI3CBPGL48ugLZ9X5QMS/Slfaw2SUSQ/4GJ5GCtptzf76Iw+axAxNUlNH1TAEXHTD909NDNmcwVot9BqoL96EC4HMTCHq1tTVZKKUxp2Zm2vpeDognzpD6lmtDvD1iVTTURdHXJdNoUkP5v860jlEP0kRrC/I/TqtFtqZKVhpj6JajL0dh/I+RQxvtT9LOtCSk0tWjmHVaGwbvoh4IqUhiUpD47n5JO94AW1DeQrv3oUJJ1t+0U9GAB1TdQJBLODqU1ddv+Rn5Y6ol7j+RI8f0ibtDCRrmIORjx7qnMxWRWeN+EaB/Sepf8pIKKCg88TDFVIRsRN59SIuTqSupW1oSUSguqOdyDmAEVg/bFGVrUviQZKozJZVOcgCQJJY8eVlJZGTrTqlfy6SxOSvkZcXwYlVBL4aqig+lIjNBp6fW1rTSmnjXlaPmHfI6TGUipTFNPOP0zuAjTN8K9VFSwr1e8dl97ZxbV1kjPURg2pZWBckBKhHpQDyuleJ2h8yp6ldXrVvhhGmijEt/HwGk5PU+D6RBdTsKRNBH06K8eZKOS47J2q80q39iy0L2hC1NqUw7ZTlJoqtLoU68zwB5LnLB9rpRftMMUZN7pLwqRz39JdM8v0u61v5Br8wZUv359djiQY+su1KtXL+rZowu5NGtEDg7CeUf63/70SOE78vH6nUa0a0gOwvMcR9KuIDnoGyCxTs8MR3t5OWb85Q+UrIGazLKXMICN8zRs/b0TrHVRYg+YSPhlzB/6C44ERson0hMlinQdgLb5mOpj6F4cx9/nI8TfQljhLsPQqYgUpn97Avv/eS/+jkb34DoCa7uiW1EpTmoIvzwfQ385ggx5HU4ctHjx2ggOQ35G96qJ9Y/p4b9+Kpb8FwJFzmIoxbQuLJzQsr45FJF++HPsbzjxwhtnrylgVboWnFq5oH2HDujAjnb1isFQaYXGLo2h9D6LaworlK7lhFYu7cXwDh3aoV4xQyitGsOlsbn8vPQmpfcDXu9aBK8Ss3H8nj/unV4D18qmEPq/9EFHsXTVOcQXQS1uu/XHqD3PEh3d4cRHd38DejYfgi23PyBXi3nYNt8FJeIUgypPHfy0aQv+Z5vacVsVTE2MxfLJTijNzWGS6EurkKtSJ8zaMgPOZtktV7ILKpiZm8ojrwrkNDOLNwqrsIgjGwamMMsp/04JlSlMjOPKTBavWwpDGBlkZOoNULBuTZSINmNUNviudpHYGSdKc1SqXQkxplrOcrCrnivREfOMQFO+HuoVNoRCkx91HSpn8EyYxFHmtUWbPmPxfcnHOHvyJE6ePA2/Qv2wYt06bNi4BR6e27F0sB3o1lnceKGVr/ocTFGuWV80z+OH08LzTl3Ds29o+vOXkp14RNzyga+WEHl8EcbveMhMnmiUyNtmAFwKyxmsfYhtg7pg2um3oqudIZg7o3fHYlALv7X3sX3DYYSIAQzjevihUxkpTB+Ife6eeC0GCGhxY5s3CnVqkephT+3DbRjUZRpOv82wt+HEoEaRanYoXbQK7CvnZU1PQkJx+th5iKP8KpVcEYxQrlwxFpdYWe3Cpo03YDHJGw/ueOPwXg/s2L4d27e7Y2ydHNBbOTGnwghXbltgkvcD3PE+jL0eO1g4i+M+FnVy6GHl5IIM8ztSfD8dgvN2h5tbX9QraYOS9q5Ytrw/SkvCjNeBgbHOPSPi6nyM3PEO+TTcyEsRfQA2jhqN3QFaEGukO/3UHUUS06RG1fHj8BbIxbM0zegf78aOUxFQ5ndGu4ZW8llOdiO26iiynVP+RVEq4xiDCvZngtxWR7eRLJTFTX1X6+ejKvYDtt59gZeB97FvcLkv+uz4KGFubpK4HKpyoVKnWdgywxnp10+igKGRwTcp91/F8VDnz4fc7MkUcQt/dK2BWr0X4PDDcCnQ0B5jx7eAUfB5LOnsiJ4b7iKCdPDbOQH9+w7AjH1P8f6mB2aPHYGRgzuhbsXyqNF8MNz+DRINKZ3/ESwcOwD9+vZF3/5jsdEnEi+OzUY3+4qo1nYBLkUPaMRgBPveXVFRNLh0eLZrPfa8jDbJVMidJzfUYsnrEXzIHR5P5bDIC/jrYkl0dozthkk6Xeza80tY3J7YcDcCpPPDzgn90XfADGw94IYBzRzRuidL74hfsWDMKLjd4X3O6YlSlVjVDUdoaKQ0dhweilDR+1UjTx557YPuJe7pOmPB8GowEf6OJvIKdu+7B3PRqdDAduQCDK8WLwaLshv77pnDyaUxMszviEPi76dCyQYNYnuxGIalS0EcwFOoUZrJp0Y6zXwwb8wYdRqN5w1CGdEx4SSH9voqLNn/WtQ3Skt7ONZKug/OqsVIDLSV1tzoA8/CbVhbODp3wg+dWqHtgLnw8pP1XhIkd03adV3WIfjUfhwPZHpQaYMefVuJ55LOCz2en1qGcQP6oa+QF337YeiUdTh7/QSWjWP5038Efv3rMoLjetqcLIwegWfdMKytI5w7/YBOrdpiwFwvpFCVZAjvzy7BiH6CnEiyMvw3D/iEsrs+88YfU39k9ak/Bg3qh/5ynH4/TsPGS89xZ/cvGBZ9rv9ozPW8jdAPd7Bn5gj0H/g/rD4XBG2KdTwVaY9gBvavP8DRrgE6DB6N33b6IdNX5YiX8DntBY9t27D3xC28julN1kOn1SIyMlI8tNG7n4Tcx2nP/bjwNDL58CcR0GpZGHLA1FjFwqVg6IJx+8Qe7NhzArdZxY586IO7MT3GjPBnuHqEhXscwNm7wfFG8fU6LbTy8yLZDYUn6oNv48QeD3hdeMwsg7Six+PdO3AqQon8zu3Q0OrruUZZBnnK1Zcl4jLNqGUSb+68wrgYNR6xgS4HSzMHtY+8accsFyoozjvUUAXXFbR12w7y3DyOapobUI0ZPqQlHT1Z3piMFSClVQtaJa610JH/QgdiTT1BVYh6zZlE9XIbErPNCBp7muuX2Nz2ezS/fg4pPQoTclr6UJq/GPUfTW7WhtrZ55TDcpDDAj/2XKKwI8Ooxc//UvSM+pCzk5NJVwQ98t5Bs1wKSvNZNRXIdcVW2rbxN+pooyZDp2X0jD0w/PZaal+0Uvx5+pwYomUlbWIbQWdGlyFmTydYAxFO/wyS5xdrbGnqtSjxbNDqZmQoPkNDdr/eEs/FJer8eKqoyU1dtgbLZxISRefHVyRN7i6UZJQUSNt7JvV+HxN1cQJV0rC6ZuZES+9H14MgOjy8AbVb5UvaUHdql1NYr8LXeCSd91rynV2HmNMmxtHYTiVZdJIn+AiNrmpCSqN6NO8ey/t3B2lgMTWp8jShxdeFMgunwwMLS/IYPQ89xWs+Qdd9YVLKz6jLk6iKPI8/eo1H+P3t5Fo+L3XdHmdtTIp5EUZXZzuQuTgXXE0lhhyhUHpPe1xrMNm+GW/tAOfzSKlMU4+sK8V7qan0yNMx7amA7oUbNTGQnqMw7Uh/yeIQfGQ0VTVRklG9eSSJwkAqplZRniaLSapKh2lgYWlNhLTGI0HdCnxBe/oUk/5m7X2bDbGKOnRXTyrdeg09DNxFveR7qMuMojPCfZmdsKCBZAsocjSlFfJii7B9/ajOwAP0JkUZTUXadU9pe8+ipFGoqdyo00yGI+jW762poJG0jjBj1ngIj/2dHOW8hqY6/XIzvu4I/2dQzBoQZa7u5BFdoXSv6NTczlTLoRfNXL2KfutRhUyVSrKoOpB2PGT30D6hY3NdqKi8jktTayZdv76GOpUwYvmooBz1J9Om2UmHG9UaQlO6lGH5IYSrqOjgIxQeeoHmOOYjy+r9afHqefSTiwNVKV6Ppt8QFLGOnh2cSA0L5qCCjceT24qfqXFBCyrdajr9I2aclh4cmEiOeaWyhUFDmvzHKKrP4iuFZyhNqerow6xVTIwoujypiiyvclrE86/Ive8Q2hGjrnT04sxy+rFNI2rasSd1bNmG+s/ZT75hWnr4zwIa078vubq6Ur8xf9LNiOd0dFZXqlOhKrWZf5b8PGdQz0Y1yaH9IBr162ZaN6ik1LYbONHytBR8JudzNccno324k4baWkiNpFiQwsEEsUQ7WnrxnRgn4sxoKiMKpAHVX/CAFWcY7euTT1wkpi75E51gFTVm4ZHCgjpvk0r+3bpWkvGoMKI8jr/RxaA7tOWnFtTYdS3dStRI0NHTNS3lReYKMqjxCwkyHPrPMGo+7gw9WteGLOTFTQbVp9P1qHe0p18r+iXG4khNuuIYiAb1acEDHYUfHUrFWGVWGJWmbmuusWaSOSzrhtLEo9nR5EuZWDlJi9gmbZhH/PcL2Zkwha4wpJrTr7KYOnq0qIFkyDEns8WahKsQo+jCzyk4FVEX6OeKGsrdZSt9ot+RxvdMreMRRdenV2cKPCdVn3xONsR09Hx3X6rf3Z0eCTqNOx6pyHvBYbWRjBZ2aOrOoxgfLkki6MLEKmTA9Iu6zGg6KxbRO9roIhgxrJFu/Qc91SV0PFJzzafoui9LSvkZ1/FQmpYnp1Z1qAgzzAS9Get4pC4vKPwiTbYVDBamU80dad6O6dRt+D4K/Hba60xBSmWaeuI6HqwcK7eiH3r1EhfsikfXulRINnZjHI+ICzSxirDhh5rKjD7LJIPxbiO5CHpLaUGt/3hKupQcD6bWtX6LqKGg+9lzLV3Wy8a8lnxmdqChB4TFwYKRWVUyeNWladRp4UnvyOP7fJLNojCjFqvZs4Q2YXJXmnwhNGUZDUs57WHn/kcVNOxvlQ0NPCxr4NB95FowIxeXs5YgnuNRiYbt+Y+uXLkSc1xY04UKfOR4MCN/UwfKKzgaTktFR4qCVlMzQyGeigq47pfambDYxf6aKh2pd+tm1M7BhuUts6dq/ko+IcmHXzk+gkqLdqBg7B8mvxXOZKpQUbH+XlIbG3KeptpXp/+xtk97ewk5WbJ7aarQpMuCAmTt3jRbJmMsjY0WkY+oq1/RKmdD8XlC21+s8x90J8SfljWWncqczWhVopmcmOMRTve3u1L5vF0pWl0l61yG+dNCBwPx2apCvWjOpHqU21AlPlddxpaKsrJXlxtFp9m9Im79Tq0LSvrsW3M8vspUKwFVkXZYeuYy9s3shmq5NfI8NkKY3y6M6DgS+4PFEwnQoFKTFqiUNzdK2NnCRhWJwBev5UWy4Yj4aIyMUKFND1SzLI0ui/bh0Jo+KMsstI9RIn/7XmiZR8gOQuTlTVh/7jn2uz9Gg152KNy2O5qJK6tY2JWt2HR8LzxeOaBL+eibpTVdEirrPMgluNnhd7G5f13U7rkKz1rPxUR7vl3cl8Cg2nh47JqBzjXyw3dxR7TqPwbj/ryEKCFQXRa2NRJMlNJewW7POzBzdEGTJLZO1l7ZDc87ZnB0aYLMtLuyPsgLC9ZchbnTr1j3c01xgZ7+8RaMnK/AyAVdUPiraYKsBjMbNNH6ihH+AR/kn0mivYZdu30QyZobhaUVpJF4DUxNhQWverw97okj78SYsaT5mtTqusyLwqoBxm8/gxsXNmNA5Tgr9VObF4a2GD61O9O/LDfeHsXPo/3RcVILWHPZzgIokcdpHFatW4d18rF2UXeUF8s6Fu21XdjtI0yRVcDSykqa768xhamwmFz/Fsc9jyBhVUoMVfGeGNwmL3uqHm8OrMAft3Xs5jex82YZdG8kTJ9Wo1K3zrAVFnVr/bBj0wmEBh/EEVUzyU6g9zi+1QNPws/D4145tK/ok6KMHvJOKe2H8N/Bw7gbxW6izI18eeWXV5vBNEeMxsl49MG49c9ueHh4xBx7zzzAB5as+EThlvclvNKzPDzxF3b7szw0zAljcW66Dq8ePpCnN6qEZZQiUT4+yPPzLuw8dAJeKxZhw4rBKMMCkw3PYchyMhodHtz2Qxjp8HBNDzT9aTvuqmwx8pc+KGkQjn8WzsMx9lCFpjhKlxIUoBrFSxWFoUJI4wIsOSoYYwZgKlxCXRmuU3qidM68KF1CWjBPkQHwf5LSvEzC6+Mz0dG+DCp3Xotb0XPhIi9i/sgluBqiRBG7OqIuMq1jj6qGegT+MwUTtkTATF4Eon/lhb9zLMTda5swrFlNlH9/Ff5RShRwcEZ1pv4MyvZGf+fEt73P6nyVd4r0uYRroeyHYVE4j3PHxTvn8ecYJ9gYCQUiLOzdhrWJeh4q2HRegyvPn+PEkHAsbFkXPTc+kBanM+f+o3qhsEDRYtape0mLZujdvoikDLS+2DJnJNzDW6JHaXbGojm6t84vh93GxsGz8a5xJxSXK0ua0yWjLt8PE38oBfG19e9wY+MQODr9jKNvUhJ6TvqgQgGW33+de4DXr+7gb7e+qKgOFxsGgyou6BDjWEporzKn4rYZnJJ0KrS4utsTt82c4JKUZ/I10Afh7wlj4GE2ABs2/YiKol8biQu/z4TXk8tY0LEhHBwc4ND0V5wWnWQ9XnqOQbMxe/FW+JMTBzXKlC8FwR4R0D97jMexu2MkjtYfD55Is4wVRkZSfWcoVZJmorAAPHoWdxYyI63XpEXXZXJMynbG7IltYx2GNOSFZbMJGOdkwfKBEPXsEi76ZuGFLpyP0Po/gCQKChgxWZBEQQlJFAhhAY+QsColjiVaDe6B0sxIpvALWLPsOILOuuN2ha6oLi3JgqpUZ3Spk4M9Q4fHezZi27ajULX5DQNaF2QtB+HD6W3YvG0HHlZpjwpIWUYfXvNLIe3+uPbwGdO+AiqopcWlXx5lPtQfOBnTpk2LOSZ0/y6RRdOGsB8+G2O6tEaXcWPQseBrnN92GLejt0vURUmdeHFQFWyAJlVZA2RQFE79h6FLNaGuxpJSuJAvpW0rwYydJNaunV/aFbXqDsKevD/AtYIPjpyUvrmlMDGHuWyfKY1ySPpa9wxnjt+QTkajMIW5uVwSSvkCikREijtIKWDVYDy2n7mBC5sHILqfJGXH+HjsGhKqgDY9qsGydBfMm9MCmpdadp0SufNFbxajhpmpIH/fHvHL9AsRdmEV3I7FrgRS5qqKHnP+xrmdg1DBkGUzheHl80SHPJi95IutQ+1RyWE8rjd0g8eYGklsx8hQaJhnm9piM4ZD764oLy8yD9h/Apad2yO/mEM54fh9exQV7VAdnr8sjtbtCsbPvLSkKxpWwduuOIpdExuhoPhcPd5dXorhs70TbHXK+RJob/yFnVeYFakqgI7jBqBCPL9Di+vMqbhl5giXpkkNd1zHbs9b4ohIUlG+PHo89RiO4UerY9mehWgujuoJzv8JnH8djpAHF3FS3B6QHad9ECh+rYsQHnAFZ68/43L4EUrkae6CBnIrrAu8gkt+KVg6CmPkzCkrA4VKblSYuETJHosiJ0wSKou0XpMmXZf5Ma3jjAZ55LdOS16oiqFT94aikUQR17Bs6no8TJUhyskKKIxzIlYUYiQBsaJgknK7K2NoNwB9Zcfi4ZZZ+HFZAGp3KcfMPRlVEXTs6gBTdj/9i9343woNnBvnQyNmCxRnkSjiLOb+fA/fuZSBKhUyamppkmLazQ2ju+LD8EH+sGJmxqBkR8zcsgkTK53HT9/VwZjLKuSKzsBEkq+0zo988drV+KQULurfLnOwsHMJybkjHYIvrUYvx45w83mOl0GSw6DQMH0YLQfijDMBPYJfxe5LmjQsfqqz3gRlO8/GxLZSp0/KjvETvJHvrbAoimJy74ruEXOYZV9HpVZ/k85GXOLZzl8M/TPsWe6eoEFQIp/zRAyqyyqeyhplyuVjp+JsoScWViTOTe+AXsvP4U2Z/pg90jamIqcH6mo90aOmofhMdcmu6OscO9XGyL4HOpURlIISVs7d0Eb4enkMqUuXMu5XRNmhf+qFHadN4Dz9EC54TYZjfkHgdPC/cyfl6RucVEMxn1wV1jTJPxOivYvV45fjSpQhyvZ1w7x2eeJXDu0N7GJOhWly06xu7ILnLdMvPs0quffT3l6Jvj8dR3EXO7z7ezXc3Nzw+4JJ+L7Pepj+chmvgoMRHH08W4s2Qs8MazYLue7B4529YS3dhhMHZeEemDC4itTwaa/AY9sNaXQzEUJvnML54Kqwt5W+oUJhIQgRy0jHDAthdI3pmuK2qBFPnzA036X9mm8IZYFWcKkrTzlNS168OYr5fxfF0PZCr7Qebw7Nwq9/v5HCOFkezXf2sBU8AVbyYSEhYvlD9wGh4aIkoLhtDaS6WqiKo+fAFuIOm/rgo/CKbIKONnEvZjZJ225wtBAifIBJXRc0zMkcltrd0bEsswWY0RtWyhHtha0DUyGjdg3rppB2O9SuXBpC3yu0T3DPN0yIwaB4Xw3PVIRewfKO36Fm1yV41v5P7PutEaL7CxJFmFYl/0yUlMIF1CXQc+Np7J/eAkUl7wO6539jxmJf5BbKSiTWdtRHRUKYvSaUp2XujNia2xR1nBuI752yY5wTslaL7xwZGsRMJwv7ECrJxjdMaqtoOkMI+nsCes88G3+Lw3A/3A8gWNYfheFNjaEyMxN7G8T4r17i3dVFmLfzJoR6SpGhCA17jXOnr+GdfI+IcGkQKyq6lFnDE707W6pQlUL3ng1hqjRE9R9cUStaQgTU1dCtcxUYqPKjVffm8b/dofPDkcM+KaRLBTMzSTGBgvDq5Tvc2L4Z8/83D97vVcjvNBVbpjdBDoUa5WwTbOHK+QwI79/JFZnCEJJYL1LoTWxwbYvR/yhRe9RW/L2sFfIlqBnaGx7Y68OcirZNk/huixY3PPbCx9QRbZum9ssu6UEy7/f+NKb0GIuDTx/j4OyfMHjwYPH4cdQM7IosiWrWpjC3sIBF9GFmhOideRUaY5jllOcccBJgjDpTNuP3DsVZIxKFK0tHYMFlYe5oXPR4eXoOeo3ciZeavOgwohfKGiigf8x0nDD/QPcIDwMiQUpLNBo6ADVZVkdGyT0xFIUonXWqrvlkXZdJ0EdEGwUMZiAkOsKmTF3+CR1au8b+DtXQGZjyy0+oLTjROn+4T12My3zGVSZEz9pGYVqKALHij5J/y7B2M0YetFEQZr8o83bAiF5lYaDQ47HffXEqj+7RQwREEpSWjTB0QE0YsKtiqxKrS+y6eHVLOCGihLXLEHQtoRZlrPUPbSAPCMegtG6J7s1zQ6kuCZeu9tLH69RVmS1QlaUhB+q0bydtUZ4KGa1VOKW014KNSy+0ENeQvMORDZvgpw2Fz/pF8BDWTwhERWSirXUj4f1LDwzf6Ytw8+YYOaqObK9lJHoE7lyGjY+s0WjiXpz7+xc0zq9idpUeQYHGaFg3n+i40Ido54/ZX+9DxLU3UOVD7frlpZPpihIFWrlA6CdJ2TH+DvLMrnhoylVCacnjxJN7vohxOTOtx/mZyIvMvyhv1nWkKi5jaHz/ttS03RD6dcVGcl87l4Y6lqfK7WfTiehtSLS+tK5jEWLlQQq1MRVymkrLh1WUPt2vMCAbp3G07eQqcskt7IigII1NG1p6YD9NaZpf3ipPTTatptP+e2nYn+f1X9SlZEtaHfDxDgJavwXUsPxQOhq9lVwMoXR8dPLpWnY1jL3OOupYxJCEbeLUxoXIadIEalWsAtk3608zVq6kSc1sKK/9ZDr2DX0aPz0RxDX6SBkdPb+4lzb9PoIaRG+dBxXlbzSG3LacpPsRRGFPL9LuRT9Ssyplya79GFpz9hklvhFQFF2ZXJU0uTrQ5qTKJuoKTa6qoVwdNiexFV/qSd17pvB+Yc9oh7gtY+y9Yg8lWX+/i0ltAviuVvHyKUW0L+is2xBqUsaSDC0qUNsRs2nlRnda7zabxvXrRj1HraZ/X0XrkTC6vuZ7qmiRi2oOWkKrprWhYiaFyWnyIXqu09Kjo3PJpZha2sFEaU0N/7ebboUmdw17/MPDn6frvgBJ5qfuOV3c/QfN6FBa3AlICFeoC5HzhJW07Yy/uGV5fJLLCx09O7uBpnSqSGZGVajf5v/o6uEp1DS6XihyUuXeq+n8629nV5ivSZJlmgZ0Aedo55pp1La4RpJ5oZ0s2oomr95B3o9e0fUDG2l+n2rEbDjpWcrcVPfHpbT52D0KDbtOa76vSBa5atKgJatoWptiZFLYiSYfek467SM6OteFiqkFPcZsfusGNPiXMYnULTkhwk5Ws2pTzhKJtesSIftdqWiVCXQhTuOg9Z1PDtbNaGU8OyH5+ipFSSbtYgQdPfUcTtUtVaRQqMjYogBV7zeeuhZXMzlmfxesT4PWXRRjpobUlpXWby7VlXeXg6YyTbwYvyUM8+xNecWdPYUdxjrQFiH/dA9ofj2NdM64Ps32eUO+21ypnIGU95qaM6RdpMJ2UDdhpynh3HdTPt5+PIXwiFOxu1oV7OtFz9e2ptJdN5OwW69Qfrd+s2PtnBHZ/XqDom7Opwbmwq5WdvTbLSFCBP07rjypxV2tFpKPeO/XtKqZvKuVQX2a/0DI+XA62F/+3IG6BA0Ttib9iOh7RaflQCJt5Hs6Nrwc02ks3NVL3NVL6zODarK8VVo2od/vBcY8W1XAlbyib6B7Ru4d84o7oypzOdNy3ygKubmSXArJcmvgQAv9vx399ema4zOI8r/HDCPpt+69P/13bD/t8TxCFx4KG8omhAnzmQPkddyHXglypHtD904doIP/PiBh0zuBMP/zdIBdf+1FYsKSVsLpwS3fmHvHQxdEt3wCEmkUGalN1xtfOnPAi477vCKt9gn53g8lXegTunjYk7zO3CP5MyacRBAVhXx8PqHke/YwnbjoS6/TQ2zSkfR9T05a+LS8j6DXfhfpmNdu8vDYQwdPX6enoYlXZN27+3Tu0F7a43WSbqZSX33KNZmFT8vPpMnKefGtkN5l+mno6N39c3Ro7x7yOnmTPkcUoi5Opu6TLyTR6cSIekj/XX4W3zZhtsCN8z7MOvmYlGU05bRrg27Tqf2edPi/AArTvaZb3ufo1rOQxG2PZEixrJjBe27naprRpbz43TExrsKAireeRG6bT9HDd7fo8J+L6SeHvJJRLhxKK6o9cD6t3/8fXfyllvztHAXlLNOOZv9zlhY5WogGNJSWVOt/f9GumW2oSPS2yDnKU/f5h0n85JoAs4GOzk46XPvoKM3rUEruQFOQurgLTZ/QikqWr0n1242g+SsXUv8aVlSw8Rz69714BQXs+x85iN/xGEe/Lx1JDfIak02TyXRY+FgaC/fzHEcN80iOjrCNsf3ofXT9nBu1j3aC2fuX/341nYvpNGLZ9Pwi7f5jBnUoLWyHLKelkDNNWLmNzvgnKJUkncsAui90iOSXOkQUahtqNX0/RfcV6Z560vDqlqRSKEhlbEEFqvej8V2LM0dH+Lsg1R+0ji5+6h79mQyF8A/LBA4n06OIu0bmGxbb7PKemRGe9+kLz89vj6xfpm9wyX0FDiubYWjXCvCfNw5HWs/BMGEHy2+MjC+rUPj/ewLXQgujZr1KyCtMeQzxw6mj1xBa0A4NbAtI09PSEd2zu3hgXBJFtXdw5uwdfMhTFfXtikLYBDmGiOe47n0R94IVsC5TE7XLW8duGvBF0OP9g4v498ZzaC1KwtauPPKkZuayLhh3vL1xLzw/vqtbBUYPz8MXRVGhVD7k/IbEkzsenCxDdjFiuLH29eB5n77w/Pz2yOplqnuwEI3KjcIpTWusuzkE91cEYciMzh+t7/gW4PWPkxn5Bqsah8PhcDgczseo8taC43eWUH44iuk9dqB4r/bfpNPB4WRWMmzEI66nzeFwOBwOh8PhcLIOGeEicD+fw+FwOBwOh8PhZDjc8eBwOBwOh8PhcDgZDl9czskyZJeFcnxB4NeD5336wvPz24OXadaBlxUnM8JHPDgcDofD4XA4HE6Gwx0PDofD4XA4HA6Hk+Fwx4PD4XA4HA6Hw+FkOFnf8dDL/3M4KaHXQZekvOihT0GW9ClFkNHrdF9HLJN9P0YqE6WPDEd45Fd5gyzPxyLCykQn/+SkG1w6OZkbLqEpk4Y84tn5TfHlF5frAvDvLi8c2LcTJx6EQXy4Iif+z95ZwFWVfHH89woQSVGxW8TWRUXFlrUwQBRz0VXC7lg7/nY3irj2Gquiq2KtsYodKCproRgYKBYg8Hjvnf/cICUVjPV+93Pdx43JM+ecmTszt/6YLZjW3JS/JSm68D0Y3XUhLsQIyZQbW8HeuS0cWpbF5YEOGLQ3CjXH78L+8XWTfzL/I9S4s+d/mLz0FELjCIoSXbF8jSfK58R39KPu4Njug9i/Zw8uv9DweZQZ5kURczkiI7UwLFAGVeu1Qsf2jVDKSHgkW4i9Dd+pk7Hs9FNoSIFSv3jBx60c/itf2v/UhXK6iFvwW70Yi1ddQY0NpzDTVk+8wq6F+WP5hCnY9iAvCscG4LK6BnpNnI4RLYuDv0sXBv/lEzBl2wPkLRyLgMtq1Og1EdNHtETxxGAYOkTc8sPqxYux6koNbDg1E0miyRJZzWd6+WPCiJtbJmKk103kKamHRw/N4Dh1DoY0KJDqqIPu+U78Wrsrjrfcj7te9tAXz/8oZFnGou7j6KZVWLnhL1yLyAfrSlYobMrKX2GEUnWbwyZyM/aZLMOCzobiA6mhxeMTSzFj/h4EvWcWVmWLEb5z0MZYvPwdk2Z5fqKO1N5Zg84tB2FvVE2M37Uf4+umr/Ulsp/U61SLp+d2Ye8BP+z+5z4+8BWaCxaFTKF7HY4ouRH7bYWarX5Bb8fKMPvWhzx1L3F+3WzM33wJLzRCHuVmldCqvQNatGmBynm4DLB2e3oLtv+5G35XX0FnXA7Ov02B/a2BcBi0F1E1x2PX/vH4miKaoT4T/bFDfr44HhwltEM9cxQuYg49XRw+vHuJl29joCU5LB3n4Y+hNvh8l0mLO2s6o2WSMrJ9fQJLZ8zHnqD3zJKqYDvCF3M4Bai9gzWdW2bBz0sbbeg5+Podgp/vcQRH8TmFnnlhpnP0oIv7gHcvX+JtjBYkt4TjvD8w1CYnnEMJHiaMX4Xofb2pkJyXc3bIyKy1Dz3VihcT0FLIsmZkrq8i1nzYfUoqN/w0xXKX3m+m9sYy/llV7Zl0S8M/kD5xgTT5JxUfp7L8KDrHB5Q2sdeW0NRNoSwVn4KWnq/4mZgLwsen38KbXrGzca8u0Zre1chULiODIk1pzN6HFCc8kC3EXZlAVVVcnCqqPO5itob9tRFkRTgyQ/TDE+Q9wpEqW4jyoyxPo5JWesQpGmtjRDJVbZp5mwnQG1/qUVhBMr0y1GvnU1aDEXRqrA0ZyVRUe+Zt0tAb8u1RmBQyPSrTa6cor9H08IQ3jXCsTBYqTh4zJ1vpkdl8Zpg/luKQ9c5UWKlPDRc8YPkJp83O5qQwsqEJZyLFe5KgCaF1TgVZl1VBRfscoRjx9I9EZsueI/LaKupqbURyuRnVGrKL7kWJFxiaF6dpkXMZ0pcZktOmJBfSJIp2dbdg5p3Frd+CvDll8R8g/fLMuo58v7k9GcvY/XybvMUkXOJLk26dRu+lXgXlwnW9xrTkCVOSkXfJd2hNVp9cveUia/ddqdj6b5H3dNCzFNOHXF5lpP+zFz1PLd1hq6iFaVUaceI1++M9bW5vzOtj3q5kyjGJpWtLptKm0OwvlHTrKgnRB9ypsEK4L7n9iqZHJxaRS1lDKt7372yyCamXUdSu7mTB+4T61CJeAX6Kn5cu0XTAndlwvkyUVH7UOcGf5Ih+RCcWuVBZw+LU9+8s5jT2Gi2ZuolyoAr/k3y1cQe5qRnKVrSGOZ8Cwru/12Lj3RRzErS3sHmnFvbN8oujszKYmJsLI/jG7THNZwLcew/D8sWeKJuZYX1ZbuROb+AxKTEBmD/gfzgaphZPZBU5jE2NoWStKylKCxv0WvUnpv9sDvWTo5jl4oCRf78Rr34+MkND5BJ//9ho8CLcAA37j0W3aqlVug4P103GkiuRTCxKomwxJkBm9mjdwBQydTA2jJqB47fWYfKSK4hkclOybDEmd2awb90ApjI1gjeMwox/PrBoXiDcoCH6j+2GVKPJMTLKH+PDP5g7ZTdCiRuJL8gk0gSVKpaAPPIKFk1aj4fJXl9rcMvLA8P3PIM0MyhjtPfXw7VVf2y59QF5HOZh+3wnlE5SDYr8dTF40xb8ZmMgnskIBYyNDJmG+5HIuo40bj8NPhPc0XvYciz2LPufeZv7n0FuBlOjFG5F7jJwnDkPPUspmamPxq21v2HumU+1q18SY9gP8YCtASegBPX5vfjr+cdzftS37yCm/SSMbWjO/jJG+2k+mODeG8OWL4ZnJhyTmID5GPC/o/hkVyMbkBsZIXeqyscARRsOhs/yX1Eq2xpb6mWkMDaCYco0fIqfly5yGBnlTl3PGhRFw8E+WP5rqSzqlRgEzB+A/x0Nw/cg1d8CX63jwUVt+nNfdC8jvM6i2AvYsPZSsopTX9yAwwVd0aFAopgk/jJAeZcp8PaZB/da5tmbEU0ItvftjCn+7/ghgM8hVQFXlMGvg51RiEk3Rd/E8qFzcD5WvCaRTShRvLotrEpUhV0Vy1QUSRT8j18A/8ZVoRDlh8lU+ZLsXmIi4IuNv/+NC8INUIgCZlC+PEpy9cZkxHfLScQqi6O6rRVKVLVDFcvP1opZIKP8AbHndmLfQ9aNkBnCMBcniazrYcrNWyFEnt4NvyRGNPbafAzb8R4FVKlKrERSdKHYOHwEdodqQIpicBncDcVTU0AGNTBwiAPySEWaLlnSkQbl4TLFGz7z3FFLGLWS+NZIrUJVZVGmmFhfTHcGBr7+LqbtK6x6wKOFGW8fKOIY1m68nWJg5gNO/hmMBv3bgOt2cBiUd8EUbx/Mc68lDqymjSZkO/p2ngL/d5/raeQEalze/iduaJj/36ALXCoZpd5WP4HMl1EO+nlJUV/G9j9vQMM6RQ26uKCSUWZzqkHI9r7oPMUf32QVfqPkWD1mCj0b9PG0E3q5FIdbf/jgaKRwiXMMj224gKpubWGaUgZ0T3HKaxz6ubvBzc0NfZeeZn1OhjoEB+e4w6GuHVp0doFDc0f8wq5z97j1mZHM0eKcr7eXvDGwVQ1YW9ug1ZDNCGKB6N5cwJJOTeG6/g5iSYvgnWPxi4Md6jbvIoTj5o4hM3YhKIrd++wsfp88EO7uQzD7wEMx3MxhWLchavFDDIS4f//AusMB2DFtMNz5OPpght9zaF+ex+8T+onn+mL52cRu2bvAzRjbtT1cOjRB9eqN0XXyX7ifandbh+envTG+vzuf9r6/LcZR5oy+u7QKni2boq0rC3vodCwYORxet/+bY91yRWpKJAZRUWq+Y0kxUYhiypVz5vPntxAahfYlbj94A7VwA7uXvwHK/PlhIdyAl7eD8CxBpORINZovQOr50+LBuct4ylepEnoq/iS7V8EbD4oJxIXLosBEncW04f74eV5flJOmtWaI5ro3luwP5x0nubkdmtZO+62GhcMw9LER1tzows7Aa5AjmrZwQQ+XNnD0nAu/YF5zpUl6z2gfHsXCUZ6CfvAYhY1Barw4Phtd7SqhuuMCXP7OBzNS6si1vn/Da1yiPlx6miuHd7i0yhMtm7aFKzs/dPoCjBzuhdvRwdg/exg8eBvhiUk7gnBz+xi0r10B1tXs4bnmGrMw8ejw9uoGjHJpC+duTrBv3gvzjofixcklGCramOzS+z8sccG4/0RQljJVSVSrmgfRQTswbTBnl1j58vaZ6dTzv2NCP/Fc3+VINHmp1dEzdlaN4P2zMcxDeMZz0g4E3dyOMe1ro4J1Ndh7rsG1xIpGxM1dmD1qKIb1c0G9ShVQs1U/eJ1LpxMkLwBnjw4owo3sMDtw8ffVOJOkyepe7MTm8JboXZ1TnDo8PeWFcQnpXwpBRC9hlWdLNG3rys4PxfQFIzHc61+8urAEnZq6Yv2dWJA2GDvHecDNcxr2PdVlPZ05gfYR/jkUgHdcpPp2zFezFdY9svPHFo2CJ982PDBq40Vc2zwKTnUqwKp8LbQdvZP5Imo8PDgLPZtUQzmrKmjSZy1ufOAeTqOMUiMtP49Hh7AzXhjk2BQtXHrApY0jPOf6IQN1mibaR//gUMA7vnz17frAM8k6yTR9Jd0bXFjSCU1d1+NOLEEbvBPjPJgMTtsnPKh7i6sbRsGlrTO6Odmjea95OM45DLrXOLcqvvzY4T4I0/68iQgWe/jlTZgy0B3ug2di/wPRH4u4iV2zR2HosH5wqVcJFWq2Qj+vc3j9RYUhmxGnXH1xYk+NpLa/naWYV9uoi6U4J1RuQc6bwoQ1FeHbyLXFVLoWF0MHPYqIc/JUVGtakDCv980mcjIR5tTrt/6d3mpCaGOnoqSSKahY7730ht11a7Yd6ctklKtSb1q6/Rj9+zaY5tYT1njITYqSbeeJtGyWC1lxc/NlBmQ7/QbFPDpLO2Y5ifMdVVSx90ratnUNTW1fXEiDzIjarX/DpYAnyteVrNr60KNU5vZFbW5PzG4KaRTnLycQe5pGlFPy17h4akxlcR/rTyXEeG1n/Mvn8+1GJ2FOM/Sp3QZhrnjUhelU30xFJdz96G3sRRpbieVJpkcVR5+mqFszqfZHazwiaHsnc9Iv+yv9+ZCdee9HHiWUpG+/nJ6xdMfcWkPOJSqnWB/w7SGUlXBknlg6PaIccS/5k6+BiKG/+4p1qrKhyYFCSb1e3ZL0+ThUVLNXZyou1ofN5EChLF+vppb6QhpUttPp3/g5p0nq80ut8RBIO39+buJcVlUlGnuRS72WHi1uLM6p16MmS5+yc6/pyJBG1N77HmmiNlP73FybktZ4pF32Gro3uy6xfhx/j8pmMomikz5vjtKIakYkN6hP8+4yoXl/kPqUVJIifzNafJ2rsxg60qeoUF/xazwyfEZLDxc2FOpTUYR6zplA9fPqE+uHsjq3o7nB8cL59cioPLOqI99sciITUR+2/v0tU2UeVEKpT/bLn7HSiKFba5ypRGWh/cVdGkdVeF0op7zWDajjyEU008WK2QiQTL8GTRUrLuL0JKrD9GnpvofpvfY9+bkXJ2VuGxp36j7t6VUyy3r/v066dRp7ioZaiXUWv8YjmpXjkBpkIpeR3KgMOc47w+wzRwwd619C1FG2NINXpm9po5Mw/x/67Ug0eWnX0elIrqJpXBXRrue1pgYdR9KimfF2XZ/JjaC7I89MpFqmelST9yG09GTFz2TIZEFu4UDeD9JpK2L4fJrkltT1T24tB4eGbszqQP32vhX/5nhDm5xMxPS3pt/fsrR6lCClvj0tF4wtrXEuQZVHnaZ7Z3fQLKd4HV2Req/cRtt3/E2XjnxiOlMh3bpKQuypoWSlFO4T7Fcs3d/SncpWGE7+qdgyzb05ZCe2rdxFqpFD3zm0eFQTsuTspcyYbFo7UZveM2nFNCcqqeTqIRfVn8etk+RIWUb8SYo50oeK8vY2yRqPlH6ecJapxhFUzUhOBvXnkaAa+7B4FJS/2WLiVWOaxNKpoVaCvYxf4xF7n7Z0L0sVhvsnrveIJz1fSfOIzu6YRU6FFXz6VBV708pt22nH30HswQg6PakOmalKU9/D70nLwnEvrqTcNuOIE1l6vY96lxCekxm0Ip9wPjZGFO3oVobarH7Iap4ReYYm1jIlvZrTKIjlU/tkBf1syMqD+coO3g/E8vz++LpvPBgyi3YY8IsV+BkerCd48PeteKRlveKduxDt2BOV0hqBzZUHeZLMJdVcWYXZux4jDkpUqmMHMyhQsnYNFGV1G33rDB4XtYN1kt1RZKbNMXH1FPQf4o6mBVk4FIsbF69AXbQ22tQvDeFNmwwWFZujQ6deGDt3KBpwJ+kDTu7egxd8b1OLh7c+oFnfziia1ZKUG8Mo4XWeDq9fvoTCzBwmKcLRNzVLPu9Rewsrhs+A/3sj1GnWEKZ6FVCvjiVzFePw+E4w+EGFFGjubMK68+UweuNSdCimROwlPxx5rIHafzGGr72OuHI9sXhSQ+jxW5H8KOijvrsbanB1oLkBv91BULN6iIyK32lNify1POBWg3u9rMENv90IUrOaioxCtHADlHktkY9ZjW8TLSLeR/IjOEzYIBdlKFG8CB8i3+LFnlH430t3LOpdOtXpWhIp0SAk5IlYroxcRqKuSA81Ls0fhiXXIiEvbou63Hoi47qwq6YPXdjfmDRuc5I3Z/Fk5hk5zM1MhOkPulfwO5QLC+8EYtMgB/zs2gutuWe+Z1LRkbny5EGi2o/FJb8jeKxRw3/xcKy9HodyPRdjUkM9flclmbkZTMQ7dda/YtGswRjq3hS8ulcHIeBaDPf6CouGzMK5iHxo1LoBjFmctjXLQxEVgOULT6P2uMHZq/d/JLS3sbl/O9Sr/BOcF19GdD5beMxbj+UD6jD7zKGAmblJimkX+jA1S7HWKb06mu+LcJk5WDMQ0Fnj10WzMHhovF1XIyjgGmLYfyd8vHHpnRoB61bhtFoOi2LF+NkUutencfRiOq8HldXQu3c9wQ7rwvDXys0I4Qajo05g9fkK6NUi6W6cuZAnj1FinmIvwe/IY2jU/lg8fC2ux5VDz8WT0FAvFkVqt0H90uL0JZkFKjbvgI7Odni+5RPTmU3onh3AeIdqsOm+GayfI55NjiJPoq9iUGs4fl82EoMm9EQdfZZQisS/0U2xzPs39B3eG03ycediEHjxGmuxHCnKKD1S+Hk86kuYP2wJrkXKUdy2LgTVaIdq+jqE/T0J4zZzb8Iygw7PDoyHQzUbdN/8AKllNV1fSVEUtdvUR2lRR8ksKqJ5h45wblqeiewiDJl1DhH5GqF1A2OmymxRs7wCUQHLMd83HDBvgeF9bMHNgCb1BRw6xM5xqANxOaIthnctxpdPzAkfeF96B3XAOqw6rWb9jWIoJggDTh+9KJbn90em6j5n0Ydt3z6oJ75S/3BqHdYF3sKWQ8bo0qlouglMslMctK/CxFdPCujnEjYBlRvkErYD1YUjLCy5KMqM8sCCe5sm04e+nhB3XGQEotKQWEUpV/RrZ8nSo8PbAyvx+y2meTQ3sfNmOXRr8ikbvMVCnfAaWQYDw8wtCdfe3YUd56JYN9mYKWjOsTBEy7kHsXfTNhxY2iVhnmk8scFb0be3L6qt3omJtkI6FfnyIw/zRCnmDv7wqIc6rt541nYuxtv9WJun6lUfg12+09CpZkHcW9wRbTxGYvSGy6zzylBaw6ZOfYzZ5YtpnWqi4L3F6NjGAyNHb8Bl4QZY29TExxtAfyvIoVQJ06p4xIakTfjQhAyqD4cxbL4MwxZIDlTmYR1OlSqxXGM+pNrZT4YmEL5cx5Z3hi1gwfcHVDA25hwsHd6d2Iuj7/k7E8nyM4SK7bqjurkVOi/ah8M+vWCd1qDNd0NqOlKWWPZM1+fLn4d1qgkxd/6AR706cPV+hrZzxyO5KpPD0qo88jIZl+nrQ1D3WnyIiob23l7svRrLSk+Gl5e3YuPGjdgd+JrpVx0irpzFjcLZrfd/IBSsjJbvgf/dJ7i5vS8qRZ3Hyj71YFXZBSsDM2w1CWRUR9eSeF9ySyuUFyo6wa5rP0QhmrWdys0cUNkyL0rb2jBnVY2wF+Gse88Rg9h0p+goULKbBxy4cFl4USdXYw1Lz7Md6xHWvDf4WVZJSeqYKPIhfx45ZMzxvvOHB+rVcYX3s7aYO94uja3KPyed2YO8YEtM238VF38Xp5iliwy58uaDKVc0cgPoi1N69fLm59sbt6VyfD3EMP+KN50cScsoA1Leqgn0xe4gbpq0DOYWFsKAmcoYxlzPUPcOJ/YeRUp1mjpyFGw5DfuvXsTvHYoI4aTg03wlLe7t3YursZzyfonLWzcymd2NwNcsxboIXDl7jd2jQLmefdCCW+DC/FM/740IZqrlg/+fCKnbG/XEjUpUlZvBobIl8pa2hQ3rYanDXiBc1IkxX0IYcghONL46nFPf31H4rgDFBWL9qJHwL90DrYRhkUyhX6slmhRgokMahD8PY2aCdR5fPEc4+yFnvc5mmfmoglbLRCYtzNGmX3dYKTkhvAif5Sfw+sxm3KrYBTUyEfRHaF8iLH6Sniw3ylWyEn5nQFxwMLj1wqAIvH8npta0Ilp264i6hZNqQEJ0kDc6NnbFmjNXce1eBDsjoKzgjvE9yoLfrEP3Hjc29kdT+7E49jaNXtd/FgUKsXxvPf8A4a9u45CXGyopY3iFplfVCR0qKKEoZI+xW8/jQfgr3D7kBbdKSnCflJHpVYVThwqs+/GtwpRqwfjd4Ijzs/j/a7U6QQ5kBtC7tgp+TwKwoGNjNGzYEA2bT4c/r8t0eLl3JFqO/AvvuD8lkqBEuQplBeeVoXv2GI+F5T9po3mIB0+EtiozMBDaHUMu7lhA0aF49CyF5snqMzIzlCiZ79tQ6NlFhjpSiQru49GjrAFrsZwqu4GN/ZvCfuwxZKzKWFtgnXB1SAhCuXvpA2LJBGZmZsjXbDx27PkLu1e6oYIqm/X+D0luWHVYgOV9yrEaY4773R0YPmAFMrukUJNhHQn3pQUxnafTKVCskw+uPn+Of/rHYGHrenDd+AB80yWmH/k708GiLfp0Ksnre4q7ifUrvLBiT2507SyMTKeJsgLcx/dAWcHY4v2NjejflNmUY295H+VjPjOd2YYeSnebgj5ZFXJRTyUj/hxrbxk2y0ygefgAgmqUwYDpRiF4ubgBDPN7Qh8hpTpNF73S6DalT6rt+dN8Je6teCifV/rAOswmZkxm86HZ+B3Y89durHSrwN8lt2yP/p1LsBonfDjtjVXnn2P/n29h/4t1QidIUawTfK4+x/N/+iNmYWvUc92IB4IwcOLw3fKN2Cmm3Ae4ojw/30qDh/5vULtnnTRGBNLAwgmLt8+FS0VDXFw5Ggs2eWPMrL8QWcIBk/9Yik6Wn59VfVtPuNXNxQRdi5AtszBweSjqdC7/Sc6n9mEgboYJrUOerwVc+I8nJh3NSx2Zvp7g9OgicfPqbUEhpYoOETH5UKWcCetlh8FvZHdMORMhXJIXgOPKY/Ad3wSFhTlueB+wFENmnxVHVn5MNDe2YudVVqKKQug42hMVU1as5ga27rzKypx1WDqOhudHN3xL6KF89YrCNCDWGY/TCIqS+6o6h0xpjdJmakQ+uISTJ08Kh38QwrScNiPEhF7FmevPfmh5SB058rdyQiMToaVqw67iMjdUlR4yQ+Tm3+hyvxUJRkUTJ7Ze5lQnTikSyeozMhVU/7EdyVLXkcmRF3DEymO+GN+ksDhd9z0Clg7B7CQbcaSLSiXob+bUxuWpBYc2bdBGPFo3r44CzGxkp97/cdFH1ZpVxC1bmXN4/Qquc8PfmRn5zkQdZQr1PWwbYIfKDcfgemMv7BpZMxPTJOMxRH0PV1Tlja8WTzaOw4FKbkg2yypV5CjguBLHfMejSWHhTanufQCWDpmdZOF8Cj4rndmIojSaOlRP+Nij7pEP5qx7KvzxFZEZ5k7Y+lemSNCMzMYJv2S5MzP9NTmK0k3hUF3YvYzzhx75zMG6p8xmfqKvpFIJ2oE+xCFPLYcEeW3TpjWaVy/AX+M65A379oKNvox1Zm9jw5T+2KlyhHOhpAKtxr1tA2BXuSHGXG8Mr10jUfOrCEP2ktkmm+Po1fBEnwbcfEc5TJu5w7VcvEBlFjnMrGvDrr4zBg9piyIKUzSZcRoP7+zDhCbxI7+ZRJ6kA5C0V6koBdc+DvwrRN2bY/BTN0PH+C0Cs4QG/27fiStcQ5GboeHo8eiQT853KuIHb0gXH3Hybq2qcg1U4SebanDzz83pbMOrQP6fnDDFew7asE4XRV7G7B7Dse+lDrqnftjhb4QWUw/jot9ENC2o5I3qw9u3M5428h2StCzTHCXQ3MHqMStwNU4f1m5emNc+pcxocGf1GKy4Ggd9azd4zWuP/MluICRG8yVHptLOn8nPjmjCWQ1msCP5bYFZLviOhwzKKq3QZ3kAXr15gzfxx7M1aMfLlgJFeu/B452/Ih//lERS5EW7Y1y/qsIomOYqdm3ntmFMnagbp3DhTTXY2RjzOoWiIxHJVwU31Yd7uwYoS9mgZsqBEdVPWX/mP0XqOjI5Ojz12wF/oxaYevgi/CY2RUHuoyDah7h9O3OaTFW+Msrx89LVuLDHF48S+pA6vLl/n39jnn16/0dGh5fPwsRdiZj+KVEGZVhd6cdvt5dMf4r/F8lUHWWIGuendkDPFefxtpwHZg+zSeO7FWmjrPgr3JsIbRK56sPNrXrGnU/dU/jt8IdRi6k4fNEPE5sW5L9bo314G5yIypN0vIRsf346sw891OjkIg7AReDkoj9wP18e/srXRPWTHWyMuUJhHdjISKHctB8QxU1FYDVSyqYmsqwa9Wqgk0tFoT4jTmLRH/eRL488E74S89sS6idecFUoX7kcBJG9gD2+j9gTIro3uH9fXM/BUFbohT7NTVkoOoQdv4USXZsnm76tPj8VHXquwPm35eAxexhsvp4wZCtfTXuSOgaRsUn6jIqS6D6gPQqpCvHb13HrwgQIsWph21OOOHWc8Js00MSJZ+PioNY9xobe7TDijCWce3dD5y6d0K6hNfIk67/EQRPvIcRPq+JGg/lRXoY2jp+DqDAxAS/XLKbXr17i/Y3N2HiS2+dXjnxO/dGlNBNPuSXa9miXwvlMjo51weMFjuLULI3C73cX5mLQostQKwug4Zjt+GNIJV7gFQWLoTAnrZySfvKENapArF51GOFi8jQsDLmlM/p3Kw1uww7NnVUY9Nt+hLJijH16DAumbsY9NSsX/m52ncUvK9kTS+dz++ET4oLXYuDI3Xiuvou14+bhbIQCBe0nY8vUZsglU6K8TXUkWX//H4EQ8T5KlJnoBAc8GVE3sb63I0b8LUed4dtwaHmbFKNoUbi5vjccR/wNeZ3h2HZoOdqkHGbjpr6JYXOOYmrR5Axp50+erwNGMgc5F73C48fcnpIaPHv2EjpFAbQb6oaqRtw6Ie41sHiYGCRsCSxTGcIktzSXJHUMUXfSH1jWoRT0mca4unQoFgQk2bOTh7Vh/znoOWwnXqos0WFoT1jryaB7HIz7nJLRPkIIa7gkN0eTAZ6oxYpaHSdqC2J6SJsvU8/ExQ/zsfi0mXLAvi2yqiOJKfBEta+G5u5ajJt3FhGKgrCfvAVTm+WCTFkeNtWZJmP3Jqh7UfGTJg6J6p7p0wJO6NW2AOtqEyKPT4fn/DMIZwX57upqTNt0W7gxi3r/h4ZiEcvNbed/xyX81jz2xZTlp4U1S0aV0Hf6AFRRMvtTrDDvoEH3Ek+eMP0VuBqrDocL+ozVHquiTNQRq+fEihbqPIVdV2uDcfRIED9NltRRiIoOx3n/QLwX5S02JhPz5eVF0cmjHbMNChRyZvKQaueT2V0mY0LMrB0ze3x37TjMOxvB7Ls9Jm+Zima5WMervA2qGylgYiJ2ZOg1Xr3kpvIsgM/Bz0znJ0DMx+K3jud+p7Rf2jCcmdcVv6z8gGKlxY4i1275e7jpuxoxvzroxMasSagQ5nOJCzu4tie075RlxP/gFKCoC5ivwnw64dYUfh77n9yyA4b2tIaeTIfHwfd5n037KIT5QQS5eRMM8KwlbPubKgR1gj/JdVxE2ymiDTuDeV1/wcoPxcBnVZOBr6QwgYngLLIqfIWX729g80Z/FHDqhbb81P9IHJ/uiflnwpl+foerq6chQa1wyAuiY5+OKMIMb646veBWM2nKtQg+egRBgjAgKioa4ef9EZgoDGJH/jtE3N3qy6F5Qv4b51GfunlJmb8+DVy4kU7GbxEXe4EmdplA58U9zTQh/rR11RhqJm5XxlQWGVh3ppm//07eE9pRCW6bNnZenr8pjduxmLqaywkyOeXKU4iKFC5MhQsXpZJWVcmubX9aceYp/btrENUxE7bulRlUJbftgRSwoZuw7R4XTp4GNHJfMLdXHK3tWJyYQiSZ0pCK2M+gcxFCmthFCppVh3KXHkDHosVTKYm8Tcf+WEoD6lpw24YJ8eUqSQ07dqPObRtStcq25NB7Mm08/yLFdmiv6ehoGzKVy0gm0yNzayeaNc2FmJFjYSioUIupdPQRt3fcBVrkVIbfYo91t0lllJ+sfh5Ne+/coB39a7HnhbLKVc2dtlyPoIjAedRUzDfk+alBv77UtHhFsmvpQdNWraIJLYuRpd1EOh6/S+A3Cp9+8cgYLT2/9BdtWjaUGlnGy4+CCjYZSV5bTtJ9JmPRTy/R7kUDqWVVa7J1Hkk+Z56J2w+LRD+lS7sX0cCWVcna1plG+pyhZym3TtU+p0t/baJlQxsJWwly8SgKUpORXrTl5H3xpqyRuXxmnD+emH9pfc/KVNi2Ly3znkAtSpagljNOUXhq24BK2+kmlHv6ZS+ieUFnvPpTs3LmpG9WkRyHzqZVGzfTOq/ZNNq9K7kOX03nXsUXdDRd9/mFKpnloVp9l5D3lHZU0qgo2U88TM+1Gnp0bC45lVSKW3bmo8a/7aZ/o9J7htOPR2hS84Lidq9KKtZmKu2/+23VWprl+Qk6UvPoGM12LEHccgtmsSl/03H0x7S2VLKiHbX0mEarVk2glsUsyW7icXode5t8B9chM1EXGlTpTduvBdD6rsJ2utzzeRv9Rn7M9mhfHKHxDQuK55k+NS5EVTsvpSvvxYh5MqH3fxBSr1MthZ77k1ZNcKBiol2GTEUFajhS5/ZNqHLhPFSgbA1q2ft/9OeNJAX7+iiNtjElObNjMj1zsnaaRdNc8gsyoShELaYeJc7kpV1HsXTbd3ASu16Fem+/RgHruyba9byN6De/IDoxohIxn5+lS4+K2Y+m7Se9ySkv9xwLr1g7Wn4tExUb40/DK/1E4y99tPEqg2vHs8mxRHw7zk9Nx/1B09qWpIp2Lclj2ipWPi2pmKUdTRSNrebeWupYXJ/dLyOlYRGyn3GC/LIjnSLx9cQdqcL8sXM7fGhSmxJi2XLpNiXrZl2oR09X6urcnGoWN+a36JaZutBWbitYTQgdGC9unculu2wnWnX+Xzo5r624HS5IUbQNzTp2nU4vbS9sp8vOcX7ahMP3Uymjv+jmnWM016lkQtvO1/g32n2D6YjZjsn9vL9uCemOvk4+v1Qiszy1qO8Sb5rSriQZFbWniYefC9vQpoLmyTna4TOJ2pQQt0bmwjS1pmZdelBP167k3LwmFTdW8HVh6rKVuKzS6zVML6fnK2no3tqOVFyfpZHpYMMi9jSDdxa19OLIeGpYUIyLtQXjQlWp89IrlEytcMRdpYk2Bcl544uP0h51YgRVysXlX0Z6xexp9PaT5O2Ul28fMlUxarf8mnjn94WM+4dVwPeP7im2/lIbrlseJ4yIJUVe0BU7/l0Pp0xvQ/QOwWfO4k5ccdSqV17cVUZAc3kSev7VBuum1BBezWUrsXh29RSuvDRDFbsaKCrubvAxarwMOocLwVEwKfUTbCtaptPLT4E2FMGPzFHS8g0CzgQgzNAadWqXSZjL+a0iS/pa+rPF9gOCz55BqF5JVKpcGnlSKbwPwWdxJlQPJStVRunUbsghsjefHBqE/3sWF+7HIn+1erApnPYH7350Pq3s1Xh9/zoCbz/BmxgZDPOXQpXqFVDQ8OMGpYt4gEvnbuC5xgxlbGxRIX/GcvUpz3wrZL8sJ0cbGoxH5iVh+SYAZwLCYGhdB7XLxM/VzgofEBpwDldD42BetgZqlbP4SLfnrN7/fsj2Oo19hqunruClWRXY1SiKNE1eJuooXXTvcI/Z9GCVNerZlgC3J1nMo4s4ERiBwrXqoXKm2pUOYXfuQVnGCnkyJWRahAY/gnlJS7wJOIOAMENY16mNMkmN7btgnDl7B3HFa6FeeQsosiWdAjnd/r4uOkQ8uIRzN55DY1YGNrYVkO2qMZO+0rvgMzh7Jw7FWf2UT+osfghFwLmrCI0zR9katVDOIjWJ1eH1zet4V6YqSn60sFmHd/dY2MEqWNezRQlBGHDxRCAiCjN5qZw/837fN8R/p+OhDsbuqQMxyU+Fuk0rMkeSdZ21akS/fYRz+3bjfFh1TA88jTHWyeZeZZK3uLx5JY7IW2JAl4p4OG80jradg0FWnxKWxKfy31aiifwo+fwWkco+e/m+y1PS+6khtZHvB6muJL5F/jMdj9i/+8Gq5UZU9Q7BX79aiGc5NLg+pTYa7GuDI6cnfdIWiNoHC9Gk/HCcUrXF2pv9cX/la/Sf1kma5/uF+VGUqGQsvh5S2Wcv33N5Sno/daQ28v0g1ZXEt8h/541H7L/YPHIIZh16jVL1G6JKURMoNREIe/oYL1AVnlNH4efCnzhS9eEsptq3xtTzcShu1wUTfZajh9WP/LL96/CjKFHJWHw9pLLPXr7r8pT0fqpIbeT7QaoriW+R/07HIwENIsNC8eJNDGCYF4ULW8AgO0aodFF48eg1VIWKproeQCLn+VGUqGQsvh5S2Wcv3315Snr/I6Q28v0g1ZXEt0iOdTySCryEhISEhISEhISExPdDTnQRpFUKEhISEhISEhISEhI5jtTxkJCQkJCQkJCQkJDIcf6Dazwk/qv8KPNVpXm5Xw+p7LMXqTz/e0h1+v0g1ZXEt4j0xkNCQkJCQkJCQkJCIseROh4SEhISEhISEhISEjmO1PGQkJCQkJCQkJCQkMhxvomOh06nE38JpPxbQiJb0GmhTVO0dEzuxJ+fTHaE8Wlkts3otFqWytSR2t3n83ERMpnTij8lvihazceyzsm/hIRE5pD0mURO8PUWl8cGY/e0UVhwPBqFyxaAKvotYvPUgUvHgrhyNh8mjG0OA/HWz0eHpxd2w+/gfuw6dg9RfI5lMCzdGM6tmqN5YyPc2H8Qfrv9cD1cC+6yTFUQtk5t0aK5IxqXMeQekPjKfOpCOV3ELfitXozFq66gxoZTmGmb+CUwXZg/lk+Ygm0P8qJwbAAuq2ug18TpGNGyOOLvUl+Yh66j9+JlMiUsh5n9FGyZ0AAGmQgjK2Q6n7o3uLxuIn6bsx1n7r+BsnAtOA+djbkD7GCRbEhBh4hbfli9eDFWXamBDadmIqEIMh3Gj0GWZSzqPo5uWoWVG/7CtYh8sK5khcKmrHAVRihVtzlsIjdjn8kyLOicng7R4vGJpZgxfw+C3jMhU9lihO8ctDEWL3/HpFme2lCc8/XDgX078c+DaF7nQpYb9cdswbTmpvwtSdGF78HorgtxIUYIQ25sBXvntnBo7YBq+URBjbyNv1Yswppd/yBYXgqVyuWDMvItXkfKULyeIxzravHn5kiMnVQTVw4ewL6d/+BBtBCeLHd9jNkyDR9HrUP4ntHouvAChKjlMLayh3NbB7R2qIb4qH8ksmPBsu7pBez2O4j9u47hnmCQITMsjcbOrdC8eWMY3diPg37MZl8Ph5a7LFOhoK0T2rZoDsfGZZBma9I+xomlMzB/TxCEpjQUS1uFYMn32rYi/sWBDavhs/MKXrGCUNUYij/nO8JcvJwROaLPDAej4e3ZWHoqFHGkQImuy7HGszyy95v+X1cnah+fxp/7DmC/rz8exXLlJkfu/MVgmUuNd6/fQZMrL4pY/QT7Tq5wrJJHmjqUVZgwfnm0obT9lxKkX9qN9rHWJBBLDw+Mp4b5lJT3F1+KFs9mKzF/U7/iCk6KCIrC5OaXNBYN3Z5Vh1TcNdYf02++isLEKxLfBny9iUdmiH54grxHOFJlCxUx9UtQlqdR52LFq4yIUzTWxohkqto087aG6I0v9SisIJleGeq18ykJkhlNf/crwdRrYtz8IS9Av+x6m8kwskbSeNImlm4sbEJ55EnSxB3yPNRs2W0mzRzR9PCEN41wrEwWKhl/XVl+FCUWQWbC+LFIWg4ZEXltFXW1NiK53IxqDdlFzIFKQPPiNC1yLkP6MkNy2pTkQppE0a7uFsQMGEG/BXm/Ek9/52RUntH7elOhBPmTkVlrH3r6UaPRUsiyZmSuL7ZjKKnc8NNMehN5e2kZdSiTi2SKgtRi7jl6nSQM7esrtK5PDTJj8eg1WEAP+GvRtK93IaG8uUNmRq19Ummv2hBa1syc9MX2A2U5Gn46acw/HvH1yR2fRwzTrcVF3aqgwm5+yey+5vYsqqMS4pHpN6dVmTXIUbuou4Wcf06/hTe9+t7bVswR6lNM8Fv07FfQ8ywYlfh64o6MyIo+iwucTD/xdaOk8qPOJWuL2Ufa9RZ7bQlN3RT6SfY180TQVhczUefoUwsxAdo3gbS+Z3lWFkwu9YqTk3dQNuU/lq4tmUqbQnM2V98CX6WjpglYgWlbHwJlaqJWwrCqHoq1mIJty1yQTxuX5nSQz0JhAlNjMT5ZbpiYJM2+DGamRuxfAT1jE+QWf0t8j2jwItwADfuPRbdqqY2P6fBw3WQsuRLJRKEkyhZj5s/MHq0bmEKmDsaGUTPwzwd2W9RRbD1pjKbOHdChQ+LRsecY9G9pnLkwcoJwXyzyK43ZJ+7i4V1/+PSuAmNOeHWvcWypN86r2W/NC4QbNET/sd2QahFkJgyJVNHeXw/XVv2x5dYH5HGYh+3znVA6SRkr8tfF4E1b8JtNZt/bKmBsZJigf34U5KZmKFvRGua8Kia8+3stNt5NMZdDewubd2ph3yy/OLIog4m5OSsxAfXNpXBpOQg77sXC0nk+1g2zFcMTkJtXR4/lftjkbgWVeI4bwTQ1K4uK1uZCmPQOf6/diI+j3oydWns0yy8GKDOBuXl8zBKfhwImpsYJdZrbxCTZyLHMzBRGiQYZJpk1yApjGBkmbUnfeduS6cNAL2dTn1V9JsudO+23TtlGGvUWE4D5A/6Ho2E5baBUMDXNnUwmOeRmleE6fywcTOUg9UPsGTUWW158vscaEzAfA/53FDmerW+AlGX6RYj9Nwj3NAT1iUUYsyOEuYjxyGHZzhNORXOk25EJkoh4kleUEt8jShSvbgurElVhV8UywUlJJAr+xy8I0+4UCrEhGKB8+ZLsXoImxBdbTsbi3eHtuFBhMBYtX4etf/6JP8Vj+5pBsDXIXBg5gfaNJbp5ecGtfhkUK2OH3stXwMNKeNmtCw9DGNeElMVR3dYKJaraoYrlxyWQqTAkPkYXio3DR2B3qAakKAaXwd1QPDVNalADA4c4II+kStKBdQB+7ovuZQS5o9gL2LD2EpLaXvXFDThc0BUdCiQWZMIv7W2sGDgeR7h5kIoicHR3gmVqdSHPh5ZTJsExX5LKkJvi577dIURNiL2wAWsvJYsZFzccRkHXDkiMWqrML0nSGpdKPof4nvSZJgTb+3bGFP933GuIr4eJNayLCDZVF3ENF4Pi+N+fiiZkO/p2ngL/d181V1+M1MQrx1EWLIC8LGaK/Re/d6mJ2r8uwJGQGOGivh1GjXFI6E3r3l7FhlEuaOvcDU72zdFr3nE8i3eIIm5i1+xRGDqsH1zqVUKFmq3Qz+scXmebwxSFoB3TMNjdDW5ubugzww/PtS9x/vcJ6Cee67v8LNTahzi6cBQ8+XMeGLUxCOoXxzG7qx0qVXfEgss543xKZA65IjVNGYOoKDWvvCgmClF871eJ/PkthEbB6vl20L84sHU/bmx3Q4WCZjArUh0tPeZg350o7g5GZsJ4xv3KdhRlGqFR6SSdCX0rlC3O/S2D0oq1hcShXYYcqRVB1sKQiEdz3RtL9ofzb2Xl5nZoWjvttxoWDsPQx0ZYUKMLOwOvQY5o2sIFPVzawNFzLvyCRb2XBuk9o314FAtHecKd6SE3j1HYGKTGi+Oz0dWuEqo7LsB3o3b0bNDH0w78IDXF4dYfPjgaKVzidPCxDRdQ1a0tTFORYfX51fA69Z5vg7LcNVC/Ztp1Ibd0xrjfmiRbu6Rn0weedsKoKsXdwh8+R5EY9TFsuFAVbm1NJaf3m0KHsDNeGOTYFC1cesCljSM85/ohg6YkQog4swRDRfvt5uaOITN2IYipdN2zs/h98kDWnjzQt687PMR73AdOwcbLz3F79/8wKP6cxwjM3XsLUR9uY8/MofDo8xtWn38NTYZtPBNpj72PfdN7oKltI3ToNwIzdgYjJ5vyp+qzBOgtLnkPRKsazBm3aYUhm4OYZYwnAjd3zcaoocPQz6UeKlWoiVb9vHCOd9K0eHh0IUZ5uvNl6jFqI4LUL3B8dlfYVaoOxwVXhCBEdG8vYEmnpnBdfwexpEXwznHwcPPEtH1POUWJM16D4Ni0BVx6uKCNoyfm+gUL6VAHY//sYWJ9emLSjiDc3D4G7WtXgHU1e3iuuca0TBbRvsfbSMHRlCksUaRQ/AoXHd5e3YBRLm3h3M0J9s17Yd7xZ3zZAu9waZUnWjZtC1eW36HTF2Dk8OW4cHYJOjV1xfo7sSBtMHaO84Cb5zTse/ounbJTI3j/bAzzEMrOc9IOBN3cjjHta6OCdTXYe67BtSxn6gsiTrn6ssQG0LTaRuLcOeGQGZakn4eup4A3Sea3RZymSXXMSFW6Lx1+r6X3fu5UXJmbbMadpsjIMzSxlinp1ZxGQRoi7ZMV9LOhjCC3IAfvB6nPT4+7QGMqqYQ4lVY0zD/pzDwtvfBqRqxJsesyMu64lfgpjjHHqH8JYX6lynYG/csF/HYjORkLc371223g79M+XEgN9bhnFVSk5xyaUD8v6Su4e1RkNzeYC0niM4mXFe7IPLF0ekQ5YmohxRqPGPq7rzi/WGVDkwPj+LOvV7ckfT4OFdUaM4PamQlzhZMecuPK5LY1mOIyEYbt9H/5c1khaVyZJu4SjavMZFtmQvZL7yeX/9jTNKKckg8v+RqPFKQXxg9CxmWvoXuz64prwZhOsJlMYrWnz5ujNKKaEckN6tO8u6xk3x+kPiWVpMjfjBZf5yokho70KSrIUvx85gyf0dLDhQ0FnaUoQj3nTKD6efWJdTKZPNrR3OCvX4MZlWfsqZHU9rezFPNqG3WxFNsa0+HOm8KE+dvh28i1xVS6FhdDBz2KiOsBWNucFsRqQkP/TrdNqAtOts+mJdsfEUunRral387G0KttXchSXGcit3CmTWGCDQrf5kotpl6juJiD5FFEXBuoqkXTOIPzA8OXg3h8HnF0YUwlsf6UZDXMP9lcee0LL2rG21TmHxh3pK3imoM3R0dQNSM5GdSfR0Kz6EMllQrK32wxCU3pCPUpKtSXsMYjRdsKe0F7epUU/pYZUbv1b4SAGVG+rmTV1odCwnyppxiGstxw4pf1aO7Sgka5eb9Flqs5rRQXW0Tvc6e6fQ7Q2wzbaybSrn1Kf7qWIJVMSeWH+zPfIpb+XdaWChsI/kb2r/H4NH2mCZ5L9fg1HnIyKWpLnScuo1kuVizdrGwMbGn6DS6QSDozsRaZ6tUU2oz2Ca342ZCVn5wsHLzpAdeMtA9pYUM9Pm5FkZ40Z0J9yquv4MtYZTczWb2tvHaWdsxyosLcdAKmAyr2Xknbtu+gv4Me0dER1chIbkD1591lOXpPB/uUJKUiPzVbfJ2XqbhL46iKmN681g2o48hFNDM+vfo1aGqqmY6hA+6FRZ2TuMaDK7NHf3SmIlw6ZPpU1m13Qp1EnJ5EdcxUVLrvYXqvfU9+7sVJmduGxp2OZP6rB5VQ6pP98mdMt8XQrTXOVKLyCNpzcgfNchLjUVWk3iu30fYde+mP0RmUHWevqwj+rDyvNTXoOJIWzXQhK249GktXjamBrIV9m3yVNx7Qq4bftq5HfxuzhJFY+vAARxb2RN0aHbHscgQ7o8H1RUMw61wE8jVqjQbGchjb1kR5RRQCls/Htr984H3pHdQB67DqtJrZqmIoxg2J6V7j9NGLGY8QsB7y37M98Ouvv4pHb76n/tFOcQozmCdbC8LQN4VZsjmk3EiBGUz4Uzq88juEXAvvIHDTIDj87IperYvx90h8S+ijvrsbanCTiDU34Lc7CGpWd5FR8TvsKGFhWBC1+g7DYI+ucKhdCqZKoc51Edexxq075gQqMgwjr2U+/pmcRnPLD4duaZDbZgimu3FTvbJOdoTx30eDkJAn4ggWI5dR4jz0NFHj0vxhWHItEvLitqjLrQUyrgu7avpMDf2NSeM2J77FTSAzz8hhbmYijMbrXsHvUC4svBOITYMc8LNrL7TmnvlOkFm0w4BfrMAcAV6HH/x9Kx5pdXi6cxeiHXuiUvyAYjI0eBr6IqEuZEYmMMlylmWwaDcAv1ip+HLUvT6I37c+glb3FDt3RcOxZ6Vs3q1HInV0CPt7NjwS7PGv6D1kM4JSGmT1JcwftgTXIuUoblsXQrOwQzV97vlJGLc5fnQ5HeT54TBuMBpwDZc+4OTuPRCm6Gvx8NYHNOvbGcXztcbgnpV5edQE78Wui2rmC1iiRFFjyLnHYs5i715O9jS4cSES9r0b4G5G7TUm47THXFqCyVseIk5eCA1b1IAh9GD9qwda5NgWg5+iz5Iig2nziVg9pT+GuDdFQZZMir2Bi1eigZgT8PG+hHfqAKxbdRpquQWKFePeHurw+vRRXOScNLk5zATHiakwZn9yLcSdwE0Y5PAzXHu14s/HIy9cG23qlxbTx9ptxebo0NEZ9aO8MWzJNUTKi8O2bjFmt4xR164a9Dkfb9I4bGbKVcb5Z3woLB7rX7Fo1mAMjU+vOggB1zJ6XabFXd/JGD6kL3q0qYmaPbbjTWkHDF95FCdXthOmd2quY9GQWTgXkQ+NWjeAsdwYtjXLQxEVgOXzt+Oo3xE81qjhv3g41l6PQ7meizGpoQGMa7VB/dLi+mKZBSo274CODjL8vT6DspNxZcc9xNBZ49dFszB4qDuaCplCUMC1JG+evi1ySpozRFG8PZaeDsC+mV1RPa+g9FlpITrYF0M7DsP+V/dYw74Kbicz2cvL2LpxIzbuDsRr1ufTRVzBRTSGQ2VL5C1tCxvWgtVhLxAuTs+Nic1EcTPlYz/aG2vXrhWPNVjUrUK2OFtUsR26VzeHVedF2HfYB72sJdP1LaJXfQx2+U5Dp5oFcW9xR7TxGInRGy6Dn62ptEbNtt0xdsZcLFq1GfvO3sXj6zswoWUJ6DNhpcgL8F75DyiDMGxqfrw1aLbDHDW/BT64ZmqP6WvHolZm1zMnJTvC+CGQQamK11eMmA/IcP8ATSB8uU4pp8vMLWDBKxkVjI25KT46vDuxF0ff83cmkuVnCBXbdUd1cyt0XrQPh3164ftSO/qw7dsH9XJzJUv4cGod1gXewpZDxujSqWgahkoGfQO9xLrQxkHD9/hFdC8RsHcLNm1itoOzH+KxafMeXEq6gEnfFn371IMQ9QecWrcOgbe24JBxF3Qq+tVM5A+GHPntR8M7wR6vxZpF3VAhhUHWBPpidxA3vVUGcwsLwV6rjGHMDQTq3uHE3qNI2ZRSQ1HKFf3aWbJYdXh7YCV+v8V6OJqb2HmzHLo14VaxK1G5ayfYcIu6NcHYsekfRL05iKOKlmjNbTRAETixbReexFzArrvl4VwpKMP2evhsRmk/jCsHj+BOHAtEnhcF4tflKU1gnCtByrOZT9BnyZDBKI8Fv228TF8f/Bp4ikNkRBR0qspo5lAZlnlLw9aGdQjUYXiR6KR97BRTRbTrXh3mVp2xaN9h+PQqJ15IDw0CfXcjSCh4WAgFz4rVmJ+6qXt3AnuTKUo5LK3K81P9E9OrxYco1lFKF9ZZtHdDU/hj2/4AvIjTsaIyRa02dVBArCbtvb3YezWWr9+Xl7fyumZ34GuQTIeIKxcQnicP67QSYu78AY96deDq/Qxt546Hnb7wfDKyWHZySyuUFzIFfSFT0H6IQka5+lp8Fa2qDrqMQG7+mX4JtBi9GZduX8CGkfYoZiAUGLfQZs3e6wgJ5YwDM0Ks92FiZgazfM0wfsce/LV7JTwad4XP1ed4/k9/xCxsjXquG/GAn2NP4F8wfjVkMCtR8ofc3/37Q4FC9mOx9fwDhL+6jUNebqikjOEVh15VJ3SokNRzk8PYuj2m/nUcq50Lsye1eHYrCK90WQkjJ9Dh9aFxGLnLBJ7rN2FgpdS0WEZkRxg/CkqUq1BWMFgM3bPHeJy4O0bqaB7iwRNh6FZmYABezTHkCkFJUHQoHj1LMbSb1WdkZihRMt/XUejZBOcM9ncswOeB4gKxftRI+JfugVZmwvWP0YNVRauEstG9fI4XSYtRng/VWzZF4Svz0buHK1xdXdFzxA5EVG+Kn+J3qeJRoJRrfzgW4GNGXOB6jBrpj9I9WiHNqCW+CpqHDyA0CxkMWLsQql4OoVkQokMfIWVTSh1ztOnXHVZKGSjmInyWn8DrM5txq2IX1BCXMCjKdkLnurlYHFo83rMR27cfg6LdDHi25fQ/80v8t+OP7TsQUtUZFZFxew0JDM4g7Q8RGBL/xkYBpfiGPWf5BH2WCbTcVwYVxdDJ5yqeP/8H/WMWonU9V2wUnDRu3hf//6TIzEqgZJYdJw0ePngizFSRsXJPLHhBF1I0Qh9ltM6SOek6nVjuacHsuXERtJi2EkOqCHWnfbINw4Ztx1PxQU1ICASX9QNiyQRmzGfN12w8duz5C7tXeqCl53j0KCs8q3t/Axv7N4X92GN4m1rEWSy71CDt1/ugcUZktZazheiL3vA6nrCED/I81dB9ziGc39kXFfnh5Gi8fBEDFe+zsQYelwe1HNqgTRvxaN0c1QtocG/bANhVbogx1xvDa9dI1MzaO8JMk7UNrmRQJR1BkPhu0NzYip1XWeNWFELH0Z6omFqfQVkCXWcOQm0mp8rcRjBM0YIyFUY2onu6C0OGHEON5XuwsJW43ag6CCdOPhaUcSbIjjB+HOTI38oJjcTpAdqwq7gcnEEpyQyRmx9O534rmEshoIkTLbwsN4xS6q6sPiNTMb2TIozvDuYMDnBFeT4fzKHwf4PaPesgvW6whYMLfs4jNELdiyAEPk1RF8r8qNOoGszFolFYNUCLckYfGz7zNhjgWl6Y6sU6ff5vaqNnHakD/q0hM8wtvJnifisSWgUSm0Xmpwrp23rCTexYhGyZhYHLQ1Gnc5IP4SmKo2OXhvwW47oXu/HbShVa/FwATX5xRil2E8Wewdyxd/GTUzkoMtFejc2NMky7qX78jh7R+CB+WDFn+QR9lgXU97ZhgF1lNBxzHY29dmFkzcRPFqRExvymrKswGQxz5xbDlHGbSwpo4ljJcsiQ28iI/5UdyI3sMMFrOKrzb6C0CP1zBIZteyp0Wlj6BZf1A+Ly1IJDvL/KjtbNq6NQIUesPOaL8U0Ki1NK3yNg6RDMPpt0J71EslJ23xsf6d8vgu4Z9qzYjJBk8i1HgRbj0bcea3iKfChXsS4ql9NnBU1QX9gD30eJN+ve3Metw1PQoecKnH9bDh6zh8EmvkVnNzJ96MXrAtKx1Ig/xf9LfPuQLrHW0hws0NzB6jErcDVOH9ZuXpjXnjngujBc2rMTx+9xa44SURStjkr5DfFTQ7uEeaM8qYUhXsoRNLewym0wTpRygu37Q1jt5QWvZQsw4ZdeWB1ilGD8uHwnFgErA/EnT6bDkIhHXrQ7xvWrKoxqaq5i1/YbopH7mKgbp3DhTTXY2RjzRoOiIxHJVwD3ep97M8Z841I2qJlyD1jVT1l/5j+AXg1P9GnAGVg5TJu5w7Vc+hIot+yEqWMb8t/toLhL+Mv3wced5YStrpk6l8vTGEjSQw3PPsK8f7kpmrm7IoOoJb4Cqp/sYMN/bIgQHRkp6DLtB0Txn5VXopRNzdS3U04NRSm49nHgp93o3hyDn7oZOhZL+jDzSRy7oqkZd8MHGNVzQuPcrMNSpxs6WnPLsbWILtsUztzOgJlor7aN62WQdlvUqWLFT+WF5gnu3oufKJNEf+cAWdZnmd1nXX0eUzv0xIrzb1HOYzaG2cR3ED4DeZJtlfkyUeEnOxvh+1MUjUih4PlpRkKxloJNTUv+XHaRu854rBxZQ+hEakOxY8RQbA3VQVW+MsrxA+dqXNjji0SXVYc39+/hxr4d8DdqgamHL8JvYlMU5N5oaR/i9u0PLFsJuRKylRNl9w2R2SaazRA/tePXmWfwJqkMxwTjfijBvMFwDGlZEk692vLz5yjyOKZ7zseZcC10765i9bQN+OfkEQRxksUqOSoqGuHn/RHIfVqfIzYm9UU1uljEcHMBOSgOam4uZRJiYhJ7npo4bpkwQ1EQxQpzHSD2+MsneMKUSuDqVTgcLj7Letb8U3HxPWx2nzaTDVPiC0CIeB8lNGZOMaU2ihR1E+t7O2LE33LUGb4Nh5a3ATfrIvbweDg6d0DT6rXRa/OdhA0LdC/u4bFZF4z6tUyiY55GGDlHBPwndceog0/x+OBsDO7XD/24Y+BwTPNVo0xVY/E+BkXgvZhvzigmFkEWwpBIgiHqTvoDyzqUgj7icHXpUCwISLl3oQ4v/eeg57CdeKmyRIehPWGtJ4PuMdNx3AIg7SOEhKpBcnM0GeCJWnrM1sSJlorppjhtvkw9Exc/XMri+x7VDqljEBmbZMRPURLdB7RHIVUhOHt04Bd/ChBi1cLW1Rxx6jjxtx4qDdmCbb/VR35FDE7PGw6fW5nZfJSgjolkYYp/MhQlu2NA+0JQFXKGR4eCicaRYqGOtxusvlPaDYlPRcdMdXydUpI6FYmJEWwrB2dnmXzLLTtgaE9r6Ml0eBx8n19Lp30UglBWP3LzJhjgWYtJhJq1H+ExYnY5jj2XrG1xJ3jkyOfUH11KK7mA0bZHOySbgceQ52uNbq3yQq4sA6cuduCXvimroWunaiwNuVDXuT34HcjZ8xm119pFM0p7bRRz6gkHfg3JexxdvwnBmigErVuEXQ/F9MfF5sDWulnUZ1x+md6J1zz8tCoGsTrSihWoZeWuDT6KI0Fcx4u1tagoRIefh3/ge8GvYrlg1ctg9ZHoOInXEklZbwoTE6GTwcJ8/eol3t/YgsMF+qCntR5kuscIFgoej0JCoSY5zJsMgCenKDVJ0st+cyRPbxJFkABLd4LOYfonJlZMnwFqjvHCaFvhDYT26U6MHLwZT/I7oVfbAswnIEQenw7P+WcQzpTyu6urMW3TbWjvrsW4eWcRwXxK+8lbMLVZLsiU5WFT3RQmJkKnFfQar16+x7VF87DzZkZlx/KUmCkhf6Rhsp+QqcT2863B7231hXm7tiNVdRpJYzwcqXn7/jR95UbavGYuDWhagao4z6Z/xO0MSfuCjoxvSAW57cFYUmUqYypUtTMtvfKeok6MoEq5uPMy0itmT6O3nyRvp7z85/VlqmLUbvk1IQweLYWe30k+UxyplBgWZCoq0WYird5xlh69uk4HNs6nXtWN+W3cuOvyvPVo4NI/6PjdKHp9dDTZmMpJJmNxmVuT06xp5JJf2PpRUagFTT18ho5Mak4F+W3eZKQs1oam7r9LMWLsEtkDX2/ikTFaen7pL9q0bCg1shS3woSCCjYZSV5bTtL9WKLop5do96KB1LKqNdk6jySfM8+SbT+nfbqHBlY347cnlSktyc5zDq1es4QmDxtPG64LeztmFMankHE+tfRshyuViJflFIc83y/ky+/x/Jwu/bWJlg1tRJa8bLJDUZCajPSiLSfvZS6MH4ykZZAhmhd0xqs/NStnTvpmFclx6GxatXEzrfOaTaPdu5Lr8NV07lX83pfRdN3nF6pklodq9V1C3lPaUUmjomQ/8TA912ro0bG55FRSKegfeT5q/Ntu+jcqvWdY9CFHaFLzguK2oEoq1mYq7b/7bWmdNMtT84T8N86jPnXzkjJ/fRq4cCOd5PeIZMReoIldJtB5YQdSlk9/2rpqDDUrHN+OZWRg3ZlmrttLAfG2gmIp5OAc6lGnMBnnrUrOw1lb3fQHbVg5m4Y7WJGhoSWVb9SZRm0IoHdP/GnjvD5UN6+S8tcfSAs3nhS2p+RCuTCRukw4L27rqqEQ/620akwzcQtPrpwNyLrzTFq3N4ASov7BSLNOs4A29Dzt9JlCjqVUos2VkapEG5q4egedffSKrh/YSPN7VSfmZApxyfNSvYFL6Y/jdykq+jr5/FKJzPLUor5LvGlKu5JkVNSeJh5+TlrNIzo214lKKgW9Js/XiPr9b2QqbUtMCKvjoFl1KHfpAXQsWjyVgsj9valE1XF0MYli19ybTw3ztaRVoUmFIP32KtySTtr5G7T0dO8QqmGuYP6GggzNClEN9zHUpZSSyR77u3AD6rv2En9nZshSXWVWn8Xepl2D6pAZvwU1a4tV3Wh7YABt6CZsT8t6YZSnwUjad+MojaiUiy93mV4xsh+9nU56O1Fe7jnmfxVrt5QO7J9EzQsK7VqmLEZtpu4nQYWloRPf36O1HYuTPm+TDamI/Qw6F8EVqw/9UsmM8tTqS0u8p1C7kkZU1H4iHeYKnqXXd3CS9FbpTduvBdD6ronpzdvoN/KLVwIMzaPTtM1rNNkXitc5cjK1caMFGw5T0HvhnpirM8jORLSfcnOq6bGKTt88ROMbFhTDZTJtXIiqdl5KzGWl12uYXFa0o5Ye02jVqgnUshjzKSYep9dcfPfWUsfi+iyvzH80LEL2k1fQoHTLbjHt2TaY6ojb/csMqlDv7dcoYH1XYTtddk6etxH95vdASOw3hoz7hyXyi6J5dA+P85dBSQPWyY18hGuXbuBxpAEKVa6Fn4p/PP/2Q2gAzl0NRZx5WdSoVQ4W/EQ61pO8dwZng1WwrmeLEtxGFDGPcPFEICIK10K9yvn5nRayi9hnV3HqykuYVbFDjaLxnzeU+JKwjp/4i7WqzxbbDwg+ewaheiVRqXJp5ElLWHQReHDpPG48jYLCJD9KVKyOCpbxWz5lMowskr35lMgKn1b2ary+fx2Bt5/gTYwMhvlLoUr1CiiYcgEQQxfxAJfO3cBzjRnK2NiiQv6MheZTnvlW+PKyrENk6E1cuxGCsCgNlLlMYVG4FKzLlUAeaclGtvBt6CcdIh5cwrkbz6ExKwMb2wr41GahuTwJPf9qg3VTaghz9FOieYiAG/qoWk3Y+IBH9wY3Lz9HkZrlkXLfwozba8Zp1765jbNn7yKm4E+oV9UAIRfugRkflC2QO0vTX3Nan2WE7t09nDkbDJV1PdgKThoeXTyBwIjCqFWv8ifW2TsEnzmLO3HFWRjlxR3EGLytPocbzzUwK2MD2wrZ6wNmng8IDTiHq6FxMC9bA7XKWfBypQ0NxiPzkrB8E4AzAWEwtK6D2mXMEmXqXTArqzuIK8781/IWkOVI2X0bfJWOh4TEp/CjOOQ/Sj6/RaSyz16k8vzv8f3X6Vtc3rwSR+QtMaBLRTycNxpH287BIKusuPTfB1L7k/gWyXoXVkJCQkJCQkLiO0T7YC2G9R6LsR6TsPPRcWx/XQudy/z3Oh0SEt8qOfbGI2lPW0JCQkJCQkJCQkLi+yEnugjSGw8JCQkJCQkJCQkJiRxH6nhISEhISEhISEhISOQ40uJyie+GH2WhnLQg8OshlX32IpXnfw+pTr8fpLqS+BaR3nhISEhISEhISEhISOQ4UsdDQkJCQkJCQkJCQiLHkToeEhISEhISEhISEhI5jtTxkPhx0Gmh1Ym/P0IHXZrXMkt2hPFp6DIZsU6rZalMncyGIZE2Hxchkzmt+FPii6LVfCzrnPxLSEhIxJPS7kl2MOf58ovLtU9xbtdeHPDbjX/ufwAXuSyXBQqZ6vA6PApyI/bbqiZa/dIbjpWTfE4+G9E9vYDdfgexf9cx3IsSsi8zLI3Gzq3QvHljGN3Yj4MsfX7Xw6HlE6hCQVsntG3RHI6Ny8CQf0LiS/OpC+V0Ebfgt3oxFq+6ghobTmGmrZ54hV0L88fyCVOw7UFeFI4NwGV1DfSaOB0jWhZH/F3qC/PQdfRevEymj+Qws5+CLRMawCATYWSFTOdT9waX103Eb3O248z9N1AWrgXnobMxd4AdLJI1HB0ibvlh9eLFWHWlBjacmomEIsh0GD8GWZaxqPs4umkVVm74C9ci8sG6khUKm7LCVRihVN3msIncjH0my7Cgc3paQ4vHJ5Zixvw9CHrPhExlixG+c9DGWLz8HZNmeWpDcc7XDwf27cQ/D6J5OwBZbtQfswXTmpvytyRFF74Ho7suxIUYIQy5sRXsndvCobUDquUTBTXyNv5asQhrdv2DYHkpVCqXD8rIt3gdKUPxeo5wrKvFn5sjMXZSTVw5eAD7dv6DB9FCeLLc9TFmyzR8HLUO4XtGo+vCCxCilsPYyh7ObR3Q2qEa4qP+kcj2Bcu6p7iw2w8H9+/CsXtRoiwYonRjZ7Rq3hyNjW5g/0E/ZrOvI1wwyFAVtIVT2xZo7tgYZdJsWh+3q6HLW+PJ0vnYef0tdDIDNJzwF6Y21Rfv/waJ+BcHNqyGz84reMXyrqoxFH/Od4S5eDkjMqyrnGiH2YT6zh78b/JSnAqNAylKoOvyNfAsrxSvfiaxwdg9bRQWHI9G4bIFoIp+i9g8deDSsSCunM2HCWObw0C8VSIHYML4VYje24sKynk5J73GS+iJlijyri8NrWlKTHxJlsua3Hc9JXY6h4ihv/sVJwWLi3kJVNjNj6LFKxya27OojkpIn0y/Oa0KEy9IfDW4uog/MkP0wxPkPcKRKluoiKlfgrI8jToXK15lRJyisTZGJFPVppm3NURvfKlHYQXJ9MpQr53xshfN5KSEKCdJDnkB+mXX20yGkTWSxpM2sXRjYRPKI7ahhEOeh5otu00sJYxoenjCm0Y4ViYLlYy/riw/ihKLIDNh/FgkLYeMiLy2irpaG5Fcbka1huyie1HiBYbmxWla5FyG9GWG5LQpyYU0iaJd3S143Qf9FuT9Sjz9nZNReUbv602FEuRPRmatfejpR41GSyHLmpG5vtiOoaRyw08z6U3k7aVl1KFMLpIpClKLuefodZIwtK+v0Lo+NciMxaPXYAE94K9F077ehYTy5g6ZGbX2SaW9akNoWTNz0hfbD5TlaPjppDH/eMTXJ3dkJzF/96PiCiFcRWE38ktukGlWHZUQr0yfmmfaIH/crqJ3uxLzkVk4uan95sy0za9MzBHqU0zB513PfgU9z4JRia8n7kiP7GqHn03sNVoydROF8nHHUeDkn0jFxZXSdn8O2lDa/ksJ0i/tRvtYb04glh4eGE8N8ykp7y++yXzBzyX22hKauik0uW5Jls8fj+ztomYBuZkpjFLEnruMI2bO64lSrFNL0bew9re5OKMWL2Y7CpiYGotvVGTIbWKS7O2KjEtf/GCBnjFMcou/Jb4TNHgRboCG/ceiW7XUhsR0eLhuMpZciWT2pyTKFmNdCzN7tG5gCpk6GBtGzcA/H9htUUex9aQxmjp3QIcOiUfHnmPQv6Vx5sLICcJ9scivNGafuIuHd/3h07sKjDl51b3GsaXeOM+1G80LhBs0RP+x3ZBqEWQmDIlU0d5fD9dW/bHl1gfkcZiH7fOdUDpJGSvy18XgTVvwm01mx80UMDYyZJrox0JuaoayFa1hzitfwru/12Lj3RTTobS3sHmnFvbN8ifoaxNzc1ZiAuqbS+HSchB23IuFpfN8rBtmK4YnIDevjh7L/bDJ3QrMiRGRw9SsLCpamwth0jv8vXYjPo56M3Zq7dEsvxigzATm5vExS2QnChNTGMcXc24TmCSpQ2aQYZpokGGcaYP8cbuS6elB73tqaDJ9GORwgrOjHX4+MQiYPwD/OxoGwfQwvyx3em+KPw1NwApM2/oQKFMTtRJe6+uhWIsp2LbMBfm0cWlOR84yMQGYP+B/OBqW1JimzOePR9Km/cVJrSmpypZBMTFVmpBABL7+evPtEtMnSzWtEt8yShSvbgurElVhV8UyFeUYBf/jF8DPtFMoxIZggPLlS7J7icmeL7acjMW7w9txocJgLFq+Dlv//BN/isf2NYNga5C5MHIC7RtLdPPyglt91l7K2KH38hXwsBJeQ+vCwxDGNRtlcVS3tUKJqnaoYvlxCWQqDImP0YVi4/AR2B2qASmKwWVwNxRPTZMa1MDAIQ7IIymPdGAdgJ/7onsZQe4o9gI2rL2UzCCrL27A4YKu6FAgqUYW0d7GioHjcYSbB6koAkd3J1imVhfyfGg5ZRIc8yWpDLkpfu7bHULUhNgLG7D2UrKYcXHDYRR07YDEqKXK/GokKfokM4gksoXPbIefjQYh2/ui8xR/vOPsaQ4S+28Q7mkI6hOLMGZHCIs5Hjks23nCqWg2GT5NCLb37Ywp/u+Ydonny+XzWyY1Ff1ViQu+jyd8vcugKlkNVfMISdS9vYoNo1zQ1rkbnOybo9e843imUyN4/2wM83CHm5sbPCftQNDN7RjTvjYqWFeDvecaXIviH88WooJ2YNpgIS63PjPg91yLl+d/x4R+4rm+y3FWrcXDowsxylM45zFqI4LUL3B8dlfYVaoOxwWXxdAkvhRyRWrqMQZRUWpeIVBMFKJ47aNE/vwWQqPQvsTtoH9xYOt+3NjuhgoFzWBWpDpaeszBvjvxQpWZMJ5xv7IdRZlGaFQ6SWdC3wpli3N/y6C0qoQKiUO7DDlSK4KshSERj+a6N5bsD+dHxeTmdmhaO+23GhYOw9DHRlhQows7A69BjmjawgU9XNrA0XMu/IJj+Gtpkd4z2odHsXCUJ9w53eMxChuD1HhxfDa62lVCdccFuJwzfd7sR88GfTztYMjJKMXh1h8+OBopXOIGCI5tuICqbm1hmooMq8+vhtep93wblOWugfo1064LuaUzxv3WJNnaJT2bPvC0E0bEKe4W/vA5isSoj2HDhapwa2uajQ6WRHbzKe0qHgo/jcUezWBjbY1qTXpght8DqHUv4b9sODzcWbtibct94BRsvPwct3f/D4Piz3mMwNy9txD14Tb2zBwKjz6/YfX519DpwnDGaxAcm7aASw8XtHH0xFy/YGYp4tEh7IwXBjk2RQuXHnBp4wjPuX5IltzY+9g3vQea2jZCh34jMGNnML5IU/6MdsgTcRO7Zo/C0GH94FKP2Y+ardDP6xz4sWPtQxxdOAqefPl5YNTGIKhfHMfsrnaoVK0VhozsgKau63EnlqAN3olxHsyfm7ZPCFeE3l6C98BWqMHqyqbVEGwOSiy0iJu7MHvUUAzr54J6lSqgZqt+8DrH6kO8nhRlwQLIy3QAxf6L37vURO1fF+BIiBiWvh1GjXFIXMf7LhCbx3ZFe5cOaFK9Ohp3nYy/7ovdsXTqWvfmApZ0agrX9XcQS1oE7xwHj9490cejbYb5/CEQp1x9cWJPDSUrpeCzxa/xiL6/h4bUMCG5TE5GZRxp3pk3ws0Rp2lSHTNSle5Lh99r6b2fOxVX5iabcacpMu4SjasizP2U57WmBh1H0qKZLmTFzcmV6VONqYEUJ4SSgji6MKaSMH8QSrIa5p9srqL2hRc10xPSJzPuSFv5qaAxdKy/ON9fZUsz/uVmwb+ljU7GwpxH/Xa0gbtP+5AWNtTjn1UU6UlzJtSnvPoK/h6V3VwuIIlPgCvP+CPzxNLpEeVIyT2XbJ5oDP3dV1zjo7KhyYGClLxe3ZL0+ThUVGvMDGpnJk8WL3fIjSuT29ZgJkEZh2E7/V/+XFZIGlem4dpBZdYOZCZkv/R+8vUZsadpRDklH17yNR4pSC+MH4SMy15D92bXFfUGa882k0ms9vR5c5RGVDMiuUF9mneXlez7g9SnpJIU+ZvR4utchcTQkT5FBVmKX+OR4TNaeriwIbFuDUFRhHrOmUD18+oT62QyebSjucFfvwYzKs/YUyOp7W9nKebVNupiKbY1uQU5bwoT5kSHbyPXFlPpWlwMHfQoIq61Ym1zWhCrCQ39O902oS442T6blmx/RCydGtmWfjsbQ6+2dSFLcX673MKZNoUJE6/Dt7lSi6nXKC7mIHkUEebYQ1WLpgX9iC0jEb4cxCM7ibswhiqJ6yqVVsPIP2ldal+QVzPBpkJmTB0Fg/xJ7SrGz40Kc6+kmZ+Ru2QzGjDfi+b+Wo2MmQzI9KzIc384xb3ypZ5FhTpXlhtO/LIezV1a0Cg3b8dluZrTSnGxRfQ+d6rb5wDzBN7Q0RHVyEhuQPXn3WXS+Z4O9ilJSkV+arb4Ou9fvDk6gqoZycmg/jwSktuHSioVlL/ZYhKa9FP607UEqWRKKj/cn6LYU/8ua0uFDYQ1Rjm1xuPz2iEj8gxNrGVKejWnEdc8tE9W0M+GLM0sDAfvB/w92ocLqSHvUymoSM85NKF+XtJXcPlSUpVfRpJTYaG8VRV708pt22nH39cpeG49oX3LTaiobWeauGwWuVhxa0xkZGA7nW4w3Rt5ZiLVMtWjmnxatPRkxc/EOk+sLTuQ9wM+dcmJDaBptY3EdSrCITMsST8PXU8Bb5IUbtQFml6f+Z0l3MnvbSxdHMv5izLSqziaTsekX9cfHp2lHbOcBDlj5VSx90ratnUlLVk0JZV8BokR/jgkGfv5emhvb0b/dvVQ+SdnLL4cjXy2Hpi3fjkG1DFjVzW4vmgIZp2LQL5GrdGAaQdj25oor4hCwPL58H1tDjMTIRzorPHrolkYPNQdTQtyXVo1ggKuJRltSAsdwv6eDY9ff8Wv4tF7yGYEfbTzogJm5snXgrAuMkzNUszNlnNpEs7oXvnhUK6FuBO4CYMcfoZrr9b8eYmvjT7qu7uhBjdvWHMDfruDoGZyEBkVv7OHEhaGBVGr7zAM9ugKh9qlYKoU6zTiOta4dcecQEWGYeS1zMc/k9NobjE5u6VBbpshmO7GTfXKOtkRxn8fDUJCniSOpOUySlwLliZqXJo/DEuuRUJe3BZ1ubVAxnVhV00furC/MWncZjz7aGguM8/IYc6UHx+97hX8DuXCwjuB2DTIAT+79kJr7pnvBJlFOwz4xQoqLjO61zj4+1Y80urwdOcuRDv2RCVhBkgKNHga+iKhLmRGJjDJcpZlsGg3AL9YMZeC/aV7fRC/b30Ere4pdu6KhmPPSkg1aokchZPx2R6J9vjX3twId0qD/CntKikGaDppO5YO64MRy6ajU0HmJarvYv3M3xFi1hqDe1bm5VETvBe7LqqZ+bdEiaLGkLNzFHMWe/dysqfBjQuRsO9tj1yX5mPYkmuIlBeHbd1iTH8ao65dNejrwvD3pHHY/PAC5g9bgmuRchS3rQshuXaops/5H5MwbvMzxFxagslbHiJOXggNW9SAIfRg/asHWnyhLQY/rR0CMSd84H3pHdQB67DqtJr1N4qhGPdqhIVx+uhF/o2N3NwMglukwyu/Q8i18A4CNw2Cw889MHhEa5QWFanMoiKad+gI56bl+b95ZKZoPnE1pvQfAvemBZkPRoi9cRFXomNwwscbl96pEbBuFU6r5bAoVox/K6N7fRpHL6byrkivGn7buh79bcwSZgLQhwc4srAn6tboiGWXI9gZLW6tGI4Z/u9hVKcZGprqoUK9OrBkfYa4x3dw+3T6db1VWQtt6pcWbQPTMRWbo0MnTwzsa59+Pn8QvomOh6JcNyzf44+7T25ie99KiDq/En3qWaGyy0oERtxjDfwqYpknJ3t5GVs3bsTG3YF4zfqruogrOHstUbDkllYoz71Dk+lDn1+MRdB+iEK0cDkd5MhvPxrea9dirXisWdQNFbLDblNFtOteHeZWnbFo32H49LIWL0h8bfSqj8Eu32noVLMg7i3uiDYeIzF6w2XEcReV1qjZtjvGzpiLRas2Y9/Zu3h8fQcmtCwBfSZaFHkB3iv/AWUQhk3Nj7ckzHaYcvdb4INrpvaYvnYsan3KPoDZEcYPgQxKleCk8sR8QIb7B2gC4ct1SjkdZm4BC16vqGBszA1Y6PDuxF4cfc/fmUiWnyFUbNcd1c2t0HnRPhz26QXr78pj1odt3z6ol1vQ2x9OrcO6wFvYcsgYXToVTcNQyaBvoJdYF9o4aPgev4juJQL2bsGmTcxmcHZDPDZt3oNLSRcw6duib596EKL+gFPr1iHw1hYcMu6CTkW/CRP5wyHPb4/R3on2eO2aReiW0iB/SrtKhtCWeQwqo1JZLgDm0AacxplIJSp37QQbzo/QBGPHpn8Q9eYgjipaojW30QBF4MS2XXgScwG77paHczUg0Hc3goTEwEJIDFTGxvzUJd27E9izfht2B3FTc2Uwt7AQBnZUxjAWbsCJvYdx5eAR3IljYcjzokD8ujylCYxzJUh5DvMp7ZBlo3IzOFS2RN7StrBhPSp12AuEizOSYmI/Hvqliu3Qvbo5rDovwr7DPuiVkbKSGSGPBTdllbV5faHNU1wkIqIUqNzMAZUt86K0rQ3rzKkR9iKcdUk5YpBK1DyK4u2x9HQA9s3siup54/U5ITrYF0M7DsP+V3exa8c5RDE/09iUdVDYVcOWc3Fw7yZsO7AQ5Y+mX9d70xe8H55vS6vmtkKHBcvRpxwTQorC3R3DMWC5P0JCOSPBGgHrfZiYmcEsXzOM37EHf+1eCbcMJqIT661/ze/ByMxKoOSPuNn7d4EChezHYuv5Bwh/dRuHvNxQSRnDGwa9qk7oUCGpMpTD2Lo9pv51HKudC7MntXh2KwivdFkJIyfQ4fWhcRi5ywSe6zdhYKVP2ZM+O8L4UVCiXIWyCbvi6J49xuPE1Ympo3mIB0+E0VqZgQEMxGflCkEvUHQoHj1LMZqb1WdkZihRMt83ptCzhqKUK/o7FuDzQHGBWD9qJPxL90Ar7sV3qujBqqJVQtnoXj7Hi6TFKM+H6i2bovCV+ejdwxWurq7oOWIHIqo3xU/xu1TxKFDKtT8cC/AxIy5wPUaN9EfpHq2QZtQSX59PaVdpITeCEb+4gZO9CER80EFRthM6183FNLkWj/dsxPbtx6BoNwOebTn9z/wR/+34Y/sOhFR1RkWlBg8fPGF3MmQsLYmJEdokRSP01i0IyZWx6waisyuHkFzm9IY+RGDIM6aNORRQim/YvzRZb4fsmWKd4HP1OZ7/0x8xC1ujnutGPOD1IoGf8JUMGcxKlMyGb+BwH2dVoFgnH1x9/hz/9I/Bwtb14LrxAYSoWdz8fclRB11GILdMU78EWozejEu3L2DDSHsU4+uM2xRmO9b8dQ3BD7nKIkS8fyfUK0xRsWU3dKxridCM6vpRzqzt/K/w2VWf7ehXRc0quYVGySrwesBjqHjfjTX0uDyo5dAGbdqIR+vmqM4biy9IFrfTkKlUwmtLiW8ezY2t2HmVqSxFIXQc7cmMiXghKcoS6DpzEGrry6DMbQTDFOKXqTCyEd3TXRgy5BhqLN+Dha3EbQ7VQThx8rGoLDMmO8L4cZAjfysnNBKnUmrDruJycAalJDNEbn4EkfutYC6FgCZO7LHIcsMo5XytrD4jY3rmu1c05mgzwBXl+XwwR87/DWr3rIP0usEWDi74OX4DkhdBCHyaoi6U+VGnUTWYi0WjsGqAFuWMPjZ85m0wwLW8oKuZQ+v/pjZ61pE64N80n9Ku0kTDnFjhl9y4AAqaMglRFEfHLg35LcZ1L3bjt5UqtPi5AJr84ixs+R97BnPH3sVPTuVY3DIY5hb9FvavIjExghPMznFb9icmN+EGJCbXCKb68QOp0fggftz4y5P1dshNe7u3bQDsKjfEmOuN4bVrJGqmWfYypquSvDX+XNT3sG2AHSo3HIPrjb2wa2TNdKe/Rl/0htfxhFXzkOephu5zDuH8zr6oyE9niMbLMDX0+NElHSJvXsVtsY4EMlHXRkb8L4nU+Uj/fnV0L/EsTHw/JlOihBUTqHL6rCoJ6gt74Pso0bDo3tzH/fAv+TpDBn29eMVA0MXrha+lHyQyBSWpqI9HX0Q0d7B6zApcjdOHtZsX5rVnDrguDJf27MTxe9ycz0QURaujUn5D/NTQDvHLi3hSC0O8lCNobmGV22CcKOUE2/eHsNrLC17LFmDCL72wOsQowRAnl9UUo0CZDkMiHnnR7hjXr6owwqq5il3bb4gG52OibpzChTfVYGdjzBsqio5EJF8BWuZYcG/GmG9cygY1U+4Bq/op68/8B9Cr4Yk+DYxYvuUwbeYO13LpS6DcshOmjm3If3+A4i7hL98HH3eWE7a6ZhpcLk9j7EgPNTz7oAHnschN0czdFRlELfG1+ew2oku0B9o3eMN93ZyTuwbNUI+faipHAceuaGrGwtB9gFE9JzTODejX6YaO1tySZy2iyzaFM78zoAo/2dkI30FijmukkBh+qjf/kW9lKdRo0xQ2wg2IjowU9LD2A6KEG1DKxhZ1qljxU3mheYK79+IniSfR31+IrLZD9fmp6NBzBc6/LQeP2cNgE9/DyjRJ22VWMqvG+akd0HPFebwt54HZw2wSOndponuGPSs2IySZomB13WI8+tZj9arIh3IV66FGFWHtrubmn9h8PulakYzr2qamJQsyyWcYErL0qfn8b/HVLBfFxvLrNvjfcfG/NXjsOwXLTwvzII0q9cX0gU3g1KstCjC5p8jjmO45H2fCtdC9u4rV0zbhNntGE2/1tew393/SIE4rBq6NE+f7pUSH2BhhK1ROAOLUccnFICYm8TnWk1Xz/RsFChYrLCgG1kF68oQJXeBqrDocLj7L4uUfiksYxYCOpVX8KfE14F6VRgn1wymJ1EaRom5ifW9HjPhbjjrDt+HQ8jbgXqTFHh4PR+cOaFq9NnptvpOwpaHuxT08NuuCUb+WSXTM0wgj54iA/6TuGHXwKR4fnI3B/fqhH3cMHI5pvmqUqWos3segCLwX880Z6MQiyEIYEkkwRN1Jf2BZh1LQZ2396tKhWBCQct9uHV76z0HPYTvxUmWJDkN7wlpPBt3jYNznFgBpHyEklOkfuTmaDPBELT1mQuNES0hMf2jzZeqZuERFA+13qGhIHYPI2CQaWlES3Qe0RyFVITh7dAC3R4gAIVYdr69ZvhP0tR4qDdmCbb/VR35FDE7PGw6fW6ksKP0IgjomkoUp/slQlOyOAe0LQVXIGR4duAWsIhQLNTefm4fZAm4OvkS2o4tlNlcsWmKGNHkxx4CZaxHOzjJhl39Cu4pL0khYxyE8LEywzxFXEXBXC5lhdQwY7YL4mXjyfK3RrVVeyJVl4NTFDnx/RFkNXTtVg54sF+o6twe/AzmTFssOQ9HTWg8y3WMEC4nBo5BQlic5zJsMQJ8WnTG0pzV7TofHwff5dYDaRyEIZZmWmzfBAM/aKObUEw78GpL3OLp+E4I1UQhatwi7+Gk/DM5XEn5lK5/XDrUIPnoEQZzXTWpERUUj/Lw/AvmOHIPVKz+UHBf/RoBzi1IoK4UJTHhPngXx+hVevr+BzRtPMj8qwbkT30gRc8e0YvxaxMUE4+iRIN7hJ3UUoqLDcd4/EIlRp7bIg/ipxb/OPIM3SZPBwrofSjBvMBxDWpaEc/9uKK2SMXfyDlYN+g37mVwh9imOLZiGv6sPSreuPZngKUxMhM4JF9+rl3h/YzM2nlakms8fDnF3qy+HNpTO/bmKJjgUIyX3GoMlQaYqQDUcO1P7JpWpcJ4CVLZGS+r9vz/pxvv4Z17QkfENqSC3RS5/vzEVqtqZll55Rbd9B1MdcctTmUEV6r39GgWs7ypsp8vOyfM2ot/8HogBCWhDz9NOnynkWCr+0/8yUpVoQxNX76Czj17R9QMbaX6v6sTkgw8D8rxUb+BS+uP4XYp6fZRG25iSXCYjmZ45WTvNomku+bntwWCDJO0AACsySURBVAiKQtRi6mE6c3ASNS8obJkmUxajNlP3090YMXKJT4avC/HIGC09v/QXbVo2lBpxW1HwzymoYJOR5LXlJN2PJYp+eol2LxpILatak63zSPI58yzZ1svap3toYHUzfntSmdKS7Dzn0Oo1S2jysPG04bqwnWNGYXwKGedTS892uFIJUcZTHvJ8v5Avv63zc7r01yZaNrQRWfLb+rFDUZCajPSiLSfvZS6MH4ykZZAhmhd0xqs/NStnTvpmFclx6GxatXEzrfOaTaPdu5Lr8NV07lX89ozRdN3nF6pklodq9V1C3lPaUUmjomQ/8TA912ro0bG55FRSKegjeT5q/Ntu+jcqvWdY9CFHaFLzgsLWljIlFWszlfZ/Y4omzfLUPCH/jfOoT928pMxfnwYu3Egn47e+jL1AE7tMoPPc9qIMTYg/bV01hpqJ21By+trAujPNXLeXAsStb7ntcUMOzqEedQqTcd6q5DyctdVNf9CGlbNpuIMVGRpaUvlGnWnUhgB698SfNs7rQ3XzKil//YG0cONJSox6InWZcJ7f+pTFTCH+W2nVmGbitphcORuQdeeZtG5vACVE/YORZp1+KswnOL/Th6Y4liLOz+PClalKUJuJq2nH2Uf06voB2ji/F1U3jtdVcspbbyAt/eM43U23jaTerq7tcqMieapQB7cO9FPVtjRx1Rqa1aUCmRVuQEN23P9If0fu700lqo6ji0kuaO7Np4b5WtKq0ORCEH3dh36pZEZ5avWlJd5TqF1JIypqP5EOx++BG32dfH6pRGZ5alHfJd40pV1JMipqTxMPPxe2rWX/Pt07hGqYK0gmU5ChWSGq4T6GupRSMtljf7M09l17ib8zM2RYV9nUDs/sHk6VcnH1IyO9YvY0evtJ8nbKy/tFMlUxarf0AB2Z1Jy4jcO4e5TF2tDU/XcpUVtp6N7ajlRcn4XBdJlhEXuaun0zDapjJvhWrN1VddtOgQEbqBu/nS47J89DDUbuoD+GVaJcnNzI9KiY/WjaftKbnPJyPiHz64q1o+XXosU4BN6yeKo6jaQxHo7UvH1/mr5yI21eM5cGNK1AVZxn0z8JDfs9XVjkRGW4bYFZWDKVEeW3+plG733Ibw+cYV1r7tHajsVJn/cfDKmI/Qw6F/FxPmecixDu/4GQcf8wIfou+BAagHNXQxFnXhY1apWDRU6v202L2Ge4euoKXppVgV2Nookfm5HIUWRJ5kh8vth+QPDZMwjVK4lKlUsjD7dhRmroIvDg0nnceBoFhUl+lKhYHRUs47d8ymQYWSR78ymRFT6t7NV4ff86Am8/wZsYGQzzl0KV6hVQMOUCIIYu4gEunbuB5xozlLGxRYX8GQvNpzzzrfDlZVmHyNCbuHYjBGFRGihzmcKicClYlyuBPNKSjWzhW9RPWWkjuhc3cUNTFlUK60H94gbOXLyPGNPSqFarIgqkJiOahwi4oY+q1YQF1zy6N7h5+TmK1CyPj/Yt5G3GOdx4roFZGRvYVsiP5KnRIeLBJZy78RwaszKwsa2AlMnVvrmNs2fvIqbgT6hX1QAhF+6BGR+ULZA7S9Nfv1xd6fDu3hmcDVbBup4tSuRmp2Ie4eKJQEQUroV6lVOWQeq8C2Zh3IlD8Vr1UF7cLSpDdO9w78xZBKusUc+2BISoL+JEYAQKs3AqpyhczaN7eJy/DEoyM66LfIRrl27gcaQBClWuhZ+Kf7z+S/0yCOcuBCPKpBR+sq0Iy6TBZVjX7xDM0nYnrjhq1Ssv7rz2ifn8D/FddTwkfmx+FIf8R8nnt4hU9tmLVJ7/PaQ6/X6Q6kriW+TjITkJCQkJCQkJCQkJCYlsRup4SEhISEhISEhISEjkODk21SrpKz4JCQkJCQkJCQkJie+HnOgiSG88JCQkJCQkJCQkJCRyHKnjISEhISEhISEhISGR40i7Wkl8N/woO3RIO5F8PaSyz16k8vzvIdXp94NUVxLfItIbDwkJCQkJCQkJCQmJHEfqeEhISEhISEhISEhI5DhSx0NCQkJCQkJCQkJCIseROh4SEhISEhISEhISEjmO1PGQkJCQkJCQkJCQkMhxpI6HxFdHJ/4/x9FpoU0zMh10GSVEy54Xf6aFLsNAcpDPzZ+ITh2DGPVXzMd3zMdlzOokI6GRkJCQ+Ab5qvrsi5kgydZ9ab78drraUJzz9cMhP18cD44CF7lMzxyFi5hDTxeHD+9e4uXbGGhJDkvHefhjUH74L52B+XuC8J7Jh8p2BHzntIGxENoPTcS/B7BhtQ92XnnFykuFGkP/xHxHc/FqKmgf40Qmy1L7+Cx8j57EUd+D+PetTqynIqjbvg1aNHdCg1L6wo2ZIK10au+sQeeWg7A3qibG79qP8XVzi0+kzqduDaiLuAW/1YuxeNUV1NhwCjNt9cQr7FqYP5ZPmIJtD/KicGwALqtroNfE6RjRsjj4u7TPcHzhGExecwGa8tVR4MVlXNNUwS8T52KcQ3EouXveBmDD9ClYtOU4bj77AP1iddFt0nLM71kJhtz1LJLVfKabvzeXsW7ib5iz/Qzuv1GicC1nDJ09FwPsLFIdddA934lfa3fF8Zb7cdfLHpmv5f8GWZaxqPs4umkVVm74C9ci8sG6khUKm7LyVxihVN3msIncjH0my7Cgc3qSoMXjE0sxY/4eBAkNEyN856DNf0DJpVmeuhe4vHc/DuzdiaN3I3nTL1OZoWDRPDDQaRATEY6w1x+gYc+o6o7G3zNbCc9JfHWyY4tW3dML2O13EPt3HcO9KCEMmWFpNHZuhebNG8Poxn4c9NsNv+vhzGZwF1UoaOuEti2aw7FxmbT16kc2biiWtgrBku+1bUX8iwMbVsNn5xW8YgWhqjEUf853RDpWPhlfR599Jto7WNO5JQbtjULN8buwf3xdpO8ZJKJj9nnv/gPYu/Mo7kbyWgUqs4IomscAOk0MIsLD8PqDhpWFCnVH78Kvz3qj5aC9iKo5Hrv2j0fqLogad/b8D5OXnkJoHEFRoiuWr/FEed74S3wSTBi/CtEH3KmwgvdnSVl+FJ2LFS9QND06sYhcyhpS8b5/Uwx3KmoXdbeQ8/fqt/CmV/x92U/stSU0dVMoacW/vwdijvShYnw56pH9iucZpz1LZRlHAROqsibKhS8jY6cN9Ea8klVSS+f7ze3JWMbOyVRUe+YtYk5GunBpjj8yQ/TDE+Q9wpEqW6iIqV+CsjyNShQ0oohTNNbGiGSq2jTzNov9jS/1KKwgmV4Z6rXzKUvjezo+sgoZypRUceQZJpmM6NM0orySZLmq0G/+USyMMzTdsSl1GvgbjXRvTmVzy/j0yVRWNOQE/0SWyWw+M8xf7A1a2CQP68Inhscd8jzNaBmX35RoQmidU0FSQEFF+xwR2t4PRtJyyojIa6uoq7URyeVmVGvILmIOVAKaF6dpkXMZ0pcZktOmJBfSJIp2dbcQ6kq/BXnnlJL7wmRUnrEnBlFppXBdUaIfHU0QOg2FB26jkfXzUa7Wv4vnJL4FMqrTzBNDf/crzvQNF5aCCrv5CTpWRHN7FtVRCfHI9JvTqjDxQkZ8ZOO+87YVc4T6FFPw+dGzX0HPs+CgxNcTd2RE9uqzz+D9ZmpvzNlRGalqz6RbGTkGHxFLJwaVJtYvYGEoqES/o4m2TBNOgdtGUv18uaj1749pc3tj3nbyPkB6EcUF0uSfVHw5JvdXJT6FrzbVSm5khNyJnfEkGKBow8HwWf4rSjGNxKMwhpFhqjdnHzEBmD/gfzgaphZPfB/I9A2gl5WiyVJZymBiYpTw29DUjNXOp5FaOo3bT4PPBHf0HrYciz3LIr66swcNXoQboGH/sehWLbXRGR0erpuMJVciIctdEmVZrwhm9mjdwBQydTA2jJqBfx7vwqJV1/GBNZP8RYoJb0AMfkID2zyQRd/E1i1n8OjUvygz1w9bl8zEHG8/nPTuAEvOwsU9wLmzjzKcmvXpZJQ/INx3EfxKz8aJuw9x198HvasYs1pkOX99DEu9zyO5pGtwy8sDw/c8y8E0/3fQ3l8P11b9seXWB+RxmIft851QOkk1KPLXxeBNW/CbTWZbjALGRoZ8/fxIyE1NYZRqphXIU9kFs7ZMQwuTH61UfhQUMDE1Ft+8ypDbxCTZW1iZWRLZ0DOGSWaHvT+ycd9525LpwyBLRj7rZL8++wyM22OazwS49x6G5Ys9UTbLjoEcpqZGqde3Ig8qu8zClmktYCIzRvtpPpjg3hvDli+GZ3oRyXIjdw6+5PnR+Godj9RR4/L2P3FDw2SvQRe4VEpDeLIbTQi29+2MKf7v+KEBiaQkqYHsrgyD8nCZ4g2fee6oZZ7doqhE8eq2sCpRFXZVLFPp1ETB//gF8G/5FQqxIRigfPmS7F5iIuGLzYeeICyauyEO5zatRkAMfxO0/EIKGVR6BijQshdcysRPbZIjXw0bvsMs0y+HRg2LpxJvdpFR/rR4Y9kNXl5uqF+mGMrY9cbyFR6w4l8P6xAeFpZsZmvstfkYtuM9Cqi+SIv7vtGFYuPwEdgdqgEpisFlcDcUT018DWpg4BAH5JGKNMvoHu/GjlOxkBdsgfaNLcSzEj8aiU1Hlu3mR0Lkm9NnzA67TIG3zzy41zLPRidVh8e7d+BUrBwFW7RHYwsFc0FcMMXbB/PcayHbXRCJNPm2ilr7CP8cCsA7ziPSt0MfT1thlDkDtA+PYuEoT7i7ucHNYxQ2Bqnx4vhsdLWrhOqOC3A5lt2ke4urG0bBpa0zujnZo3mveTj+TAfdmwtY0qkpXNffQSxpEbxzHDzcPDFt31PuIYSd8cIgx6Zo4dIDLm0c4TnXD8G8A6rFo2OLMMrTHW4sXo9RG3Hx2maMcqqDClblUavtaOy8r4b64UHM6tkE1cpZoUqTPlh74wP3MI8u7Ay8BjmiaQsX9HBpA0fPufATAk+T2Pv7ML1HU9g26oB+I2ZgZzCXuZTo8PbqBoxyaQvnbk6wb94L844/S+Zofj7px5FROnVPT8FrXD+hztz6Yunp9PP9OcgVqWnKGERFqYV30DFRiGKdXc6Zz59fXPugfYm74SVRvTDn0hOiL82Ac5cluBgWgLOX3wJ56qNvr9op5FOLBwcO4Ya8DDqv2o5Jdb7MConU86dAmUaNUDpJj0TfqiyKc3/LlLCqVAEq4TTrg53FtOH++HleX5ST5q1miOa6N5bsD+dlXW5uh6a10x4FtHAYhj42gpR8SntP75lM6b3vlDen9uNEmJYVcDF0d2vDn0u7LHR4fmo5Rou62M3NHQMmrcWZ6/9g+WhWPh5DMX1rAN5krwKU+GqkZ5czghBxZgmGunNyIsjKkBm7EBTFQn12Fr9PHsjakwf69nWHh3iP+8Ap2Hj5OW7v/h8GxZ/zGIG5e28h6sNt7Jk5FB59fsPq86+hybCNZyLtsfexb3oPNLVthA79RmDGzmDkZFP+VH0WcXMXZo8aimH9XFCP2ZOarfrB69xrPpx0dVO78fCaOwqefFl6YNTGIKhfHMfsrnaoVK05BowZjX5iOfddeppZaoF3gZsxtmt7uHRogurVG6Pr5L/AXKws8Aan9p+AoFa6opXZRozrJ+qMvkvBuSDvLq2CZ8umaOvKzg2djgUjh8Prdso5AIS3l7wxsFUNWFvboNWQzQhKqL+0/CItHh5dmMxfDFK/wPHZXWFXqTocF1wWn/9BEKdcfXFiTw0lK3FurzBnLpbub+lOZSsMJ/+U8+e4OY5FhTmOqa9L0NLDhQ2JNQeCogj1nDOB6ufVJ+aPEVR2NDf4LZ2eVIfMVKWp7+H3pH3vR+7FlZTbZhydvHWWdsxyEtebqKhi75W0bfsO+jvoPb05OoKqGcnJoP48uqshen+wD5VUKih/s8V0nUuj5h7NsRPm/clzF6FqDn1pzuJR1MSSS6uMjG1ak1Ob3jRzxTRyKqkkGTuXi4XFT69/c5RGVDMiuUF9micETn3YPYr8zWgxH/jHaJ/+Sa4lVCRTlqfh3PqC2H9pWdvCZMDlM8naiYjTk6iOmYpK9z1M77Xvyc+9OClz29C405GZKMukaCh4bj1xjYecLH/9K2EObnpxZDadbzY5kQl/Tp9a//5WCDgduDTHH5knlk6PKCfM90y2BiKG/u4rzi9W2dDkwDj+7OvVLYl1F1gcKrKdfpNCd7lT+VzCug2uTg3z5qO8FbrR6ivJ0xsVcpLWjXckK26Nh0xBeWyH076nWZiMm4Ss5TOt/H1M3KVxVFkFkpnY09L78fNZX9ORIY2ovfc90kRtpvb8GhVpjUfaZa+he7Prim0CpLKZTKLopE+G7T2GjvQpKshj/Dz0DJ/JSO/F1/HXI6PyjAuYQFXFefzxazxi7v9JvStYUpc/k8wlz7Asouna7IZkKufCUlLp/kcpiiJoT++aTLZvJls7IPF5ZFSnmSeOLoypJLYlJVkN82faLBHtCy9qpifEIzPuSFtFccjQLn9k41K0rbAXtKdXSeFvmRG1W5+4cjHK15Ws2vpQSJgv9RTDUJYbTqe5cDV3aUGj3MKagFzNaaW42CJ6nzvV7XOA3mbCpmeYdu1T+tO1BKlkSio/3J/JcCz9u6wtFTYQbFD2r/H4NH0WeWYi1TLVo5rTglgIWnqy4mcyZHpHbuFA3g84vZO+bpp9aj415OtWQUV6zqEJ9fOSvoLLo4rspi4gJxMhv/qtfyfO0kZdmE71mb9Rwt2P3sZepLGVmN8l06OKo0+nYqeSrk2NX+MRQ/f/7E0VLLtQolp5Q5ucTIT1kfqt6ffHfuRRQkn69svpGSvjmFtryLlEZcGmaoJpbj3R1zMpSradJ9KyWS5kpeLsvQHzFW6wWDPwvbQPaWFDPT4MRZGeNGdCfcqrr+DjV9nNFZL0g/BNvPHQPTuA8Q7VYNN9M5jMimezghzmZibCq1jdK/gdyoWFdwKxaZADfnbthRbvlmLIrHOIyNcIrRsYQ25si5rlFYgKWI5FF8uiTf3S4lxSGSwqNkeHjs5oWvo25g9bgmuRchS3rQtuCYBxXTtU09ch7O9JGLeZ9WIVeWBuIhahQS0M/30ZRg6agJ519FlIhMh/o9F0mTd+6zscvZvk48/FBF7EtVg1Ls0fhiXXIiEvbou6QuCwq6YPXdjfmDRuM559NDrHnlkyGVsexkFeqCFa1DBkPrw1fvVoAYuktai5jkVDZuFcRD40at0AxnJj2NYsD0VUAJbP90W4eNtnkW4cf+JoZtLJyJUnD4y+mgTqo767G2pwFa+5Ab/dQayEdYiMiua0Ff9WIK+lJQo5rcTRnQNRjZ8zTPjw6iXCH1zE8cDnyUah4iLf4PXbD8L6CNLi9fmF6DVwC55/M6OsGtzyO4RbmtywGTIdbiWZzLH8vtgzCv976Y5FvUvn4LSw/xIahIQ84Uf1eHIZpbFGISmf2N4zfCZ9vdeae+Y7gsJPYGZHO5Sr0glr/k3aujJTFgaoMng+Blc3YOWhwf1NM+C1cyG2GU/Cyt4VPnltmsSXgrOrs+Hx66/4VTx6cyPJKQeb1ZcytsvirWkizw+HcYPRgGu49AEnd+/BC/4hLR7e+oBmfTujeL7WGNyzMriZp5rgvdh1Uc18WEuUKMr8B+6xmLPYu/cFi0uDGxciYd+7Ae5mJKMxGac95tISTN7yEHHyQmjYogYMoQfrXz3QIqXxzDY+RZ/F4ISPNy69UyNg3SqcVsthUawYTNlzutencfQi13bT101tK+aBsHRLh1fMLuVaeAeBmwbB4WdX9GpXFnmSOgbaW1gxfAb83xuhTrOGMNWrgHp1LFmXIg6P7wQjcQ5JahDCT8xER7tyqNJpDZKpFeRCnjxGCdN+4gL8cOSxBmr/xRi+9jriyvXE4kkNofchuU8qM22OiaunoP8QdzQtyJ6mWNy4eAXRGflecnOYievVdK/8cCjXQtwJ3IRBDj/DtVdr/vyPwldz+5IiL9gS0/ZfxcXfO6DIZ9tKQsV23VHd3AqdF+3DYZ8eUB7Yi6uxTHhkL3F560Zs3Lgbga9ZR1UXgStnr4nPJUcT6IvdQdxUHBnMLSwEp0xlDGPOAdW9w4m9R/Gev1NAlisv8plyxSmHgT7ra3Po5UX+vNw5GXLp6/GNkGIiEREdCF/O0eWSZG4BCyFwGBtzC+B0eHdiL44mDZxDcwcHj9xBHHtGnrcALMVyUpoYI5cgyzzae3ux92osn+6Xl7eyvG7E7sDXIJkOEVfOsk6PeONnkG4clw9i86GM0ynwdeft6lUfg12+09CpZkHcW9wRbTxGYvSGy4jjLiqtYVPTFJHXfDB61AY8rzcEI1sW4xfIU/QdbOnTERNORvHhcJhWbIuhSw/h8tEZaMLXuQ4vj/jiePpa8Yuhe+2HBT7XYGo/HWvH1uIdMd3jLRg2X4ZhCzqj6DehCb4HZFCqVIlyG/MhA8PH0HxKe8/qMyn1Xi9Yf2fT5mQWjTDmz9PMiP8BzypJVnJmtiz0bTBkcjfeoaN3xzB2xEN0nOCAfJJsfwfIkd9+NLzXrsVa8VizqBsqiPYjnqza5bRQlHJFv3aWLFYd3h5Yid9vsR6O5iZ23iyHbk24VexKVO7aCTacwtcEY8emfxD15iCOKlqidX4mUBSBE9t24UnMBey6Wx7OlYIylNHDZzNK+2FcOXgEdwTjiQKJxhPGHxvPbOIT9BnLV+VmDqhsmRelbW1Ye1Mj7EU4hFlPMYhNOm2MJ33dRBXboXt1c1h1XoR9h33Qq5wCSXYBhvbuLuw4F8W99oKpGVcmhmg59yD2btqGA0u7ZLC1sAwWjcbgz9M3cPEPTyRVKzxJIpLnzY88rFdJMXfwh0c91HH1xrO2czHeLvmUaZlRHlhws81k+tDnF/0T4iIj8P5OFnwvqoh23avD3KozFu07DJ9e1uKFH4NvSCXroXS3KehTQ5g/+MnIzFCiZL4kGeN69KGs6bO6/sCEwsQMZmb50Gz8Duz5azdWulUQbkuB5uEDPOFHW2QwMOBG0TjkUPABE6JDH+FZytGYBJK0mgTiz+mgUz/EAyFwyFjYBuIluRA4c2xD8Shl4NpH7Jw4LqFQQplaFAxNSAhChcwilkxYXs2Qr9l47NjzF3avdEMFsU/0KcR3E9KNY6kd1PHD/Omk89tAgUL2Y7H1/AOEv7qNQ15uqKSM4RWHXlUndCh0GMOc+mPTv6ZwGjkTc3Yfxcr2Rfg8UcxNrF6yB2/FkOIxtR0Jn4mNYczdE8uUUbR44Wuie41D40Zil4kn1m8aiEq8HlXj4rKZ8HsSgAUdG6Nhw4Zo2Hw6/HmjwTpNe0ei5ci/8I77UyIJSpSrUDZhhzbds8d4zK8PSgfNJ7T3rD7zkd77fjGy7oTZ4x0TOwxZKAvzluMw2t6MlQNzBp5dxqV72TDSIvHN8Hl2OSnmaNOvO6yYMqeYi/BZfgKvz2zGrYpdEO+CKMp2Que6uVgcWjzesxHbtx+Dot0MeLYtzCwH4YP/dvyxfQdCqjqjIjKW0ZDA4AzS/hCBIfFvbBRQfhHj+Qn6jKWtWCcfXH3+HP/0j8HC1vXguvEB87QYRCwnKUhXN8lgVqJkuoMDccHBeMiVG+vsvX8nVq5pRbTs1hF1C2d2dMUI1p1mY7xj2jpSYe2O8T3KCnWne48bG/ujKfMPjr0V/Zn00GoRmwXfS2ZWAiV/4BGRbyvnitJo6lAdZmKqdI98MGcdt8g7C8hUUKXYmUelEoSTPsQhTy0HtGnTRjxao3n1Avy1lMgMcyds9ytTiCMPrGnFiY1SljszryTTQGaI3ImBCyMfDE1i4DD6KHB96MULbvQHYTem1FCpmCphMOGPy1MLDgl5bYPWzaujQLo1rsWD7QPRtEYduCw8j0j+XHxEzBnXF5VlenE0qwCz+L5jeun8BtHc2IqdV1kdKAqh42hPlD6zHXsecjt9lEGlSqzw9cqgx7IZaMO/9tYhKuQennykpJlSdmiBqqyAFHlLoISJePqrocPTXUMw5FgNLN+zEK240TqGOugfXAiPQeSDSzh58qRw+AchjP9aFyEm9CrOXH8mjmJJJCJH/lZOaCS+MteGXcXl4Aw8nU9p71l9JhW99z1jXLcFGuUXc52VslCUhEu3xvw0DooNxPLJ6xCSQfVIfD9kp13Wt/WEm9ixCNkyCwOXh6JO5/KCbeNQFEfHLg35QSTdi934baUKLX4ugCa/OKMUu4liz2Du2Lv4yakcFJmQUWPzxE8IpJV20/jZEojGhy9iPD9Bn3Go72HbADtUbjgG1xt7YdfImmmXe7q6ScauJXnjkgoyfT2hY6SLxM2rt4UOzidhjLotGiFerXyEvAAcVx6D7/gmKMynV4f3AUsxZPbZzNnBLPheMnbvf0hdZ5l03dAvjx5qdHJBRb72InBy0R+4ny8Pf+XTUaF85XLQZ5VM6gvY45vk2wq6N7h/P5yVQpIpP2JbV/1kBxtO43AjEZGRwmktc6RjuF9KlLKpyX+v4ZNQ/QQ7G+GbChQdiUghcKZouNF2FnopG9RMGbiqPCpbcWtHmKp6chf34kfSSfiqeDyq8pVRTsgsLuzxxaPEzOLN/fsIT6/zrn2APxevwrHL5+C7/A9cZq1Nw28dyyGHZZHCfMNKN47HhihZNuN0fklIFx8zcQMyqaO5g9VjVuBqnD6s3bwwr31+yHU6liMOJh9chhjyAs3R7CeuFGQwKKjCIRcrFKvZG+tuJr6gpqhIfGAlVcKxE+p9gY2t0suf5tYquA0+gVJOtnh/aDW8vLywbMEE/NJrHYz/F4BXb97gTfzxbA3a8WtZFCjSew8e7/wV+YRgJJIgL9od4/pVFUbGNFexa/uNNI1h1I1TuPCm2ie090/QEf8h5IXawCm+8WSlLN4ew/xDJTDAmRuV1uHt4VmYfijle0mJ75VstcuKUnDt4wBuZqzuzTH4qZuhY7GkD8tRwLErmnIjoboPMKrnhMa5WYelTjd0tGYdBNIiumxTOHNbB2ZCRm0b18sg7baoU8WK91WY8cTdROOJBBWfA2RZn4XF4PzUDui54jzelvPA7GE2aXyTLXtQVa6BKrxd0uDmn5tx/pNfYspRqI1TmjZZ98wPO/yN0GLqYVz0m4imBZWsPrV4ePt2JqafsXR+ju/1g5HZJprtkFrNz4fkf7OGmqxzrw3DmXld8cvKDyhWmhsBUCNOrESKi0NcKhUYFz9swCo5wVfmYcrDqRfaFmDKgSJxfLon5p8JZ/e8w9XV07DpNtM/Jib8qAa7Aa9fvcT7G5ux+XYLDO1pzXraOjwOvs/P+9c+CkEoS7TcvAkGeNZi3aQ45pgLCSetFvHr4nU6MbEaTUIDjtPwKwfYjdwIRz50GNoT1qwbr3scjPtC4AgJVYPk5mgywBO1Us44Y71xp54O4KeXvj+K9ZuCoYkKwrpFu4TXkIy42Fh2mxN6tS3AjC4h8vh0eM4/g3BWIO+ursY0LrPplaWiIH6qyk0lUqFMuw6ooUd4/z6CvyTLVRWtHYSP/KUbxx+v4dAj43RyECsfbjorR1xcTo2tEyLeR7F/uZ/RiExtFCnqJtb3dsSIv+WoM3wbDi1vw49O6NVvhxYFWY61t3D5sqh6NGEICyfIVKXQ5de8OHP4Hh5fWgu3+vXQc842HPT7HaP6LsetUr2xcEIjZPabV59OOvmL8Mek7qNw8OljHJw9GP369eOPgcOnwVddBtXzcXNmuamH4mFigPideWUqQ5jk/sxpj/9ZDFF30h9Y1qEU9JkOuLp0KBYEJK73EdDhpf8c9By2Ey9Vlplq7+rEhsnaaOZ0RNp67/tAF8v0UbzIMh2QqhaQZ678mOcA31HLoBgwDZP+Nxh1OGdF+xCbJy9GgDTj6htEh9gYbs0DB7HqjxN/i8TEJMoDs59qJt9yyw6ZsMsf27hkbSvB6MmRz6k/upRW8jLWtkc73m4lRZ6vNbq1ygu5sgycutgJmxQoq6Frp2osDblQ17m9sEV5JmS0dtGM0l4bxZx6wkEwnji6fhOCNVEIWrcIuxKNZw5srZtFfYZgHD0SBK6/ROooREWH47x/IN6LxRrL6o0jXd3E6iXhasqLzEfSJDoG0Fg6o3+30uA2kNLcWYVBv+1nZcbieXoMC6Zuxj2xaBJhcpVEluKYr5k6LDwmV8J9TC6i72LtuHk4G6FAQfvJ2DK1GXLJlChvUx1G7DpzVwSYr8dHyflyov8HbRy0GfpeLI7ETLNU/sCIu1t9OTRP6NwOH5rUhtsyjq9z1upMybpZF+rR05W6OjenmsWN+W3XZKYutPXdIzo214lKKoXt1eT5GtNvu/8VAxPQhByhSc0LitvjKalYm6m0/27STda09OLIeGpYUCVsnSZTkXGhqtR56RV6z13W3KO1HYsT66ySTGlIRexn0LkIdj76Ovn8UonM8tSivku8aUq7kmRU1J4mHua2g9VQyIHx4ta53HNlqdOq8/TvyXnUVtyGD/9v715gqrzPOI4/h4u10FqwCuKtiIgWqFSKUFNiu2nXkoyJbbfUbV26Wbu4VdN2M65llWldIm5NmrnEUp1262UJsZvBmiaaaddEoAilE+dkSlUyFFsL6xzM6jn89p4DKLpyAOVduXw/yUtyuLyX//0573seQicpd90e1ezboAem+NPp+q81RvOe2+XfuWo2P6LUqNHKXPorvbx6gabcMEnzV+3qPl2e76R2PJmh6FCPPKERihqfoSXPLFJCmHN85/WEuUu1tbJZvtO79dO74zrK16PwG8cr7eENer+557L0Ne3T+gVJSl5QoE1b1unrieEKHztb33/t8GVp67o9hr9Ae3Gev3mrRIV58fI/YuuM2oqZl6+Sw8GTXgbKtGPrmU+NlSV67ddP6Z6OOnIiK8V9eYU2/v5dffiZUwMnK7X9xWXKSZuhrAdXaHPpqUBKvEt8OvPnn+urCZGKSHpAPyvarPWLMxQTO1uPba1Ri69RO5an6aaQ9vL0b56waKUsfF67GvwpBa9O5778W/d6uL7/nNK2QFrGS/u6tIVo7CN/VJdkpe1Ip3tZOfXIe1qlG3+or0yP1nVRKcp7qlBFr76uVzYWauWSb+o7P9qk8jOdnTlYf/eqfs8vOlJuO8cOGasv/WS7/tYSfIzoedz74nVbnk7fqdy+RWsfSpKzVgv83BM2UffnF6l43wlndL1SsLLw6VTpb1XwjVSNGpmmJW+8r7/sLtB9nf3CE6mZ392kik/6kIcU3eq2TvvA1/Ce3ty8WnkJHXOyfw6Jz9WqTdtUVn9GNW+/qhe+N0s3do5fIWOUvWyD3th7RC3B5mXvlXPcPfrB8ys+p291nIjT0g6tm6PIqU9oTzfTz793LlZ8Wr72d5kcvEdf0N1jc1TU0LVN9WJOD7qm8PPp5I4nlREdKo8nVBFR45Wx5BktSghz2rHzesJcLd1aGfjN3uhTXfV6PGvROz9O1fX+uvGM0OT5K1X87staOCbEOY5Tj5MXaMPbO7sfm7zHtbvgPsUF/oWBR2GTc7Vm55H2+cZff4V5iu+sv5h5yi85LP2rQi8uTAyk7DWPc4wbYpR070rtOHH5SOFrdOb0LWv1UNKIi+0qbOL9yi8q1r7Lftc/5hYqL77LuuzpZZp/S4ruynlca4uK9FzOZMXetUp7mz5T7R+Wa06U//qcccoZYx4rPqDq332rPZ2u/zxHz9WKt+qCrIuc9aJ/TIrrXC9OVu6anRpgw/X/jcf/xSmI4aG1warLP7CGC9E2LSPTpt8ceKarw6dWV1pmf79wi2Vm39qRlcKvzc4eq7Tyg43mjUq0O7KSLaYf3whuO3vMKssPWqM3yhLvyLLkHnfus+baMis7cs7i0rMtbeRxqzhqFp8yzcZFXjxpR6s1VJfbBw0XLHpahmVOv9m6Xm1wXvuk9j3bf/hj846Kt1lZt9uEK7NBBAQ7Rm/Ps/c8XTJQXHuzbbW6slJrGDHFUm+baqODFbu32eqqquzQqVYLG5Ng6RmpFnsxP6dznUcrrOLQR3b++jE2dWaGJcde2/NV/Xud6IurK/vz1vRhjR2o/Yc1n/NYREyCzZyVbHERV7x96uh7f7+6vxko+rstD+ayGCoGxvjUf/Oyt6rAHi3JtVdWZ3z+HOk9YdUHr7O028ddekSkrdn+WtVoE2ffajd1fKtTz22053P3NddaWdkROxeXbtlpI+14++Rp08ZFBp466C3XxrO2T+2os16qC59h2VnxgTv75+r32zsHztqEzGy7zZV+ed4+PlRuFXUtNioh3bJSYq1fj+JrsLr6aJsS22zVpdX2UcQMm3Nn4sXPHPfetay9hofhFXhgUBsuC/Lhcp0DEWXfvyjPoWfw1+k/rer1l2x3SI49sSjFTvxypf3pa+ttedLVvSE2kNH/MBD1OZYDAAAYjHzHttrTi5+1Zx8vsDfr91pxU6Y9nDj0gg5goCLwAAAAw0Jo7J02Lz3aQlr32Jpvb7OERx/8nw+VA3APj1ph0Bgut425Pf7Foez7F+U59AyJOm1rsdP1TRY+flLwz/cNcvQ/DESuBR5dGzwAAACAwcONEIEbjAAAAABcR+ABAAAAwHV8xgMAAACA67jjAQAAAMB1BB4AAAAAXEfgAQAAAMB1BB4AAAAAXEfgAQAAAMB1BB4AAAAAXEfgAQAAAMB1BB4AAAAAXEfgAQAAAMB1BB4AAAAAXEfgAQAAAMB1BB4AAAAAXEfgAQAAAMB1BB4AAAAAXEfgAQAAAMB1BB4AAAAAXEfgAQAAAMB1BB4AAAAAXEfgAQAAAMB1BB4AAAAAXEfgAQAAAMBlZv8FkZwLjCWxpIAAAAAASUVORK5CYII=;" vertex="1" parent="1">
                    <mxGeometry x="970" y="1420" width="491.52" height="170" as="geometry"/>
                </mxCell>
                <mxCell id="210" value="R2(" style="text;strokeColor=none;fillColor=none;spacingLeft=4;spacingRight=4;overflow=hidden;rotatable=0;points=[[0,0.5],[1,0.5]];portConstraint=eastwest;fontSize=12;strokeWidth=16;" vertex="1" parent="1">
                    <mxGeometry x="1050" y="1380" width="40" height="30" as="geometry"/>
                </mxCell>
                <mxCell id="212" value="título, año," style="text;strokeColor=none;fillColor=none;spacingLeft=4;spacingRight=4;overflow=hidden;rotatable=0;points=[[0,0.5],[1,0.5]];portConstraint=eastwest;fontSize=12;strokeWidth=16;fontStyle=4" vertex="1" parent="1">
                    <mxGeometry x="1070" y="1380" width="70" height="30" as="geometry"/>
                </mxCell>
                <mxCell id="213" value="duración, tipo, actor, estudio)" style="text;strokeColor=none;fillColor=none;spacingLeft=4;spacingRight=4;overflow=hidden;rotatable=0;points=[[0,0.5],[1,0.5]];portConstraint=eastwest;fontSize=12;strokeWidth=16;" vertex="1" parent="1">
                    <mxGeometry x="1130.76" y="1380" width="170" height="30" as="geometry"/>
                </mxCell>
                <mxCell id="214" value="3FN" style="text;strokeColor=none;fillColor=none;spacingLeft=4;spacingRight=4;overflow=hidden;rotatable=0;points=[[0,0.5],[1,0.5]];portConstraint=eastwest;fontSize=12;strokeWidth=16;" vertex="1" parent="1">
                    <mxGeometry x="970" y="1620" width="40" height="30" as="geometry"/>
                </mxCell>
                <mxCell id="215" value="1FN" style="text;strokeColor=none;fillColor=none;spacingLeft=4;spacingRight=4;overflow=hidden;rotatable=0;points=[[0,0.5],[1,0.5]];portConstraint=eastwest;fontSize=12;strokeWidth=16;" vertex="1" parent="1">
                    <mxGeometry x="930" y="1370" width="40" height="30" as="geometry"/>
                </mxCell>
            </root>
        </mxGraphModel>
    </diagram>
</mxfile>